<?xml version="1.0" encoding="utf-8"?>
<!-- Generator: Adobe Illustrator 20.1.0, SVG Export Plug-In . SVG Version: 6.00 Build 0)  -->
<svg version="1.1" id="Layer_1" xmlns="http://www.w3.org/2000/svg" xmlns:xlink="http://www.w3.org/1999/xlink" x="0px" y="0px"
	 viewBox="0 0 960 1480.9" style="enable-background:new 0 0 960 1480.9;" xml:space="preserve">
<style type="text/css">
	.st0{fill:#9CE0FF;}
	.st1{opacity:0.8;fill:#FFFFFF;enable-background:new    ;}
	.st2{fill:#334D4D;}
	.st3{fill:#E6E6E6;}
	.st4{fill:#FFFFFF;}
	.st5{fill:#2B474D;}
	.st6{fill:none;}
	.st7{fill:#2C394D;}
	.st8{fill:#33434D;}
	.st9{opacity:0.9;fill:#FFFFFF;enable-background:new    ;}
	.st10{opacity:0.6;fill:#FFFFFF;enable-background:new    ;}
	.st11{fill:#FFFF7F;}
	.st12{fill:#E5E5E5;}
	.st13{fill:#CCCCCC;}
	.st14{fill:#A67C52;}
	.st15{fill:#9A7C52;}
	.st16{fill:#754C24;}
	.st17{fill:#71491A;}
	.st18{fill:#603813;}
	.st19{fill:#A66B45;}
	.st20{fill:#B58A64;}
	.st21{fill:#E29A8E;}
	.st22{clip-path:url(#SVGID_2_);}
	.st23{fill:#E2878E;}
	.st24{clip-path:url(#SVGID_5_);}
	.st25{fill:#C39F52;}
	.st26{fill:#8B6124;}
	.st27{fill:#FBB03B;}
	.st28{fill:#39B54A;}
	.st29{clip-path:url(#SVGID_7_);}
	.st30{clip-path:url(#SVGID_9_);}
	.st31{fill:#009245;}
	.st32{clip-path:url(#SVGID_11_);}
	.st33{clip-path:url(#SVGID_13_);}
	.st34{fill:#6A452E;}
	.st35{fill:#42210B;}
	.st36{fill:#FF9BAC;}
	.st37{fill:#753424;}
	.st38{fill:none;stroke:#2C394D;stroke-miterlimit:10;}
	.st39{fill:#395F7B;}
	.st40{fill:none;stroke:#FFFFFF;stroke-miterlimit:10;}
	.st41{font-family:'Lato-Light';}
	.st42{font-size:3.0571px;}
	.st43{fill:none;stroke:#EFEFEF;stroke-width:0.25;stroke-miterlimit:10;}
</style>
<g id="background">
	<rect x="53.6" y="85.9" class="st0" width="848.7" height="707.2"/>
</g>
<path id="cloud6" class="st1" d="M481.7,225.3h156c-3.1-14.4-15.9-25.3-31.2-25.3c-5.4,0-10.4,1.4-14.9,3.6
	c-5-12.3-16.9-20.9-30.9-20.9c-18.4,0-33.4,15-33.4,33.4c0,0.4,0,0.9,0,1.3c-4.1-0.8-8.5-1.3-12.9-1.3
	C501.6,216.3,490.1,219.6,481.7,225.3z"/>
<g id="mountains">
	<g>
		<path class="st2" d="M688.9,267.7l-27.8,14c0,0-19.5,27.7-20.4,28c-0.9,0.4-33.2,23.7-33.2,23.7l-38.9,49.6l23.6,96l63-8.3
			L688.9,267.7z"/>
		<polygon class="st3" points="705.4,350.6 722.4,321 743.9,341.6 753.1,335.6 705.5,232.3 705.1,232.9 705.1,350.2 		"/>
		<polygon class="st4" points="705.1,350.2 705.1,232.9 664.6,321.2 682.6,311.9 		"/>
		<polygon class="st5" points="861.6,571.7 753.1,335.5 744,341.4 722.5,321 705.4,350.6 705.1,350.2 705.1,571.7 705.6,571.7 		"/>
		<polygon class="st2" points="682.7,311.9 664.7,321 549.4,571.7 705.1,571.7 705.1,350.2 		"/>
		<polygon class="st4" points="664.6,321.2 640.7,309.7 661.1,281.6 688.9,267.7 696.3,280.2 		"/>
		<path class="st5" d="M704.8,350.2L692,398.6l-11.7,11.7c0,0-13.8,32.1-11.7,36.2c2.1,4.2,11.7,32.4,11.7,32.4l24.6,32.3
			c0,0,56.8-53.2,57.6-51C763.3,462.3,704.8,350.2,704.8,350.2z"/>
		<polygon class="st3" points="704.7,252.9 699.2,276.8 696.3,294.4 700.6,304.3 700.6,326.1 704.9,350.2 715.4,304.3 		"/>
		<path class="st5" d="M756.8,343.7l20.3,25l18.4,16.4l32.2,17.5l20.6,59c0,0,17.6,31.3,18.4,33.5c0.7,2.2-41.1,26.2-41.1,26.2
			L762.4,460L756.8,343.7z"/>
	</g>
	<g>
		<path class="st2" d="M193,307.2l-14.7,35.6l-27.2,31l-14.9,31.7l-14.4,47.9l-27.7,52.9v54.7h31.1l90-39.9
			c0,0,17.5-130.8,18.7-132.8c1.1-1.9,22.9-110.5,22.9-110.5l-29.6-2.5L193,307.2z"/>
		<polygon class="st5" points="330.9,289.6 349.9,331.6 370.6,355.5 370.9,414 354.2,446.5 302.9,295.5 		"/>
		<path class="st6" d="M274.6,323.3c0.2,0,0.4,0,0.4-0.1v-0.2C274.9,323.3,274.7,323.3,274.6,323.3z"/>
		<path class="st6" d="M274.8,323c0,0,0.6,0.1-0.3,0.1v0.2c0.9-0.1,0.4-0.1,0.4-0.2c2.2-3.8,16.4-30.9,16.9-31.8l-0.1-0.1
			C291.8,291.2,277.1,319.2,274.8,323z"/>
		<path class="st4" d="M247.1,291.4v21.3l9.7-14.1c0,0,13.8,24.3,17.5,24.6c0.2,0,0.2-0.1,0.2-0.3V180.7l-42.2,107.2h-0.3v0.3
			L247.1,291.4z"/>
		<path class="st3" d="M274.8,323c2.2-3.8,17-31.9,17-31.9l0.1,0.1l0.1-0.1l19,21.7c0.3-0.5,4.4-8.7,9.6-17.4L275,180l-0.5,0.7
			v142.3C275.4,323.1,274.8,323.1,274.8,323z"/>
		<path class="st5" d="M425.2,561.1L320.7,295.4c-5.4,9-9.6,17.4-9.6,17.4l0,0l0,0l-19-21.7c-0.5,1-14.9,28.1-17.1,31.8
			c-0.1,0.1,0.4,0.2-0.4,0.2V561h0.7L425.2,561.1L425.2,561.1z"/>
		<path class="st2" d="M274.4,323.3c-3.5,0.4-17.6-24.6-17.6-24.6l-9.6,14.1v-21.4l-14.7-3.2L125.2,561.1h149.3V323.3
			C274.6,323.3,274.6,323.3,274.4,323.3z"/>
		<path class="st2" d="M256.8,298.8c0,0,14.2,24.9,17.8,24.6C270.8,323.1,256.8,298.8,256.8,298.8z"/>
		<polygon class="st2" points="232.1,288.3 232.1,288.3 246.7,291.4 		"/>
		<path class="st2" d="M292.1,291.2l19,21.7l0,0L292.1,291.2L292.1,291.2z"/>
		<path class="st3" d="M275,180.1c0,0,28.4,47.1,29.8,49.2c1.4,2.1,15.8,26.1,15.8,26.1l10.3,34.2l-10.2,5.9l-13.1-7.2L275,180.1z"
			/>
		<path class="st5" d="M274.8,323.4l-11.8,40.8v24.4c0,0,1,33.9-0.1,36c-1.1,2-13.8,32.4-15.9,35.2c-2.1,2.8-9.1,24.7-7,26.8
			c2,2.1-0.6,40.8,0,45.4c0.6,4.6-7.6,29-7.6,29h59l19.6-56l-34.5-181.9"/>
		<path class="st3" d="M274.5,182.7l-2.7,42.6c0,0-7.1,18-6,20.9c1.1,2.8,4.3,15.6,4.3,15.6l4.4,33.7l12.7-28.9L274.5,182.7z"/>
		<path class="st4" d="M275,180.1c0,0-0.4,0.6-1.2,1.7c-4.5,6.1-19.8,26.8-20.4,29.2c-0.7,2.7-11.8,22.3-13.6,23.8
			c-1.9,1.5-7.5,22-7.5,22l-39.3,50.4l28.1-17.7l2.8,5.9l8.8-7.2l14.6-12.8l9.8-31.8l8.8-32.6L275,180.1z"/>
	</g>
	<g>
		<path class="st7" d="M549.4,251.6l36.8,61.3l18.3,41.9c0,0,22.4,26.4,25.9,28.6c3.5,2.1,37.6,32.1,38.3,34.2
			c0.7,2.1,5.8,8.3,6.5,12.6c0.7,4.3,23.7,69.2,23.7,72c0,2.8,0,56.8,0,56.8l-61.7,2.1L502.4,382.3l9.5-166.5L549.4,251.6z"/>
		<polygon class="st3" points="494.8,242.8 509.3,233.3 523.6,273 537.6,247 486.8,87.3 485.8,89.2 485.8,234.9 		"/>
		<polygon class="st4" points="475.8,225.3 485.8,234.9 485.8,89.2 441.6,229.8 463,261.8 		"/>
		<polygon class="st8" points="475.8,225.3 463.2,261.8 441.9,229.8 337.1,561.1 485.8,561.1 485.8,234.9 		"/>
		<polygon class="st7" points="637.1,561.1 537.7,247 523.7,273 509.4,233.3 494.8,242.8 485.8,234.9 485.8,561.1 487.2,561.1 		"/>
		<path class="st8" d="M442,229.8c0,0-44.6,68.6-45.7,69c-1.1,0.4-6.8,22.3-6.8,24.3c0,2.1-39.9,44.1-39.6,45.6
			c0.3,1.5-48.3,39-52.2,41.1c-4.1,2.1-22.5,64.2-22.5,64.2l-21.7,50.7l83.8,36.3l38.2-20.1L442,229.8z"/>
		<path class="st4" d="M486.2,89.2L453.7,158c0,0-14.8,36.4-14.8,36.5c0,0.1-15.1,48.8-15.1,48.8l-14.9,37.4l33.2-50.9l18-7.6
			L486.2,89.2z"/>
		<path class="st3" d="M486.2,89.2l30.2,59.7c0,0,6.4,17,7.8,21.8c1.4,5,13.5,28.5,13.5,28.5l11.8,52.3l-11.8-4.6l-20-35.9
			L486.2,89.2z"/>
		<polygon class="st7" points="486.1,234.8 475.2,280.7 475.2,323.1 447.4,378.1 431,411.2 436,439.6 442,522.6 431,561.1 
			497.7,561.1 526.9,487.3 493.8,261.8 		"/>
		<polyline class="st3" points="486.9,87.3 486.5,89 475.4,143.8 479,170.8 471.2,203.9 486.3,234.8 502.3,208.1 		"/>
	</g>
</g>
<g id="horizon">
	<path id="cloud5" class="st9" d="M343.4,161c-5-5.8-12.8-9.6-21.5-9.6c-4.2,0-8.2,0.9-11.8,2.5c-3.7-18.7-20.9-33-41.5-33
		c-9.2,0-17.7,2.8-24.6,7.5c-7.2-4.7-16.4-7.5-26.3-7.5c-18.2,0-33.8,9.5-39.6,22.7c-3.6-1-7.6-1.5-11.7-1.5
		c-15.8,0-29.2,8-33.2,18.9H343.4z"/>
	<path id="cloud4" class="st10" d="M197.1,251.7c-2.5-6.2-9.5-9.9-17.7-9.9c-2.9,0-5.7,0.4-8.1,1.3c-2.8-9.7-13.4-17.1-26.1-17.1
		c-4.4,0-8.6,0.9-12.2,2.4c-5.4-9.2-16.3-15.5-28.7-15.5c-16,0-29.3,10.3-31.9,23.9c-3.1-0.9-6.5-1.2-10-1.2
		c-13.3,0-24.5,6.2-28.5,15.9h163.2V251.7z"/>
	<circle id="sun" class="st11" cx="486.8" cy="101.5" r="59.5"/>
	<path id="cloud7" class="st1" d="M663.3,169.5h141c-2.8-13-14.4-22.9-28.2-22.9c-4.9,0-9.4,1.2-13.5,3.3
		c-4.5-11.1-15.3-18.9-28-18.9c-16.6,0-30.2,13.6-30.2,30.2c0,0.3,0,0.8,0,1.1c-3.7-0.7-7.7-1.1-11.7-1.1
		C681.3,161.3,670.9,164.4,663.3,169.5z"/>
	<path id="cloud3" class="st1" d="M711.1,283.9h136.1c-2.7-12.6-13.9-22-27.2-22c-4.7,0-9.1,1.1-13,3.2
		c-4.3-10.7-14.8-18.2-27.1-18.2c-16.1,0-29.2,13.1-29.2,29.2c0,0.4,0,0.7,0,1.1c-3.6-0.7-7.3-1.1-11.3-1.1
		C728.5,276.1,718.4,279.1,711.1,283.9z"/>
	<path id="cloud2" class="st1" d="M750,381.2h110.1c-2.2-10.2-11.2-17.9-22-17.9c-3.8,0-7.3,1-10.5,2.6
		c-3.5-8.7-11.9-14.8-21.8-14.8c-13,0-23.6,10.6-23.6,23.6c0,0.3,0,0.6,0,0.9c-2.9-0.5-6-0.9-9.1-0.9
		C764,374.8,755.9,377.2,750,381.2z"/>
	<path id="cloud1" class="st1" d="M39.1,373.7h110.1c-2.2-10.2-11.2-17.9-22-17.9c-3.8,0-7.3,1-10.5,2.6
		c-3.5-8.7-11.9-14.8-21.8-14.8c-13,0-23.6,10.6-23.6,23.6c0,0.3,0,0.6,0,0.9c-2.9-0.5-6-0.9-9.1-0.9
		C53.2,367.4,45.1,369.8,39.1,373.7z"/>
</g>
<g id="nuclear">
	<g>
		<path class="st12" d="M466.7,425.4c-0.8-25.7-7.2-85.8-0.8-89.1c9.1-4.8-1.4-6.7-1.4-6.7l-61.3-0.1v219.7h92.5
			C495.7,549.2,467.5,451.1,466.7,425.4z"/>
		<path class="st12" d="M342.4,329.6c0,0-10.4,1.9-1.4,6.7c6.4,3.3,0,63.4-0.8,89.1c-0.8,25.7-29,123.8-29,123.8h92.3V329.5
			L342.4,329.6z"/>
	</g>
	<path class="st13" d="M339.2,336.1h128.1c1.3,0,2.5-1.1,2.5-2.5V332c0-1.3-1.1-2.5-2.5-2.5H339.2c-1.3,0-2.5,1.1-2.5,2.5v1.7
		C336.7,335.1,337.8,336.1,339.2,336.1z"/>
</g>
<g id="aarde3">
	<rect x="53.6" y="613.7" class="st14" width="848.7" height="134.4"/>
	<path class="st15" d="M124.6,703.9c0,0,18.3-4.2,20.6-3.7c2.4,0.4,13.5,7.7,13.5,7.7l54.8,18.7c0,0,34.7-7,36.5-5.8
		c1.8,1.1,16.9,10,17,11.5c0.1,1.5-3.6,7.4-3.6,7.4l-16.4-7.4l-17.9,6.7l-33.3,6.5l-41.8-16.6l-26.2-6L124.6,703.9z"/>
	<path class="st15" d="M669,685.3l-11.8-4.4c0,0-32.4,16.2-34.1,17.7c-1.8,1.5-22,9.3-24,11.2c-1.9,2-29.3,5.1-32.4,6.2
		c-3.1,1.1-27.1,5.8-27.1,8.1c-0.1,2.4-1.4,11.7-1.4,11.7l18.5,12.2h25.6l8.8-12.7c0,0,29.8-2.8,32.7-3.2s39.5-1.9,39.5-1.9
		l17.7-14.9l-4-13.7L669,685.3z"/>
</g>
<g id="aarde2">
	<path class="st16" d="M767.7,659.5l-8.4,9.9h-10h-32.7l-21-4.1l-9.8,4.2l-16.7-3.1l-61.3-6.8l-68.2,9.9l-62.1,8.2l-58.4-1.7
		l-37.3-2.7l-73.8,7.5l-27.7-11.3c-3.5-0.2-59-4.2-61.3-3.1s-14.8,5.8-17.7,7c-2.9,1.1-27.9-4-30.8-2.9c-2.8,1.1-6.3-2.9-11.7-4.1
		s-39.3,7.1-39.3,7.1l-17.3-3.1l-21.2-1.1l-14.1,4.2l-6.2-3.1v-11l5-9.3c0,0,546.8-6.2,544.8-4.8C608.5,647,767.7,659.5,767.7,659.5
		z"/>
	<rect x="53.6" y="557.1" class="st16" width="848.7" height="102.5"/>
	<path class="st17" d="M77.2,627.4l21.4-4.6l20.9,11.8l14,6.5c0,0,40.7-4.1,40.7-1.8c0,2.4,10,14.7,11.2,17.5
		c1.1,2.8-4.7,7.4-4.7,7.4l-38.3-1.1l-33.2-4.4l-33-2.8l4.2-18.9L77.2,627.4z"/>
	<path class="st17" d="M620.9,587.4c0,0-29.4,7.8-33,10.2c-3.5,2.4-19.2,3.5-21,2.9c-1.9-0.6-16.6,4.2-22.3,6.5
		c-5.6,2.3-19.2,25.9-19.2,25.9s21.2,6.5,22.7,6.5s36.4-14.8,44.3-12.6c7.9,2,32.4-5.5,37.5-6.7c5.1-1.2,11.1-21,9.9-21.7
		C638.5,597.5,620.9,587.4,620.9,587.4z"/>
	<rect x="60.7" y="557.1" class="st18" width="707.2" height="15.9"/>
	<ellipse class="st19" cx="691" cy="693" rx="4.7" ry="4.2"/>
	<circle class="st19" cx="109.1" cy="683.6" r="2.7"/>
</g>
<g id="Aarde">
	<path class="st14" d="M58,743.6l11.5,4.5h18.6l25-1.8l24.1,8.2l18.8,1.8l28.3-10.3c0,0,24.8,0.9,26.5,2c1.8,1.1,20.3,0.3,23.4,1.3
		c3.1,1.1,29.4-1.9,30.1-1.3c0.7,0.5,29.3-5.4,30.6-4.2s32.9,6,32.9,6h20.9l43.4-1.8l57.7-4.4l52.6,9.1c0,0,22.5,1.8,24.9,1.8
		c2.4,0,57.8-6.5,57.8-6.5h25.4l26.5,1.3l23.6-3.1l32.4,3.6h33.3l20.2-2l18.7-4.2l-3.8-8H250.7H121.7L58,743.6z"/>
	<path class="st18" d="M815.8,587.4l26.7,4.1l16-6.2l12.8-11.5l-5.3-10.7l-15.5-4.8l-22.9,1.9c0,0-14.8,4.9-16.1,4.9
		c-1.3,0-12.7,16.7-12.7,16.7l1.9,9.8l-6.4,6.9v11.7l11.5,6.6l8.4-6.4c0,0-4-7-4-9.2S815.8,587.4,815.8,587.4z"/>
	<rect x="53.6" y="745.4" class="st20" width="848.7" height="650.6"/>
	<path class="st14" d="M811.8,731.9l-26.7-4.1l-16,6.2l-12.8,11.5l5.3,10.7l15.5,4.8l22.9-1.9c0,0,14.8-4.9,16.1-4.9
		c1.3,0,12.7-16.7,12.7-16.7l-1.9-9.8l6.5-6.9v-11.7l-11.5-6.6l-8.4,6.4c0,0,4,7,4,9.2C817.4,720.3,811.8,731.9,811.8,731.9z"/>
	<path class="st2" d="M480.5,738.5c0,0,20.2,5.8,21.2,11.8c1.1,6-12.6,12.4-19.4,12.3c-7-0.1-16.7-5.1-13.9-12.3
		C471.1,743.1,471.6,735.4,480.5,738.5z"/>
	<g>
		<g>
			<path class="st21" d="M319.8,719.4c-4.7,0-7.3-5-8.3-6.8c-2.4-4.5-5.7-5.5-5.7-5.6c-0.8-0.3-1.2-1.1-1.1-1.9
				c0.3-0.8,1.1-1.2,1.9-1.1c0.2,0.1,4.5,1.3,7.5,7c2.8,5.4,5.1,5.5,6.8,5c0.8-0.3,1.7,0.2,1.9,1c0.3,0.8-0.2,1.7-1,1.9
				C321.1,719.3,320.4,719.4,319.8,719.4z"/>
		</g>
		<g>
			<g>
				<defs>
					<path id="SVGID_1_" d="M319.8,719.4c-4.7,0-7.3-5-8.3-6.8c-2.4-4.5-5.7-5.5-5.7-5.6c-0.8-0.3-1.2-1.1-1.1-1.9
						c0.3-0.8,1.1-1.2,1.9-1.1c0.2,0.1,4.5,1.3,7.5,7c2.8,5.4,5.1,5.5,6.8,5c0.8-0.3,1.7,0.2,1.9,1c0.3,0.8-0.2,1.7-1,1.9
						C321.1,719.3,320.4,719.4,319.8,719.4z"/>
				</defs>
				<clipPath id="SVGID_2_">
					<use xlink:href="#SVGID_1_"  style="overflow:visible;"/>
				</clipPath>
				<g class="st22">
					<g>
						<path class="st23" d="M306.6,708.3c0-0.1-0.4-1.7,0.4-3c0.5-0.8,1.3-1.3,2.5-1.5l0.1,0.6c-1,0.2-1.7,0.6-2.1,1.2
							c-0.7,1.1-0.4,2.5-0.4,2.5L306.6,708.3z"/>
					</g>
					<g>
						<path class="st23" d="M307.9,709.4c0,0,0-4,4-4.4l0.1,0.6c-3.4,0.4-3.4,3.7-3.4,3.8H307.9z"/>
					</g>
					<g>
						<path class="st23" d="M310,710.7l-0.6-0.1c0,0,0.5-3.9,4.5-3.5l-0.1,0.6C310.4,707.3,310,710.5,310,710.7z"/>
					</g>
					<g>
						<path class="st23" d="M310.3,712.5l-0.5-0.3c0-0.1,0.9-2.1,2.6-2.7c0.9-0.4,1.8-0.3,2.7,0.2l-0.3,0.5
							c-0.8-0.4-1.5-0.4-2.2-0.2C311.1,710.7,310.3,712.5,310.3,712.5z"/>
					</g>
					<g>
						<path class="st23" d="M312,714.1l-0.5-0.3c0,0,1.2-3.1,4.8-1.8l-0.2,0.5C313.1,711.7,312.1,714,312,714.1z"/>
					</g>
					<g>
						<path class="st23" d="M313.2,716.2l-0.5-0.2c0,0,1.1-3.1,4.6-2.2l-0.2,0.6C314.2,713.6,313.3,716.1,313.2,716.2z"/>
					</g>
					<g>
						<path class="st23" d="M315.2,718.9h-0.6c0,0,0-1.9,1.1-3.1c0.7-0.6,1.6-1.1,2.7-1.1v0.5c-1,0-1.7,0.4-2.3,1
							C315.2,717.2,315.2,718.9,315.2,718.9z"/>
					</g>
					<g>
						<path class="st23" d="M318.2,720c0,0-1.6-3.4,1.7-5.3l0.3,0.5c-2.7,1.6-1.4,4.4-1.4,4.5L318.2,720z"/>
					</g>
				</g>
			</g>
		</g>
	</g>
	<g>
		<g>
			<path class="st21" d="M615.4,647.6c3.1-3.5,8.6-2.2,10.6-1.8c5,1.1,7.9-0.6,7.9-0.6c0.7-0.4,1.7-0.3,2.1,0.4s0.3,1.7-0.4,2.1
				c-0.2,0.1-3.9,2.6-10.3,1.1c-5.9-1.4-7.5,0.3-8.2,1.9c-0.4,0.8-1.2,1.1-2,0.8c-0.8-0.4-1.1-1.2-0.8-2
				C614.5,648.6,614.9,648,615.4,647.6z"/>
		</g>
		<g>
			<g>
				<defs>
					<path id="SVGID_4_" d="M615.4,647.6c3.1-3.5,8.6-2.2,10.6-1.8c5,1.1,7.9-0.6,7.9-0.6c0.7-0.4,1.7-0.3,2.1,0.4s0.3,1.7-0.4,2.1
						c-0.2,0.1-3.9,2.6-10.3,1.1c-5.9-1.4-7.5,0.3-8.2,1.9c-0.4,0.8-1.2,1.1-2,0.8c-0.8-0.4-1.1-1.2-0.8-2
						C614.5,648.6,614.9,648,615.4,647.6z"/>
				</defs>
				<clipPath id="SVGID_5_">
					<use xlink:href="#SVGID_4_"  style="overflow:visible;"/>
				</clipPath>
				<g class="st24">
					<g>
						<path class="st23" d="M632.4,644.9c0.1,0,1.5,0.8,1.9,2.3c0.3,0.9,0.1,1.9-0.5,2.8l-0.5-0.3c0.5-0.9,0.6-1.7,0.4-2.4
							c-0.4-1.2-1.6-1.9-1.6-1.9L632.4,644.9z"/>
					</g>
					<g>
						<path class="st23" d="M630.7,645.2c0,0,3,2.7,0.8,5.9l-0.5-0.4c1.9-2.8-0.5-5-0.7-5.1L630.7,645.2z"/>
					</g>
					<g>
						<path class="st23" d="M628.4,645.9l0.4-0.4c0,0,2.7,2.9-0.3,5.7l-0.4-0.4C630.7,648.4,628.5,646,628.4,645.9z"/>
					</g>
					<g>
						<path class="st23" d="M626.7,644.9l0.5-0.3c0,0.1,1,2,0.4,3.7c-0.3,0.9-1,1.5-1.9,1.9l-0.3-0.5c0.8-0.4,1.3-0.9,1.6-1.6
							C627.6,646.7,626.7,644.9,626.7,644.9z"/>
					</g>
					<g>
						<path class="st23" d="M624.4,645.1l0.5-0.3c0,0,1.5,3-1.8,4.8l-0.3-0.5C625.6,647.6,624.4,645.3,624.4,645.1z"/>
					</g>
					<g>
						<path class="st23" d="M622.1,644.7l0.5-0.3c0,0,1.6,2.9-1.3,5l-0.4-0.5C623.3,647.1,622.1,644.8,622.1,644.7z"/>
					</g>
					<g>
						<path class="st23" d="M618.7,644.4l0.4-0.4c0,0,1.5,1.3,1.6,2.9c0.1,1-0.3,1.9-1,2.7l-0.4-0.4c0.6-0.7,0.8-1.6,0.8-2.3
							C620,645.5,618.7,644.4,618.7,644.4z"/>
					</g>
					<g>
						<path class="st23" d="M615.9,645.9c0,0,3.6,1.1,2.9,4.8l-0.6-0.1c0.6-3.1-2.4-4-2.5-4.1L615.9,645.9z"/>
					</g>
				</g>
			</g>
		</g>
	</g>
	<circle class="st25" cx="262" cy="700.2" r="1.6"/>
	<circle class="st25" cx="107.8" cy="701.7" r="1.3"/>
	<circle class="st25" cx="108.4" cy="716.1" r="0.7"/>
	<circle class="st25" cx="129.4" cy="700.2" r="1.6"/>
	<circle class="st25" cx="70.1" cy="736.4" r="1.1"/>
	<circle class="st25" cx="169.2" cy="738.6" r="1.1"/>
	<circle class="st25" cx="215.4" cy="676.9" r="0.9"/>
	<circle class="st25" cx="77.2" cy="687.5" r="1.1"/>
	<ellipse class="st25" cx="498.3" cy="708.8" rx="0" ry="1"/>
	<ellipse class="st25" cx="376.5" cy="735.9" rx="0" ry="0.5"/>
	<circle class="st25" cx="850.6" cy="703" r="1.3"/>
	<circle class="st25" cx="514.4" cy="733.8" r="1.6"/>
	<circle class="st25" cx="584.6" cy="690.4" r="1.1"/>
	<path class="st18" d="M60.5,557.1l19.8-5l33,2.5l40.8-2.5l23.1,2.4l45.5-2.7h43.8c0,0,35.1-1.5,39.4,0c4.3,1.5,49.8,2.1,51.2,2
		c2.4-0.2,53,0.2,53,0.2l35.7-0.4l56.8-3l47.2,3.1l45.9-2.8h50.7l37.7,3l80.3,3l28.1-5.9h39.8l21.7,3l46.5,3.2l-13.6,8L460,573.4
		l-182.7-3.9H158.4L60.5,557.1z"/>
	<circle class="st26" cx="294.8" cy="655.8" r="2.8"/>
	<circle class="st26" cx="553.9" cy="616.8" r="2.7"/>
	<circle class="st26" cx="567.7" cy="635.4" r="0.9"/>
	<circle class="st26" cx="592.3" cy="634.1" r="1.2"/>
	<circle class="st26" cx="79.7" cy="642.3" r="1.3"/>
	<circle class="st26" cx="80.3" cy="593.5" r="0.6"/>
	<circle class="st26" cx="137.9" cy="636.8" r="1.4"/>
	<circle class="st26" cx="699.1" cy="612.1" r="1.1"/>
	<ellipse class="st26" cx="749.9" cy="594.5" rx="0" ry="0.7"/>
	<circle class="st26" cx="634.3" cy="607" r="1.4"/>
	<circle class="st26" cx="644.8" cy="656.8" r="1.1"/>
	<ellipse class="st26" cx="538.2" cy="591.6" rx="0" ry="1.4"/>
	<circle class="st26" cx="493.2" cy="664.3" r="1.1"/>
	<ellipse class="st26" cx="757" cy="605.5" rx="0" ry="0.7"/>
	<circle class="st25" cx="646.7" cy="726.9" r="1.9"/>
	<ellipse class="st25" cx="735.3" cy="691.5" rx="0" ry="1.9"/>
	<circle class="st25" cx="710.7" cy="726.2" r="1.1"/>
	<circle class="st25" cx="700.1" cy="709.8" r="0"/>
	<path class="st4" d="M534.1,655.5c-1.1-0.2-2.2,0.6-2.4,1.8c-0.1,0.5,0.1,1.1,0.4,1.4c-0.5,0.4-0.9,0.9-1,1.6
		c-0.2,1.2,0.7,2.5,1.9,2.7c1.1,0.2,2.2-0.5,2.6-1.6l17.2,2.6c0,0.8,0.6,1.4,1.3,1.5c0.9,0.1,1.7-0.4,1.8-1.3c0-0.3,0-0.5-0.1-0.8
		c0.8-0.2,1.4-0.8,1.6-1.7c0.2-1.1-0.6-2.1-1.7-2.3c-0.9-0.1-1.7,0.3-2,1.1l-17.8-2.7C535.9,656.7,535.2,655.7,534.1,655.5z"/>
	<path class="st2" d="M132.2,653.7c0,0,20.2,5.8,21.2,11.8s-12.6,12.4-19.4,12.3c-7-0.1-16.7-5.1-13.9-12.3
		C122.8,658.3,123.3,650.6,132.2,653.7z"/>
	<path class="st8" d="M165.9,653c0,0-10.6,2.9-5.9,6.7c4.7,3.8,17.1,2.7,17.7,0C178.2,657,172.8,649.1,165.9,653z"/>
	<path class="st8" d="M816.5,645.7c0,0-10-10.2-18.3-6.6c-8.2,3.5-30.7,9-27.1,16.9s25,17.9,30.8,18.7
		C807.7,675.6,833,658.3,816.5,645.7z"/>
	<path class="st27" d="M747.6,622.6c-0.5-1.8-2.4-2.7-4.2-2.2c-1.8,0.5-2.8,2.4-2.3,4.1c0.4,1.4,2.1,2.3,3.1,2.4l1.6,5.4l-1.7,0.5
		l0.5,1.7l1.7-0.5l0.7,2.4l-2.7,0.6l0.4,1.4l4.4-1.1l-3.2-11C747.5,625.8,748.1,624.2,747.6,622.6z M744.9,625.4
		c-1,0.3-1.9-0.3-2.3-1.2c-0.3-1,0.3-1.9,1.2-2.3c1-0.3,1.9,0.3,2.3,1.2C746.4,624,745.9,625.1,744.9,625.4z"/>
	<g>
		<g>
			<polygon id="SVGID_3_" class="st28" points="612,598.1 606.7,599.8 601.4,601.4 599.2,605.5 610.7,612.9 616.2,600.3 			"/>
		</g>
		<g>
			<defs>
				<polygon id="SVGID_6_" points="612,598.1 606.7,599.8 601.4,601.4 599.2,605.5 610.7,612.9 616.2,600.3 				"/>
			</defs>
			<clipPath id="SVGID_7_">
				<use xlink:href="#SVGID_6_"  style="overflow:visible;"/>
			</clipPath>
			<g class="st29">
				<polygon class="st28" points="612,598.1 606.7,599.8 601.4,601.4 599.2,605.5 610.7,612.9 616.2,600.3 				"/>
			</g>
		</g>
		<g>
			<defs>
				<polygon id="SVGID_8_" points="612,598.1 606.7,599.8 601.4,601.4 599.2,605.5 610.7,612.9 616.2,600.3 				"/>
			</defs>
			<clipPath id="SVGID_9_">
				<use xlink:href="#SVGID_8_"  style="overflow:visible;"/>
			</clipPath>
			<g class="st30">
				
					<rect x="598.8" y="602.7" transform="matrix(0.9567 -0.291 0.291 0.9567 -149.16 202.9201)" class="st31" width="17.8" height="0.5"/>
			</g>
		</g>
		<g>
			<defs>
				<polygon id="SVGID_10_" points="612,598.1 606.7,599.8 601.4,601.4 599.2,605.5 610.7,612.9 616.2,600.3 				"/>
			</defs>
			<clipPath id="SVGID_11_">
				<use xlink:href="#SVGID_10_"  style="overflow:visible;"/>
			</clipPath>
			<g class="st32">
				<polygon class="st31" points="611.3,601.9 606.9,600.2 604.9,603.9 601.2,601.7 601.6,601.1 604.7,603.1 606.6,599.5 611,601.1 
					611.8,598.1 612.3,598.2 				"/>
			</g>
		</g>
		<g>
			<defs>
				<polygon id="SVGID_12_" points="612,598.1 606.7,599.8 601.4,601.4 599.2,605.5 610.7,612.9 616.2,600.3 				"/>
			</defs>
			<clipPath id="SVGID_13_">
				<use xlink:href="#SVGID_12_"  style="overflow:visible;"/>
			</clipPath>
			<g class="st33">
				<polygon class="st31" points="611,613.8 604.5,603.6 605,603.4 610.4,611.9 610.9,601.5 611.4,601.5 				"/>
			</g>
		</g>
	</g>
	<g>
		<path class="st4" d="M206.1,699.5c0-0.8-0.4-1.4-0.7-1.9c0.4-0.4,0.6-0.8,0.7-1.4c0.3-1.6,0.6-1.7,0.6-1.7s1.9-4-0.4-5.1
			c0,0-0.8,0.1-1.2-0.3c-0.4-0.4-2.5-2.5-3.6-2.4c-1.1,0.2-3,0.5-3.6,0.6c-0.6,0.1-1.8-0.5-2.7-0.1s-7.6,3.5-9.8,4.6
			c-2.2,1.1-6.5,2.3-6.7,7.1c0,0,0.5,0.4,1.6,0.9v0.1c0,0,0.1,1.5,1.2,1.9c0,0-0.4-0.8-0.4-1.5c0.1,0.3,0.3,0.5,0.4,0.5
			s0.2-0.4,0.2-0.5h0.1c0.1,0.2,0.3,0.6,0.4,0.7c0.2,0,0.2-0.3,0.2-0.5c0.1,0,0.2,0,0.3,0c0.1,0.2,0.3,0.7,0.4,0.7
			c0.2,0,0.2-0.4,0.2-0.6c0.1,0,0.3,0,0.4,0c0,0,0.1,1.5,1.2,1.9c0,0-0.4-1.1-0.4-1.9c0.3,0,0.5,0,0.8,0c0,0,0.3,0.8,0.5,0.8
			c0.3,0,0.2-0.9,0.2-0.9c0.2,0,0.4-0.1,0.6-0.1c0.1,0.3,0.3,0.5,0.4,0.6c0.2,0,0.2-0.4,0.2-0.7c0.3,0,0.4-0.1,0.7-0.2
			c0.1,0.2,0.3,0.4,0.4,0.4c0.2,0,0.2-0.4,0.2-0.6c0.3-0.1,0.4-0.1,0.7-0.2c0.1,0.2,0.2,0.4,0.4,0.4c0.2,0,0.2-0.3,0.2-0.5
			c0.3-0.1,0.5-0.1,0.8-0.2c0.1,0.3,0.3,0.5,0.4,0.5c0.2,0,0.2-0.4,0.2-0.7c0.2,0,0.4-0.1,0.6-0.1l0,0c0,0.1,0.3,0.8,0.5,0.8
			c0.3,0,0.2-0.6,0.2-0.8c0.2,0,0.4,0,0.6,0l0,0c0,0,0.3,0.8,0.5,0.8s0.2-0.5,0.2-0.8c0.2,0,0.4,0,0.6,0c0,0.1,0.3,0.7,0.5,0.8
			c0.3,0,0.2-0.5,0.2-0.7c0.2,0,0.4,0,0.6,0c0.1,0.2,0.3,0.7,0.5,0.7c0.2,0,0.2-0.4,0.2-0.7c0.8,0,1.7,0.1,2.5,0.1
			c-0.6,0.4-1.3,0.9-2.1,1.4c-0.2-0.2-0.4-0.4-0.5-0.4c-0.2,0-0.1,0.4,0,0.7c-0.1,0.1-0.3,0.2-0.4,0.3c-0.2-0.2-0.4-0.4-0.5-0.4
			s-0.1,0.5,0,0.7c-0.1,0.1-0.3,0.2-0.4,0.3c-0.2-0.2-0.4-0.4-0.5-0.4c-0.3,0-0.1,0.5,0,0.8c-0.1,0.1-0.3,0.2-0.4,0.3
			c-0.2-0.2-0.4-0.4-0.5-0.4c-0.3,0-0.1,0.6,0,0.8c-0.1,0.1-0.3,0.2-0.4,0.3c-0.2-0.2-0.4-0.5-0.5-0.4c-0.3,0,0,0.7,0,0.9
			c-0.1,0.1-0.3,0.2-0.4,0.3c-0.1-0.2-0.4-0.5-0.6-0.5c-0.3,0,0,0.9,0,0.9l0,0c-0.1,0.1-0.3,0.1-0.4,0.2c-0.2-0.2-0.4-0.5-0.6-0.5
			c-0.2,0-0.1,0.5,0,0.8c-0.1,0.1-0.3,0.1-0.4,0.2c-0.2-0.2-0.4-0.4-0.5-0.4c-0.2,0-0.1,0.4-0.1,0.6c-0.2,0.1-0.4,0.2-0.4,0.2
			c-0.1-0.2-0.3-0.3-0.4-0.3c-0.2,0-0.2,0.3-0.1,0.4c-0.2,0.1-0.4,0.2-0.5,0.3c-0.2-0.2-0.4-0.4-0.5-0.4c-0.2,0-0.1,0.4,0,0.6
			c-0.1,0.1-0.2,0.1-0.3,0.2c-0.4-0.4-0.6-0.9-0.6-0.9c-0.4,0.1-0.3,0.8,0,1.3c-0.1,0.1-0.3,0.2-0.4,0.2c-0.4-0.4-0.5-0.9-0.5-0.9
			c-0.4,0.1-0.3,0.9,0,1.3c-0.4,0.4-0.5,0.7-0.4,1c0.6,1.6,3.4,3.3,5.9,2.1c2.5-1.1,8.2-5.2,9.9-5.7c1.7-0.4,3.1-2.5,3.3-3.3
			C204.8,700.6,206,701,206.1,699.5z M184.2,696.5c-1-0.8,0.4-1.8,0.4-1.8s1.1,0.9,1.1,1.8C185.5,697.4,185.1,697.2,184.2,696.5z
			 M191.6,697.3c-0.6,0.3-1.9-0.5-2.3-0.4s-2.6,0-2.8-0.4c-0.3-0.4-0.9-4.5,3.6-4.1c0.4,0,0.4-0.6,1.1-0.8c0.6-0.2,1.5-0.1,1.2,1.1
			c-0.3,1.2-0.5,0.6-0.6,1.7C191.8,695.7,192.2,697.2,191.6,697.3z M196.7,694c-0.1,1,0.1,3.1-0.4,3.3c-0.4,0.2-2.5,0.7-3-0.5
			c-0.5-1.2-1.4-6.5,2.8-6.7c0.5,0,1.7,0.7,1.6,1.6C197.8,692.5,196.8,693,196.7,694z"/>
	</g>
	<path class="st18" d="M60.7,572.9l11.5,4.5h18.6l25-1.8l24.1,8.2l18.8,1.8l28.3-10.3c0,0,24.8,0.9,26.5,2
		c1.8,1.1,20.3,0.3,23.4,1.3c3.1,1.1,29.4-1.9,30.1-1.3c0.7,0.5,29.3-5.4,30.6-4.2c1.3,1.1,32.9,6,32.9,6h20.9l43.4-1.8l57.7-4.4
		l52.6,9.1c0,0,22.5,1.8,24.9,1.8c2.4,0,57.8-6.5,57.8-6.5h25.4l26.5,1.3l23.6-3.1l32.4,3.6h33.3l20.2-2l18.7-4.2l-3.8-8H253.4
		H124.3L60.7,572.9z"/>
	<path class="st18" d="M208.9,598.4l-26.7-4.1l-16,6.2L153.4,612l5.3,10.7l15.5,4.8l22.9-1.9c0,0,14.8-4.9,16.1-4.9
		s12.7-16.7,12.7-16.7l-1.9-9.8l6.5-6.9v-11.7l-11.5-6.6l-8.4,6.4c0,0,4,7,4,9.2C214.5,586.8,208.9,598.4,208.9,598.4z"/>
	<g>
		<g>
			<path class="st34" d="M184.5,623.8c0,0,2.7,0.1,2.7,1.4s-3.9,0.6-3.9,0.6S182.9,624.1,184.5,623.8z"/>
			<path class="st35" d="M189.2,621.6c0,2.6-6.7,5.1-12,5.1c-5.3,0-9.5-0.9-9.5-4.7c0-2.6,4.2-6.9,9.5-6.9
				C182.4,615,189.2,618.9,189.2,621.6z"/>
			<path class="st34" d="M181,624.7c0,0,2.7,0.1,2.7,1.4c0.1,1.3-3.9,0.6-3.9,0.6S179.4,625,181,624.7z"/>
			<path class="st34" d="M169.5,624.7c0,0,2.7,0.1,2.7,1.4c0.1,1.3-3.9,0.6-3.9,0.6S167.9,625,169.5,624.7z"/>
		</g>
		<ellipse class="st35" cx="185.3" cy="620.6" rx="0.6" ry="0.8"/>
		<path class="st36" d="M187.9,620.2c0,0,1.1-0.4,1.6,0c0.4,0.4-0.3,1.6-0.4,1.9C188.9,622.5,187.4,620.5,187.9,620.2z"/>
	</g>
	<circle class="st37" cx="641.7" cy="575.4" r="2"/>
	<circle class="st37" cx="276.8" cy="616.8" r="1.6"/>
	<circle class="st37" cx="170.5" cy="637.1" r="2.2"/>
	<circle class="st37" cx="132.3" cy="619.6" r="1.1"/>
	<circle class="st37" cx="655.3" cy="634.9" r="2"/>
	<ellipse class="st37" cx="695.4" cy="643.8" rx="0" ry="1.5"/>
	<circle class="st37" cx="702.7" cy="591.6" r="2.9"/>
	<circle class="st37" cx="520.4" cy="624.1" r="1.5"/>
	<circle class="st37" cx="127.9" cy="579" r="3.3"/>
	<circle class="st37" cx="105.7" cy="643.1" r="0.7"/>
	<ellipse class="st37" cx="485.2" cy="583" rx="0" ry="0.9"/>
	<ellipse class="st37" cx="386.3" cy="643.1" rx="0" ry="0.7"/>
	<circle class="st37" cx="239.8" cy="584.5" r="1.5"/>
	<ellipse class="st37" cx="442.6" cy="587.4" rx="0" ry="1.3"/>
	<circle class="st37" cx="297.8" cy="621.4" r="2.9"/>
	<path class="st38" d="M68.2,232.7"/>
	<circle class="st19" cx="636.4" cy="684.2" r="3.3"/>
	<circle class="st19" cx="740.5" cy="715.1" r="1.6"/>
	<circle class="st37" cx="666.2" cy="597.5" r="2.9"/>
	<circle class="st37" cx="723.1" cy="613.1" r="2"/>
	<circle class="st37" cx="727" cy="583.9" r="1.8"/>
	<circle class="st37" cx="86" cy="613.4" r="5"/>
	<circle class="st37" cx="107.7" cy="624.2" r="1.4"/>
	<ellipse class="st37" cx="108.4" cy="600.4" rx="0" ry="0.7"/>
	<ellipse class="st37" cx="150.8" cy="619.4" rx="0" ry="1.1"/>
	<circle class="st37" cx="182.4" cy="583.9" r="1.8"/>
	<circle class="st37" cx="105" cy="605.6" r="2.7"/>
	<circle class="st37" cx="199.3" cy="622.6" r="2.2"/>
	<circle class="st37" cx="236.2" cy="634.9" r="2"/>
	<circle class="st37" cx="290.4" cy="577.2" r="1.5"/>
	<ellipse class="st37" cx="607.9" cy="633.2" rx="0" ry="1.8"/>
	<circle class="st19" cx="149.1" cy="716.7" r="1.5"/>
	<circle class="st19" cx="188.9" cy="711.6" r="1.8"/>
	<circle class="st19" cx="738.9" cy="720.3" r="1.3"/>
	<circle class="st19" cx="243" cy="680" r="1.8"/>
	<circle class="st19" cx="312" cy="702.1" r="1.8"/>
	<circle class="st19" cx="287.2" cy="681.8" r="1.8"/>
	<circle class="st19" cx="278.4" cy="715.4" r="1.8"/>
	<circle class="st19" cx="546.3" cy="696.8" r="1.8"/>
	<circle class="st19" cx="548" cy="722.4" r="1.8"/>
	<circle class="st19" cx="83.7" cy="719.3" r="2.7"/>
	<circle class="st19" cx="251.9" cy="726.5" r="1.8"/>
	<ellipse class="st19" cx="796.4" cy="713.2" rx="1.8" ry="1.9"/>
	<circle class="st19" cx="450.8" cy="737.1" r="1.8"/>
	<circle class="st19" cx="174.1" cy="681.8" r="3.5"/>
	<circle class="st19" cx="863.6" cy="623.4" r="3.5"/>
	<circle class="st19" cx="317.3" cy="728.6" r="3.5"/>
	<circle class="st19" cx="603.7" cy="725" r="2.4"/>
</g>
<g id="fly">
	<g>
		<path class="st7" d="M230.4,259.4c0.9-0.8,1.8-1.4,2.8-1.9c1.1-0.5,2.1-1,3.3-1.3c1.1-0.4,2.3-0.5,3.5-0.5c0.6,0,1.2,0,1.8,0
			c0.6,0,1.1,0.1,1.8,0.3c0.6,0.1,1.1,0.3,1.8,0.4c0.6,0.2,1.1,0.4,1.7,0.6c1.1,0.4,2.2,1,3.2,1.6c0.5,0.3,1,0.6,1.5,1
			c0.5,0.4,1,0.7,1.4,1.1l1.3,1.1l1.3,1.2l-3.8,1.2c0.2-0.7,0.3-1.2,0.5-1.9c0.2-0.6,0.4-1.1,0.6-1.8c0.4-1.1,1-2.3,1.6-3.4
			c1.2-2.1,2.8-4.1,4.8-5.6c0.5-0.4,1-0.7,1.5-1.1c0.5-0.4,1.1-0.6,1.6-0.9c0.5-0.3,1.1-0.5,1.7-0.7c0.5-0.2,1.1-0.4,1.8-0.5
			c0.6-0.1,1.1-0.3,1.8-0.3c0.6-0.1,1.1-0.1,1.8-0.1s1.1,0,1.8,0s1.1,0.1,1.7,0.2c0.2,0,0.3,0.1,0.2,0.2c0,0.1-0.1,0.2-0.3,0.2l0,0
			c-0.5,0-1.1,0.1-1.7,0.2c-0.5,0.1-1.1,0.1-1.7,0.3c-0.5,0.1-1.1,0.2-1.6,0.4c-0.5,0.1-1.1,0.4-1.6,0.5c-0.5,0.2-1,0.4-1.5,0.7
			c-0.4,0.3-1,0.5-1.4,0.8c-0.4,0.4-0.9,0.6-1.2,1c-0.4,0.4-0.8,0.7-1.1,1.1c-1.4,1.5-2.6,3.4-3.3,5.3c-0.4,1-0.7,1.9-1,3
			c-0.1,0.5-0.3,1.1-0.3,1.5c-0.1,0.5-0.2,1.1-0.2,1.4c0,1.1-1.1,2.1-2.2,2c-0.6,0-1.2-0.4-1.6-0.8l-0.1-0.1l-1-1.2l-1.1-1.1
			l-1.1-1.1c-0.4-0.4-0.8-0.7-1.1-1.1c-0.8-0.7-1.7-1.2-2.6-1.8c-0.4-0.3-0.9-0.5-1.3-0.7c-0.4-0.3-1-0.4-1.4-0.6
			c-0.5-0.2-1-0.4-1.5-0.4c-0.5-0.1-1-0.2-1.5-0.3c-1.1-0.1-2.1-0.1-3.2,0c-1.1,0.1-2.1,0.4-3.1,0.7c-1,0.4-2,0.8-2.9,1.4l0,0
			c-0.1,0.1-0.3,0.1-0.4-0.1C230.3,259.6,230.3,259.5,230.4,259.4z"/>
	</g>
	<g>
		<path class="st7" d="M256.4,272.3c1.2-0.5,2.6-0.7,4-0.5c1.3,0.1,2.7,0.5,3.9,1.3c1.2,0.7,2.2,1.7,3.1,2.8
			c0.4,0.5,0.8,1.1,1.2,1.7c0.4,0.6,0.7,1.2,1,1.9l-2.4-0.1c0.3-0.4,0.4-0.6,0.6-1c0.3-0.3,0.4-0.5,0.7-0.8c0.4-0.5,1-1.1,1.6-1.5
			c1.1-0.9,2.4-1.7,3.7-2.1c0.7-0.2,1.4-0.4,2.1-0.4c0.4,0,0.7,0,1.1,0s0.7,0.1,1.1,0.1c0.4,0.1,0.7,0.1,1.1,0.2
			c0.4,0.1,0.6,0.2,1,0.3c0.6,0.3,1.2,0.5,1.9,0.8c0.1,0,0.1,0.1,0.1,0.2c0,0.1-0.1,0.1-0.2,0.1l0,0c-0.6-0.2-1.2-0.4-1.9-0.5
			c-0.4-0.1-0.6-0.1-1-0.2s-0.6,0-1-0.1c-0.4,0-0.6,0-1,0.1c-0.4,0-0.6,0.1-0.9,0.2c-0.6,0.2-1.1,0.4-1.8,0.6
			c-1.1,0.5-2,1.3-2.8,2.2c-0.4,0.4-0.8,1-1.1,1.4c-0.2,0.3-0.4,0.5-0.4,0.8c-0.2,0.3-0.3,0.5-0.4,0.8c-0.3,0.6-1,1-1.7,0.7
			c-0.4-0.2-0.6-0.4-0.7-0.8l0,0c-0.2-0.6-0.4-1.1-0.6-1.7c-0.3-0.5-0.5-1.1-0.8-1.6c-0.6-1.1-1.3-2-2.3-2.7c-0.9-0.8-2-1.3-3.2-1.6
			c-1.2-0.3-2.5-0.4-3.7,0l0,0c-0.1,0-0.2,0-0.2-0.1C256.2,272.4,256.3,272.3,256.4,272.3z"/>
	</g>
</g>
<g id="gras">
	<g>
		<path class="st28" d="M111.4,541.4c0-2.4-0.9-4.7-2.4-6.9c4.1-3.1,6.5-6.9,6.5-10.9c0-10.4-16-19-36.4-19.7
			c-0.9,0-1.9-0.1-2.8-0.1c-21.6,0-39.2,8.8-39.2,19.7c0,2.4,0.9,4.7,2.4,6.9c-4.1,3.1-6.5,6.9-6.5,10.9c0,10.9,17.5,19.7,39.2,19.7
			S111.4,552.3,111.4,541.4z"/>
		<g>
			<path class="st28" d="M885.1,560.8c-17.5-0.1-31.6-9.5-31.6-21.2c0-3.3,1.2-6.5,3.3-9.3c-1-2-1.5-4.2-1.5-6.5
				c0-11.1,12.9-20.2,29.3-21.1c0.4,0,0.8,0,1.2,0c-2.1-5.9-7.4-10.1-13.6-10.1c-4.1,0-7.7,1.8-10.3,4.6c-5.2-9.8-15-16.4-26.3-16.4
				c-13.9,0-25.7,10.2-29.2,24c-3.1-1.6-6.6-2.5-10.3-2.5c-2.2,0-4.2,0.3-6.2,0.8c-4.4-6.4-11.3-10.5-19-10.5
				c-4.3,0-8.3,1.3-11.8,3.5c-4.5-9.1-13.2-15.2-23.3-15.2c-9.8,0-18.4,5.9-22.9,14.5c-3.1-1.8-6.6-2.7-10.4-2.7
				c-4.9,0-9.4,1.7-13.1,4.5c-5.1-9.7-15.9-16.4-28.5-16.4c-5.8,0-11.2,1.5-15.9,3.9c-3.1-4.5-10.8-7.7-19.8-7.7
				c-4.2,0-8.2,0.7-11.5,1.9c-5.3-9.1-16.3-15.3-28.9-15.3c-10.9,0-20.4,4.6-26.3,11.7c-1.4-0.5-3.1-0.8-4.7-0.8
				c-6.9,0-12.5,4.9-13.6,11.2c-2,0.4-4,1.1-5.9,2c-5.8-7.4-15.9-12.3-27.2-12.3c-8.9,0-17,2.9-22.9,7.8c-4.3-2.8-10.2-4.6-16.5-4.6
				c-7,0-13.3,2.1-17.7,5.5c-6.4-5.4-15.1-8.7-24.7-8.7c-14.3,0-26.8,7.4-32.6,18.1c-4.1-1.4-8.6-2.1-13.4-2.1c-1.1,0-2.3,0-3.4,0.1
				c-2.9-3.9-7.7-6.5-13.2-6.5c-4,0-7.6,1.4-10.4,3.6c-7.1-4.9-16.4-7.9-26.5-7.9c-15.3,0-28.6,6.7-35.5,16.6
				c-3.7-3-8.7-4.8-14.2-4.8c-5.6,0-10.6,1.9-14.4,4.9c-4.2-3.2-9.6-4.9-15.4-4.9c-3,0-5.8,0.5-8.4,1.4c-5.9-5.5-14.6-8.8-24.2-8.8
				c-4.9,0-9.5,0.8-13.7,2.5c-2-1.6-4.3-2.5-7-2.5c-3.6,0-7,1.9-9.2,4.7c-4.9-2.9-10.9-4.7-17.3-4.7c-9.7,0-18.2,4-23.8,10.1
				c-4.6-2.4-10-3.8-15.9-3.8c-9.2,0-17.5,3.5-22.8,8.9c-1.4-0.2-3.1-0.3-4.7-0.3c-6.8,0-14.3,1.5-20.1,4.2
				c20.3,0.7,36.4,9.3,36.4,19.7c0,4-2.4,7.8-6.5,10.9c1.6,2.1,2.4,4.4,2.4,6.9c0,10.9-17.5,19.7-39.2,19.7v0.1h814v-0.4
				c-0.1,0-0.1,0-0.2,0c-0.2,0-0.4,0-0.6,0C885.3,560.8,885.2,560.8,885.1,560.8z"/>
			<path class="st28" d="M919.1,523.9c0-11.7-14.3-21.2-32-21.2c-0.5,0-1,0-1.5,0c-0.4,0-0.8,0-1.2,0c-16.4,0.9-29.3,10-29.3,21.1
				c0,2.3,0.5,4.4,1.5,6.5c-2.1,2.8-3.3,6-3.3,9.3c0,11.6,15.3,21.4,32.8,21.6c0.1,0-0.1,0,0,0c0.2,0,1.3,0,1.7,0
				c17.7-1.3,29.4-10,29.4-21.6c0-2.3-0.5-4.4-1.5-6.5C917.9,530.4,919.1,527.2,919.1,523.9z"/>
		</g>
	</g>
	<g>
		<path class="st31" d="M835.6,537.3c-4-4.1,3.3-18.4-6.3-18.4c-1.4,0-2.8,0.1-4.2,0.2c-5.1-3.8-12.9-6.3-21.6-6.3
			c-5.5,0-10.7,0.9-15,2.6c-5.3-4.3-13.4-7.1-22.6-7.1c-6.1,0-11.7,1.2-16.4,3.3c-2.1-2-5.2-3.3-8.7-3.3c-2.5,0-4.7,0.6-6.6,1.7
			c-3.9-1.1-8.3-1.7-12.9-1.7c-9.1,0-17.3,2.4-22.9,6.2c-2.5-0.6-5.1-0.9-8-0.9c-5.5,0-10.6,1.3-14.6,3.5c-3.6-2.1-8.4-3.5-13.7-3.5
			c-5.2,0-10,1.3-13.5,3.4c-6.6-7-19.2-11.7-33.7-11.7c-9.6,0-18.4,2-25.2,5.5c-2.7-1.6-6.1-2.5-9.9-2.5c-5.1,0-9.7,1.8-12.5,4.5
			c-1-0.1-2.2-0.1-3.2-0.1c-4.5,0-8.8,0.5-12.7,1.4c-5.5-7.4-17.2-12.6-30.8-12.6c-9.1,0-17.3,2.4-23.4,6.1
			c-4.2-2.4-10.1-3.8-16.8-3.8c-6,0-11.6,1.2-15.7,3.2c-5.5-3.4-13.3-5.5-21.7-5.5c-10.8,0-20.3,3.4-25.8,8.5
			c-1.8-0.6-3.6-1-5.5-1.4c-1-4.5-6.3-7.9-12.9-7.9c-1.5,0-3.1,0.3-4.4,0.6c-5.5-4.9-14.6-8.1-24.9-8.1c-12,0-22.3,4.4-27.4,10.7
			c-3.1-0.8-6.9-1.4-10.9-1.4c-8.5,0-15.8,2.2-18.7,5.3c-4.4-1.7-9.6-2.7-15-2.7c-11.8,0-22.1,4.7-26.9,11.4
			c-3.5-2-7.7-3.2-12.4-3.2c-3.6,0-7,0.8-9.9,1.9c-4.3-6.1-12.4-10.2-21.7-10.2c-9.6,0-17.8,4.3-22.1,10.7
			c-3.3-1.6-7.1-2.5-11.2-2.5c-7.3,0-13.8,2.9-18,7.4c-1.8-0.4-3.8-0.6-5.9-0.6c-3.5,0-6.9,0.7-9.8,1.8
			c-3.3-9.6-14.5-16.8-27.6-16.8c-10.7,0-20,4.7-24.9,11.5c-2.5-2-5.9-3.3-9.8-3.3c-6.4,0-11.8,3.5-13.3,8.1
			c10.6,0.5,19,7.7,19,16.6c0,3.4-1.2,6.5-3.3,9.2c0.3,0.8,0.5,1.5,0.5,2.4c0,5.3-7.3,9.8-17.2,11.1v0.8h733.4v-2.2h13.8h10.4h0
			c0,0,0,0,0,0c-1.8-0.8-3.4-1.9-4.6-3.1c-6.5-2-11.2-8-11.2-15.2c0-8.8,7.1-15.8,15.8-15.8c2.5,0,4.8,0.6,6.9,1.6"/>
		<path class="st31" d="M856.5,539.4c-0.6-5.5-1.2-9.2-6-11.6c-2.1-1-7.2-2.6-9.7-2.6c-8.8,0-15.8,7.1-15.8,15.8
			c0,7.2,4.7,13.2,11.2,15.2c1.2,1.2,2.8,2.3,4.6,3.1c0,0,0,0,0,0h0h-10.4h-13.8v2.2h13.8h10.4h9.3c9.2,0,16.6-5.4,16.6-11.7
			C866.7,545.2,862.5,541.1,856.5,539.4z"/>
		<path class="st31" d="M100.2,549.6c0-0.8-0.2-1.6-0.5-2.4c2.1-2.6,3.3-5.8,3.3-9.2c0-8.9-8.4-16.1-19-16.6c-0.3,0-0.7,0-1,0
			c-11,0-20,7.4-20,16.6c0,0.7,0.1,1.5,0.2,2.2c-5.9,2.1-9.7,5.5-9.7,9.4c0,6.4,10.5,11.5,23.4,11.5c2.1,0,4.2-0.1,6.2-0.4
			C92.9,559.4,100.2,554.9,100.2,549.6z"/>
	</g>
</g>
<g id="ground">
	<rect id="lift_2_" x="386.1" y="562" class="st13" width="34.4" height="485.6"/>
	<rect id="lift2" x="867.9" y="997.3" class="st13" width="34.4" height="373.1"/>
	<g id="floor6">
		<rect id="floor_5_" x="53.8" y="1327.7" class="st13" width="848.2" height="42.7"/>
		<path id="room3_5_" class="st39" d="M807,1370.4H684.2v-59.6c0-2.4,1.9-4.2,4.2-4.2h114.2c2.4,0,4.2,1.9,4.2,4.2L807,1370.4
			L807,1370.4z"/>
		<path id="room2_5_" class="st39" d="M661.4,1370.4H370.6v-59.6c0-2.4,1.9-4.2,4.2-4.2H657c2.4,0,4.2,1.9,4.2,4.2L661.4,1370.4
			L661.4,1370.4z"/>
		<path id="room1_5_" class="st39" d="M355,1370.4H64.2v-59.6c0-2.4,1.9-4.2,4.2-4.2h282.2c2.4,0,4.2,1.9,4.2,4.2L355,1370.4
			L355,1370.4z"/>
	</g>
	<g id="floor5">
		<rect id="floor_4_" x="53.8" y="1208.2" class="st13" width="848.2" height="42.7"/>
		<path id="room7_2_" class="st39" d="M843.2,1250.9h-41.5v-59.6c0-2.4,1.9-4.2,4.2-4.2h33c2.4,0,4.2,1.9,4.2,4.2L843.2,1250.9
			L843.2,1250.9z"/>
		<path id="room6_3_" class="st39" d="M741.7,1250.9h-96v-59.6c0-2.4,1.9-4.2,4.2-4.2h87.4c2.4,0,4.2,1.9,4.2,4.2L741.7,1250.9
			L741.7,1250.9z"/>
		<path id="room5_3_" class="st39" d="M618.7,1250.9h-96v-59.6c0-2.4,1.9-4.2,4.2-4.2h87.4c2.4,0,4.2,1.9,4.2,4.2L618.7,1250.9
			L618.7,1250.9z"/>
		<path id="room4_4_" class="st39" d="M504.7,1250.9h-96v-59.6c0-2.4,1.9-4.2,4.2-4.2h87.5c2.4,0,4.2,1.9,4.2,4.2V1250.9z"/>
		<path id="room3_4_" class="st39" d="M376.5,1250.9h-96v-59.6c0-2.4,1.9-4.2,4.2-4.2h87.5c2.4,0,4.2,1.9,4.2,4.2V1250.9z"/>
		<path id="room2_4_" class="st39" d="M269.9,1250.9h-96v-59.6c0-2.4,1.9-4.2,4.2-4.2h87.4c2.4,0,4.2,1.9,4.2,4.2L269.9,1250.9
			L269.9,1250.9z"/>
		<path id="room1_4_" class="st39" d="M156.8,1250.9h-96v-59.6c0-2.4,1.9-4.2,4.2-4.2h87.4c2.4,0,4.2,1.9,4.2,4.2L156.8,1250.9
			L156.8,1250.9z"/>
	</g>
	<g id="floor4">
		<rect id="floor_3_" x="53.9" y="1102.6" class="st13" width="848.2" height="42.7"/>
		<path id="room7_1_" class="st39" d="M815.5,1145.4h-41.5v-59.6c0-2.4,1.9-4.2,4.2-4.2h33c2.4,0,4.2,1.9,4.2,4.2L815.5,1145.4
			L815.5,1145.4z"/>
		<path id="room6_2_" class="st39" d="M719.3,1145.4h-96v-59.6c0-2.4,1.9-4.2,4.2-4.2h87.4c2.4,0,4.2,1.9,4.2,4.2L719.3,1145.4
			L719.3,1145.4z"/>
		<path id="room5_2_" class="st39" d="M606.6,1145.4h-96v-59.6c0-2.4,1.9-4.2,4.2-4.2h87.4c2.4,0,4.2,1.9,4.2,4.2L606.6,1145.4
			L606.6,1145.4z"/>
		<path id="room4_3_" class="st39" d="M495.5,1145.4h-96v-59.6c0-2.4,1.9-4.2,4.2-4.2h87.4c2.4,0,4.2,1.9,4.2,4.2L495.5,1145.4
			L495.5,1145.4z"/>
		<path id="room3_3_" class="st39" d="M383,1145.4h-96.1v-59.6c0-2.4,1.9-4.2,4.2-4.2h87.4c2.4,0,4.2,1.9,4.2,4.2v59.6H383z"/>
		<path id="room2_3_" class="st39" d="M269.9,1145.4h-96v-59.6c0-2.4,1.9-4.2,4.2-4.2h87.4c2.4,0,4.2,1.9,4.2,4.2L269.9,1145.4
			L269.9,1145.4z"/>
		<path id="room1_3_" class="st39" d="M157.4,1145.4h-96v-59.6c0-2.4,1.9-4.2,4.2-4.2H153c2.4,0,4.2,1.9,4.2,4.2L157.4,1145.4
			L157.4,1145.4z"/>
	</g>
	<g id="floor3">
		<rect id="floor_2_" x="53.8" y="1005.4" class="st13" width="848.2" height="42.7"/>
		<path id="room3_2_" class="st39" d="M599.8,1048.2h-41.5v-59.6c0-2.4,1.9-4.2,4.2-4.2h33c2.4,0,4.2,1.9,4.2,4.2L599.8,1048.2
			L599.8,1048.2z"/>
		<path id="room2_2_" class="st39" d="M538.5,1048.2h-97.2v-59.6c0-2.4,1.9-4.2,4.2-4.2h88.6c2.4,0,4.2,1.9,4.2,4.2L538.5,1048.2
			L538.5,1048.2z"/>
		<path id="room4_2_" class="st39" d="M860.3,1048.2h-89.4v-59.6c0-2.4,1.9-4.2,4.2-4.2h80.8c2.4,0,4.2,1.9,4.2,4.2L860.3,1048.2
			L860.3,1048.2z"/>
		<path id="room1_2_" class="st39" d="M367.3,1048.2H76.6v-59.6c0-2.4,1.9-4.2,4.2-4.2H363c2.4,0,4.2,1.9,4.2,4.2L367.3,1048.2
			L367.3,1048.2z"/>
	</g>
	<g id="floor2">
		<rect id="floor_1_" x="53.8" y="899.4" class="st13" width="848.2" height="42.7"/>
		<path id="room9" class="st39" d="M817.1,942.1h-41.5v-59.6c0-2.4,1.9-4.2,4.2-4.2h33c2.4,0,4.2,1.9,4.2,4.2L817.1,942.1
			L817.1,942.1z"/>
		<path id="room8" class="st39" d="M753.8,942.1h-81.1v-59.6c0-2.4,1.9-4.2,4.2-4.2h72.5c2.4,0,4.2,1.9,4.2,4.2L753.8,942.1
			L753.8,942.1z"/>
		<path id="room7" class="st39" d="M656.5,942.1H615v-59.6c0-2.4,1.9-4.2,4.2-4.2h33c2.4,0,4.2,1.9,4.2,4.2V942.1L656.5,942.1z"/>
		<path id="room6_1_" class="st39" d="M598.1,942.1h-41.5v-59.6c0-2.4,1.9-4.2,4.2-4.2h33c2.4,0,4.2,1.9,4.2,4.2L598.1,942.1
			L598.1,942.1z"/>
		<path id="room5_1_" class="st39" d="M536.7,942.1h-41.5v-59.6c0-2.4,1.9-4.2,4.2-4.2h33c2.4,0,4.2,1.9,4.2,4.2V942.1z"/>
		<path id="room4_1_" class="st39" d="M481.1,942.1h-41.5v-59.6c0-2.4,1.9-4.2,4.2-4.2h33c2.4,0,4.2,1.9,4.2,4.2L481.1,942.1
			L481.1,942.1z"/>
		<path id="room3_1_" class="st39" d="M365.6,942.1h-89.4v-59.6c0-2.4,1.9-4.2,4.2-4.2h80.8c2.4,0,4.2,1.9,4.2,4.2L365.6,942.1
			L365.6,942.1z"/>
		<path id="room2_1_" class="st39" d="M263.5,942.1h-89.5v-59.6c0-2.4,1.9-4.2,4.2-4.2h80.8c2.4,0,4.2,1.9,4.2,4.2v59.6H263.5z"/>
		<path id="room1_1_" class="st39" d="M164.2,942.1H74.8v-59.6c0-2.4,1.9-4.2,4.2-4.2h80.8c2.4,0,4.2,1.9,4.2,4.2L164.2,942.1
			L164.2,942.1z"/>
	</g>
	<g id="floor1">
		<rect id="floor" x="53.8" y="792.2" class="st13" width="848.2" height="42.7"/>
		<path id="room6" class="st39" d="M859.9,835.1h-33.4v-59.6c0-2.4,1.9-4.2,4.2-4.2h24.8c2.4,0,4.2,1.9,4.2,4.2L859.9,835.1
			L859.9,835.1z"/>
		<path id="room5" class="st39" d="M809.9,835.1h-33.4v-59.6c0-2.4,1.9-4.2,4.2-4.2h24.8c2.4,0,4.2,1.9,4.2,4.2L809.9,835.1
			L809.9,835.1z"/>
		<path id="room4" class="st39" d="M758.8,835.1H609.6v-59.6c0-2.4,1.9-4.2,4.2-4.2h140.6c2.4,0,4.2,1.9,4.2,4.2L758.8,835.1
			L758.8,835.1z"/>
		<path id="room3" class="st39" d="M593.7,835.1H450.8v-59.6c0-2.4,1.9-4.2,4.2-4.2h134.4c2.4,0,4.2,1.9,4.2,4.2L593.7,835.1
			L593.7,835.1z"/>
		<path id="room2" class="st39" d="M355,835.1h-89.4v-59.6c0-2.4,1.9-4.2,4.2-4.2h80.8c2.4,0,4.2,1.9,4.2,4.2L355,835.1L355,835.1z"
			/>
		<path id="room1" class="st39" d="M198.1,835.1h-89.4v-59.6c0-2.4,1.9-4.2,4.2-4.2h80.8c2.4,0,4.2,1.9,4.2,4.2L198.1,835.1
			L198.1,835.1z"/>
	</g>
	<g id="door5">
		<path class="st40" d="M885.9,1249.1h-0.5h-11c-0.8,0-1.4-0.6-1.4-1.4v-39.8c0-0.8,0.6-1.4,1.4-1.4h23c0.8,0,1.4,0.6,1.4,1.4v39.8
			c0,0.8-0.6,1.4-1.4,1.4h-10.8H885.9L885.9,1249.1z"/>
		<rect x="886.2" y="1206.6" class="st4" width="0.2" height="42.5"/>
		<text transform="matrix(1 0 0 1 884.498 1203.7393)" class="st4 st41 st42">-5</text>
		<path class="st43" d="M889.1,1204.3h-5.8c-0.8,0-1.4-0.6-1.4-1.4v-0.8c0-0.8,0.6-1.4,1.4-1.4h5.8c0.8,0,1.4,0.6,1.4,1.4v0.8
			C890.5,1203.7,889.9,1204.3,889.1,1204.3z"/>
	</g>
	<g id="door6">
		<path class="st40" d="M885.9,1369.4h-0.5h-11c-0.8,0-1.4-0.6-1.4-1.4v-39.8c0-0.8,0.6-1.4,1.4-1.4h23c0.8,0,1.4,0.6,1.4,1.4v39.8
			c0,0.8-0.6,1.4-1.4,1.4h-10.8H885.9L885.9,1369.4z"/>
		<rect x="886.2" y="1326.8" class="st4" width="0.2" height="42.5"/>
		<text transform="matrix(1 0 0 1 884.498 1323.9658)" class="st4 st41 st42">-6</text>
		<path class="st43" d="M889.1,1324.5h-5.8c-0.8,0-1.4-0.6-1.4-1.4v-0.8c0-0.8,0.6-1.4,1.4-1.4h5.8c0.8,0,1.4,0.6,1.4,1.4v0.8
			C890.5,1323.9,889.9,1324.5,889.1,1324.5z"/>
	</g>
	<g id="door4">
		<path class="st40" d="M885.9,1143.9h-0.5h-11c-0.8,0-1.4-0.6-1.4-1.4v-39.8c0-0.8,0.6-1.4,1.4-1.4h23c0.8,0,1.4,0.6,1.4,1.4v39.8
			c0,0.8-0.6,1.4-1.4,1.4h-10.8H885.9L885.9,1143.9z"/>
		<rect x="886.2" y="1101.4" class="st4" width="0.2" height="42.5"/>
		<text transform="matrix(1 0 0 1 884.498 1098.542)" class="st4 st41 st42">-4</text>
		<path class="st43" d="M889.1,1099.1h-5.8c-0.8,0-1.4-0.6-1.4-1.4v-0.8c0-0.8,0.6-1.4,1.4-1.4h5.8c0.8,0,1.4,0.6,1.4,1.4v0.8
			C890.5,1098.5,889.9,1099.1,889.1,1099.1z"/>
	</g>
	<g id="door3b">
		<path class="st40" d="M885.9,1047.6h-0.5h-11c-0.8,0-1.4-0.6-1.4-1.4v-39.8c0-0.8,0.6-1.4,1.4-1.4h23c0.8,0,1.4,0.6,1.4,1.4v39.8
			c0,0.8-0.6,1.4-1.4,1.4h-10.8H885.9L885.9,1047.6z"/>
		<rect x="886.2" y="1005.1" class="st4" width="0.2" height="42.5"/>
		<text transform="matrix(1 0 0 1 884.498 1002.1836)" class="st4 st41 st42">-3</text>
		<path class="st43" d="M889.1,1002.8h-5.8c-0.8,0-1.4-0.6-1.4-1.4v-0.8c0-0.8,0.6-1.4,1.4-1.4h5.8c0.8,0,1.4,0.6,1.4,1.4v0.8
			C890.5,1002.1,889.9,1002.8,889.1,1002.8z"/>
	</g>
	<g id="door3a">
		<path class="st40" d="M403.2,1047.6h-0.5h-11c-0.8,0-1.4-0.6-1.4-1.4v-39.8c0-0.8,0.6-1.4,1.4-1.4h23c0.8,0,1.4,0.6,1.4,1.4v39.8
			c0,0.8-0.6,1.4-1.4,1.4h-10.8H403.2L403.2,1047.6z"/>
		<rect x="403.5" y="1005.1" class="st4" width="0.2" height="42.5"/>
		<text transform="matrix(1 0 0 1 401.8257 1002.1836)" class="st4 st41 st42">-3</text>
		<path class="st43" d="M406.4,1002.8h-5.8c-0.8,0-1.4-0.6-1.4-1.4v-0.8c0-0.8,0.6-1.4,1.4-1.4h5.8c0.8,0,1.4,0.6,1.4,1.4v0.8
			C407.8,1002.1,407.2,1002.8,406.4,1002.8z"/>
	</g>
	<g id="door2">
		<path class="st40" d="M403.2,941.5h-0.5h-11c-0.8,0-1.4-0.6-1.4-1.4v-39.8c0-0.8,0.6-1.4,1.4-1.4h23c0.8,0,1.4,0.6,1.4,1.4v39.8
			c0,0.8-0.6,1.4-1.4,1.4h-10.8H403.2L403.2,941.5z"/>
		<rect x="403.5" y="899" class="st4" width="0.2" height="42.5"/>
		<text transform="matrix(1 0 0 1 401.8257 896.1025)" class="st4 st41 st42">-2</text>
		<path class="st43" d="M406.4,896.7h-5.8c-0.8,0-1.4-0.6-1.4-1.4v-0.8c0-0.8,0.6-1.4,1.4-1.4h5.8c0.8,0,1.4,0.6,1.4,1.4v0.8
			C407.8,896.1,407.2,896.7,406.4,896.7z"/>
	</g>
	<g id="door1">
		<path class="st40" d="M403.2,835.4h-0.5h-11c-0.8,0-1.4-0.6-1.4-1.4v-39.8c0-0.8,0.6-1.4,1.4-1.4h23c0.8,0,1.4,0.6,1.4,1.4V834
			c0,0.8-0.6,1.4-1.4,1.4h-10.8H403.2L403.2,835.4z"/>
		<rect x="403.5" y="792.9" class="st4" width="0.2" height="42.5"/>
		<text transform="matrix(1 0 0 1 401.8257 790.0205)" class="st4 st41 st42">-1</text>
		<path class="st43" d="M406.4,790.6h-5.8c-0.8,0-1.4-0.6-1.4-1.4v-0.8c0-0.8,0.6-1.4,1.4-1.4h5.8c0.8,0,1.4,0.6,1.4,1.4v0.8
			C407.8,790,407.2,790.6,406.4,790.6z"/>
	</g>
</g>
</svg>
