<?xml version="1.0" encoding="utf-8"?>
<!-- Generator: Adobe Illustrator 20.1.0, SVG Export Plug-In . SVG Version: 6.00 Build 0)  -->
<svg version="1.1" id="Layer_1" xmlns="http://www.w3.org/2000/svg" xmlns:xlink="http://www.w3.org/1999/xlink" x="0px" y="0px"
	 viewBox="0 0 960 1480.9" style="enable-background:new 0 0 960 1480.9;" xml:space="preserve">
<style type="text/css">
	.st0{fill:#9CE0FF;}
	.st1{opacity:0.8;fill:#FFFFFF;enable-background:new    ;}
	.st2{fill:#334D4D;}
	.st3{fill:#E6E6E6;}
	.st4{fill:#FFFFFF;}
	.st5{fill:#2B474D;}
	.st6{fill:none;}
	.st7{fill:#2C394D;}
	.st8{fill:#33434D;}
	.st9{opacity:0.9;fill:#FFFFFF;enable-background:new    ;}
	.st10{opacity:0.6;fill:#FFFFFF;enable-background:new    ;}
	.st11{fill:#FFFF7F;}
	.st12{fill:#E5E5E5;}
	.st13{fill:#CCCCCC;}
	.st14{fill:#A67C52;}
	.st15{fill:#9A7C52;}
	.st16{fill:#754C24;}
	.st17{fill:#71491A;}
	.st18{fill:#603813;}
	.st19{fill:#A66B45;}
	.st20{fill:#B58A64;}
	.st21{fill:#E29A8E;}
	.st22{clip-path:url(#SVGID_2_);}
	.st23{fill:#E2878E;}
	.st24{clip-path:url(#SVGID_5_);}
	.st25{fill:#C39F52;}
	.st26{fill:#8B6124;}
	.st27{fill:#FBB03B;}
	.st28{fill:#39B54A;}
	.st29{clip-path:url(#SVGID_7_);}
	.st30{clip-path:url(#SVGID_9_);}
	.st31{fill:#009245;}
	.st32{clip-path:url(#SVGID_11_);}
	.st33{clip-path:url(#SVGID_13_);}
	.st34{fill:#6A452E;}
	.st35{fill:#42210B;}
	.st36{fill:#FF9BAC;}
	.st37{fill:#753424;}
	.st38{fill:none;stroke:#2C394D;stroke-miterlimit:10;}
	.st39{opacity:0.48;fill:#936944;}
	.st40{fill:#936944;}
	.st41{fill:#724B2E;}
	.st42{fill:#56341D;}
	.st43{fill:#E0B9A0;}
	.st44{fill:#683E21;}
	.st45{fill:#DBDBDB;}
	.st46{fill:#F2F2F2;}
	.st47{fill:none;stroke:#FFFFFF;stroke-miterlimit:10;}
	.st48{fill:#565656;}
	.st49{font-family:'MyriadPro-Regular';}
	.st50{font-size:2px;}
	.st51{fill:#B2B2B2;}
	.st52{fill:#FFCF00;}
	.st53{fill:#FF9300;}
	.st54{fill:#FF4F19;}
	.st55{fill:#00BBBB;}
	.st56{fill:#52798F;}
	.st57{fill:#5C546A;}
	.st58{fill:#00E389;}
	.st59{fill:#324D5B;}
	.st60{fill:#4C96E0;}
	.st61{fill:#2D4552;}
	.st62{fill:#E4E7E7;}
	.st63{fill:#D8DBDB;}
	.st64{fill:#3DB39E;}
	.st65{fill:#3AAA96;}
	.st66{fill:#2F4956;}
	.st67{fill:#E2574C;}
	.st68{fill:#010002;}
	.st69{filter:url(#Adobe_OpacityMaskFilter);}
	.st70{mask:url(#room7hide_1_);fill:#724B2E;}
	.st71{filter:url(#Adobe_OpacityMaskFilter_1_);}
	.st72{mask:url(#room6hide_1_);fill:#724B2E;}
	.st73{filter:url(#Adobe_OpacityMaskFilter_2_);}
	.st74{mask:url(#room5hide_1_);fill:#724B2E;}
	.st75{filter:url(#Adobe_OpacityMaskFilter_3_);}
	.st76{mask:url(#room4hide_1_);fill:#724B2E;}
	.st77{filter:url(#Adobe_OpacityMaskFilter_4_);}
	.st78{mask:url(#room3hide_1_);fill:#724B2E;}
	.st79{filter:url(#Adobe_OpacityMaskFilter_5_);}
	.st80{mask:url(#room2hide_1_);fill:#724B2E;}
	.st81{filter:url(#Adobe_OpacityMaskFilter_6_);}
	.st82{mask:url(#room1hide_1_);fill:#724B2E;}
	.st83{filter:url(#Adobe_OpacityMaskFilter_7_);}
	.st84{fill:#442615;}
	.st85{fill:#512710;}
	.st86{mask:url(#lift1hide_1_);fill:#FFFFFF;}
	.st87{filter:url(#Adobe_OpacityMaskFilter_8_);}
	.st88{mask:url(#lift2hide_1_);fill:#FFFFFF;}
	.st89{fill:#33302E;}
</style>
<rect id="background" x="53.6" y="85.9" class="st0" width="848.7" height="707.2"/>
<path id="cloud6" class="st1" d="M481.7,225.3h156c-3.1-14.4-15.9-25.3-31.2-25.3c-5.4,0-10.4,1.4-14.9,3.6
	c-5-12.3-16.9-20.9-30.9-20.9c-18.4,0-33.4,15-33.4,33.4c0,0.4,0,0.9,0,1.3c-4.1-0.8-8.5-1.3-12.9-1.3
	C501.6,216.3,490.1,219.6,481.7,225.3z"/>
<g id="mountains">
	<g>
		<path class="st2" d="M688.9,267.7l-27.8,14c0,0-19.5,27.7-20.4,28c-0.9,0.4-33.2,23.7-33.2,23.7l-38.9,49.6l23.6,96l63-8.3
			L688.9,267.7z"/>
		<polygon class="st3" points="705.4,350.6 722.4,321 743.9,341.6 753.1,335.6 705.5,232.3 705.1,232.9 705.1,350.2 		"/>
		<polygon class="st4" points="705.1,350.2 705.1,232.9 664.6,321.2 682.6,311.9 		"/>
		<polygon class="st5" points="861.6,571.7 753.1,335.5 744,341.4 722.5,321 705.4,350.6 705.1,350.2 705.1,571.7 705.6,571.7 		"/>
		<polygon class="st2" points="682.7,311.9 664.7,321 549.4,571.7 705.1,571.7 705.1,350.2 		"/>
		<polygon class="st4" points="664.6,321.2 640.7,309.7 661.1,281.6 688.9,267.7 696.3,280.2 		"/>
		<path class="st5" d="M704.8,350.2L692,398.6l-11.7,11.7c0,0-13.8,32.1-11.7,36.2c2.1,4.2,11.7,32.4,11.7,32.4l24.6,32.3
			c0,0,56.8-53.2,57.6-51C763.3,462.3,704.8,350.2,704.8,350.2z"/>
		<polygon class="st3" points="704.7,252.9 699.2,276.8 696.3,294.4 700.6,304.3 700.6,326.1 704.9,350.2 715.4,304.3 		"/>
		<path class="st5" d="M756.8,343.7l20.3,25l18.4,16.4l32.2,17.5l20.6,59c0,0,17.6,31.3,18.4,33.5c0.7,2.2-41.1,26.2-41.1,26.2
			L762.4,460L756.8,343.7z"/>
	</g>
	<g>
		<path class="st2" d="M193,307.2l-14.7,35.6l-27.2,31l-14.9,31.7l-14.4,47.9l-27.7,52.9v54.7h31.1l90-39.9
			c0,0,17.5-130.8,18.7-132.8c1.1-1.9,22.9-110.5,22.9-110.5l-29.6-2.5L193,307.2z"/>
		<polygon class="st5" points="330.9,289.6 349.9,331.6 370.6,355.5 370.9,414 354.2,446.5 302.9,295.5 		"/>
		<path class="st6" d="M274.6,323.3c0.2,0,0.4,0,0.4-0.1v-0.2C274.9,323.3,274.7,323.3,274.6,323.3z"/>
		<path class="st6" d="M274.8,323c0,0,0.6,0.1-0.3,0.1v0.2c0.9-0.1,0.4-0.1,0.4-0.2c2.2-3.8,16.4-30.9,16.9-31.8l-0.1-0.1
			C291.8,291.2,277.1,319.2,274.8,323z"/>
		<path class="st4" d="M247.1,291.4v21.3l9.7-14.1c0,0,13.8,24.3,17.5,24.6c0.2,0,0.2-0.1,0.2-0.3V180.7l-42.2,107.2h-0.3v0.3
			L247.1,291.4z"/>
		<path class="st3" d="M274.8,323c2.2-3.8,17-31.9,17-31.9l0.1,0.1l0.1-0.1l19,21.7c0.3-0.5,4.4-8.7,9.6-17.4L275,180l-0.5,0.7
			v142.3C275.4,323.1,274.8,323.1,274.8,323z"/>
		<path class="st5" d="M425.2,561.1L320.7,295.4c-5.4,9-9.6,17.4-9.6,17.4l0,0l0,0l-19-21.7c-0.5,1-14.9,28.1-17.1,31.8
			c-0.1,0.1,0.4,0.2-0.4,0.2V561h0.7L425.2,561.1L425.2,561.1z"/>
		<path class="st2" d="M274.4,323.3c-3.5,0.4-17.6-24.6-17.6-24.6l-9.6,14.1v-21.4l-14.7-3.2L125.2,561.1h149.3V323.3
			C274.6,323.3,274.6,323.3,274.4,323.3z"/>
		<path class="st2" d="M256.8,298.8c0,0,14.2,24.9,17.8,24.6C270.8,323.1,256.8,298.8,256.8,298.8z"/>
		<polygon class="st2" points="232.1,288.3 232.1,288.3 246.7,291.4 		"/>
		<path class="st2" d="M292.1,291.2l19,21.7l0,0L292.1,291.2L292.1,291.2z"/>
		<path class="st3" d="M275,180.1c0,0,28.4,47.1,29.8,49.2c1.4,2.1,15.8,26.1,15.8,26.1l10.3,34.2l-10.2,5.9l-13.1-7.2L275,180.1z"
			/>
		<path class="st5" d="M274.8,323.4l-11.8,40.8v24.4c0,0,1,33.9-0.1,36c-1.1,2-13.8,32.4-15.9,35.2c-2.1,2.8-9.1,24.7-7,26.8
			c2,2.1-0.6,40.8,0,45.4c0.6,4.6-7.6,29-7.6,29h59l19.6-56l-34.5-181.9"/>
		<path class="st3" d="M274.5,182.7l-2.7,42.6c0,0-7.1,18-6,20.9c1.1,2.8,4.3,15.6,4.3,15.6l4.4,33.7l12.7-28.9L274.5,182.7z"/>
		<path class="st4" d="M275,180.1c0,0-0.4,0.6-1.2,1.7c-4.5,6.1-19.8,26.8-20.4,29.2c-0.7,2.7-11.8,22.3-13.6,23.8
			c-1.9,1.5-7.5,22-7.5,22l-39.3,50.4l28.1-17.7l2.8,5.9l8.8-7.2l14.6-12.8l9.8-31.8l8.8-32.6L275,180.1z"/>
	</g>
	<g>
		<path class="st7" d="M549.4,251.6l36.8,61.3l18.3,41.9c0,0,22.4,26.4,25.9,28.6c3.5,2.1,37.6,32.1,38.3,34.2
			c0.7,2.1,5.8,8.3,6.5,12.6c0.7,4.3,23.7,69.2,23.7,72c0,2.8,0,56.8,0,56.8l-61.7,2.1L502.4,382.3l9.5-166.5L549.4,251.6z"/>
		<polygon class="st3" points="494.8,242.8 509.3,233.3 523.6,273 537.6,247 486.8,87.3 485.8,89.2 485.8,234.9 		"/>
		<polygon class="st4" points="475.8,225.3 485.8,234.9 485.8,89.2 441.6,229.8 463,261.8 		"/>
		<polygon class="st8" points="475.8,225.3 463.2,261.8 441.9,229.8 337.1,561.1 485.8,561.1 485.8,234.9 		"/>
		<polygon class="st7" points="637.1,561.1 537.7,247 523.7,273 509.4,233.3 494.8,242.8 485.8,234.9 485.8,561.1 487.2,561.1 		"/>
		<path class="st8" d="M442,229.8c0,0-44.6,68.6-45.7,69c-1.1,0.4-6.8,22.3-6.8,24.3c0,2.1-39.9,44.1-39.6,45.6
			c0.3,1.5-48.3,39-52.2,41.1c-4.1,2.1-22.5,64.2-22.5,64.2l-21.7,50.7l83.8,36.3l38.2-20.1L442,229.8z"/>
		<path class="st4" d="M486.2,89.2L453.7,158c0,0-14.8,36.4-14.8,36.5c0,0.1-15.1,48.8-15.1,48.8l-14.9,37.4l33.2-50.9l18-7.6
			L486.2,89.2z"/>
		<path class="st3" d="M486.2,89.2l30.2,59.7c0,0,6.4,17,7.8,21.8c1.4,5,13.5,28.5,13.5,28.5l11.8,52.3l-11.8-4.6l-20-35.9
			L486.2,89.2z"/>
		<polygon class="st7" points="486.1,234.8 475.2,280.7 475.2,323.1 447.4,378.1 431,411.2 436,439.6 442,522.6 431,561.1 
			497.7,561.1 526.9,487.3 493.8,261.8 		"/>
		<polyline class="st3" points="486.9,87.3 486.5,89 475.4,143.8 479,170.8 471.2,203.9 486.3,234.8 502.3,208.1 		"/>
	</g>
</g>
<g id="horizon">
	<path id="cloud5" class="st9" d="M343.4,161c-5-5.8-12.8-9.6-21.5-9.6c-4.2,0-8.2,0.9-11.8,2.5c-3.7-18.7-20.9-33-41.5-33
		c-9.2,0-17.7,2.8-24.6,7.5c-7.2-4.7-16.4-7.5-26.3-7.5c-18.2,0-33.8,9.5-39.6,22.7c-3.6-1-7.6-1.5-11.7-1.5
		c-15.8,0-29.2,8-33.2,18.9H343.4z"/>
	<path id="cloud4" class="st10" d="M197.1,251.7c-2.5-6.2-9.5-9.9-17.7-9.9c-2.9,0-5.7,0.4-8.1,1.3c-2.8-9.7-13.4-17.1-26.1-17.1
		c-4.4,0-8.6,0.9-12.2,2.4c-5.4-9.2-16.3-15.5-28.7-15.5c-16,0-29.3,10.3-31.9,23.9c-3.1-0.9-6.5-1.2-10-1.2
		c-13.3,0-24.5,6.2-28.5,15.9h163.2V251.7z"/>
	<circle id="sun" class="st11" cx="486.8" cy="101.5" r="59.5"/>
	<path id="cloud7" class="st1" d="M663.3,169.5h141c-2.8-13-14.4-22.9-28.2-22.9c-4.9,0-9.4,1.2-13.5,3.3
		c-4.5-11.1-15.3-18.9-28-18.9c-16.6,0-30.2,13.6-30.2,30.2c0,0.3,0,0.8,0,1.1c-3.7-0.7-7.7-1.1-11.7-1.1
		C681.3,161.3,670.9,164.4,663.3,169.5z"/>
	<path id="cloud3" class="st1" d="M711.1,283.9h136.1c-2.7-12.6-13.9-22-27.2-22c-4.7,0-9.1,1.1-13,3.2
		c-4.3-10.7-14.8-18.2-27.1-18.2c-16.1,0-29.2,13.1-29.2,29.2c0,0.4,0,0.7,0,1.1c-3.6-0.7-7.3-1.1-11.3-1.1
		C728.5,276.1,718.4,279.1,711.1,283.9z"/>
	<path id="cloud2" class="st1" d="M750,381.2h110.1c-2.2-10.2-11.2-17.9-22-17.9c-3.8,0-7.3,1-10.5,2.6
		c-3.5-8.7-11.9-14.8-21.8-14.8c-13,0-23.6,10.6-23.6,23.6c0,0.3,0,0.6,0,0.9c-2.9-0.5-6-0.9-9.1-0.9
		C764,374.8,755.9,377.2,750,381.2z"/>
	<path id="cloud1" class="st1" d="M39.1,373.7h110.1c-2.2-10.2-11.2-17.9-22-17.9c-3.8,0-7.3,1-10.5,2.6
		c-3.5-8.7-11.9-14.8-21.8-14.8c-13,0-23.6,10.6-23.6,23.6c0,0.3,0,0.6,0,0.9c-2.9-0.5-6-0.9-9.1-0.9
		C53.2,367.4,45.1,369.8,39.1,373.7z"/>
</g>
<g id="nuclear">
	<path class="st12" d="M466.7,425.4c-0.8-25.7-7.2-85.8-0.8-89.1c9.1-4.8-1.4-6.7-1.4-6.7l-61-0.1v0l-0.1,0l-0.1,0v0l-60.8,0.1
		c0,0-10.4,1.9-1.4,6.7c6.4,3.3,0,63.4-0.8,89.1s-29,123.8-29,123.8h92h0.3h92.2C495.7,549.2,467.5,451.1,466.7,425.4z"/>
	<path class="st13" d="M339.2,336.1h128.1c1.3,0,2.5-1.1,2.5-2.5V332c0-1.3-1.1-2.5-2.5-2.5H339.2c-1.3,0-2.5,1.1-2.5,2.5v1.7
		C336.7,335.1,337.8,336.1,339.2,336.1z"/>
</g>
<g id="aarde3">
	<rect x="53.6" y="613.7" class="st14" width="848.7" height="134.4"/>
	<path class="st15" d="M124.6,703.9c0,0,18.3-4.2,20.6-3.7c2.4,0.4,13.5,7.7,13.5,7.7l54.8,18.7c0,0,34.7-7,36.5-5.8
		c1.8,1.1,16.9,10,17,11.5c0.1,1.5-3.6,7.4-3.6,7.4l-16.4-7.4l-17.9,6.7l-33.3,6.5l-41.8-16.6l-26.2-6L124.6,703.9z"/>
	<path class="st15" d="M669,685.3l-11.8-4.4c0,0-32.4,16.2-34.1,17.7c-1.8,1.5-22,9.3-24,11.2c-1.9,2-29.3,5.1-32.4,6.2
		c-3.1,1.1-27.1,5.8-27.1,8.1c-0.1,2.4-1.4,11.7-1.4,11.7l18.5,12.2h25.6l8.8-12.7c0,0,29.8-2.8,32.7-3.2s39.5-1.9,39.5-1.9
		l17.7-14.9l-4-13.7L669,685.3z"/>
</g>
<g id="aarde2">
	<path class="st16" d="M767.7,659.5l-8.4,9.9h-10h-32.7l-21-4.1l-9.8,4.2l-16.7-3.1l-61.3-6.8l-68.2,9.9l-62.1,8.2l-58.4-1.7
		l-37.3-2.7l-73.8,7.5l-27.7-11.3c-3.5-0.2-59-4.2-61.3-3.1s-14.8,5.8-17.7,7c-2.9,1.1-27.9-4-30.8-2.9c-2.8,1.1-6.3-2.9-11.7-4.1
		s-39.3,7.1-39.3,7.1l-17.3-3.1l-21.2-1.1l-14.1,4.2l-6.2-3.1v-11l5-9.3c0,0,546.8-6.2,544.8-4.8C608.5,647,767.7,659.5,767.7,659.5
		z"/>
	<rect x="53.6" y="557.1" class="st16" width="848.7" height="102.5"/>
	<path class="st17" d="M77.2,627.4l21.4-4.6l20.9,11.8l14,6.5c0,0,40.7-4.1,40.7-1.8c0,2.4,10,14.7,11.2,17.5
		c1.1,2.8-4.7,7.4-4.7,7.4l-38.3-1.1l-33.2-4.4l-33-2.8l4.2-18.9L77.2,627.4z"/>
	<path class="st17" d="M620.9,587.4c0,0-29.4,7.8-33,10.2c-3.5,2.4-19.2,3.5-21,2.9c-1.9-0.6-16.6,4.2-22.3,6.5
		c-5.6,2.3-19.2,25.9-19.2,25.9s21.2,6.5,22.7,6.5s36.4-14.8,44.3-12.6c7.9,2,32.4-5.5,37.5-6.7c5.1-1.2,11.1-21,9.9-21.7
		C638.5,597.5,620.9,587.4,620.9,587.4z"/>
	<rect x="60.7" y="557.1" class="st18" width="707.2" height="15.9"/>
	<ellipse class="st19" cx="691" cy="693" rx="4.7" ry="4.2"/>
	<circle class="st19" cx="109.1" cy="683.6" r="2.7"/>
</g>
<g id="Aarde">
	<path class="st14" d="M58,743.6l11.5,4.5h18.6l25-1.8l24.1,8.2l18.8,1.8l28.3-10.3c0,0,24.8,0.9,26.5,2c1.8,1.1,20.3,0.3,23.4,1.3
		c3.1,1.1,29.4-1.9,30.1-1.3c0.7,0.5,29.3-5.4,30.6-4.2s32.9,6,32.9,6h20.9l43.4-1.8l57.7-4.4l52.6,9.1c0,0,22.5,1.8,24.9,1.8
		c2.4,0,57.8-6.5,57.8-6.5h25.4l26.5,1.3l23.6-3.1l32.4,3.6h33.3l20.2-2l18.7-4.2l-3.8-8H250.7H121.7L58,743.6z"/>
	<path class="st18" d="M815.8,587.4l26.7,4.1l16-6.2l12.8-11.5l-5.3-10.7l-15.5-4.8l-22.9,1.9c0,0-14.8,4.9-16.1,4.9
		c-1.3,0-12.7,16.7-12.7,16.7l1.9,9.8l-6.4,6.9v11.7l11.5,6.6l8.4-6.4c0,0-4-7-4-9.2S815.8,587.4,815.8,587.4z"/>
	<rect x="53.1" y="744.9" class="st20" width="848.7" height="650.6"/>
	<path class="st14" d="M811.8,731.9l-26.7-4.1l-16,6.2l-12.8,11.5l5.3,10.7l15.5,4.8l22.9-1.9c0,0,14.8-4.9,16.1-4.9
		c1.3,0,12.7-16.7,12.7-16.7l-1.9-9.8l6.5-6.9v-11.7l-11.5-6.6l-8.4,6.4c0,0,4,7,4,9.2C817.4,720.3,811.8,731.9,811.8,731.9z"/>
	<path class="st2" d="M480.5,738.5c0,0,20.2,5.8,21.2,11.8c1.1,6-12.6,12.4-19.4,12.3c-7-0.1-16.7-5.1-13.9-12.3
		C471.1,743.1,471.6,735.4,480.5,738.5z"/>
	<g>
		<g>
			<path class="st21" d="M319.8,719.4c-4.7,0-7.3-5-8.3-6.8c-2.4-4.5-5.7-5.5-5.7-5.6c-0.8-0.3-1.2-1.1-1.1-1.9
				c0.3-0.8,1.1-1.2,1.9-1.1c0.2,0.1,4.5,1.3,7.5,7c2.8,5.4,5.1,5.5,6.8,5c0.8-0.3,1.7,0.2,1.9,1c0.3,0.8-0.2,1.7-1,1.9
				C321.1,719.3,320.4,719.4,319.8,719.4z"/>
		</g>
		<g>
			<g>
				<defs>
					<path id="SVGID_1_" d="M319.8,719.4c-4.7,0-7.3-5-8.3-6.8c-2.4-4.5-5.7-5.5-5.7-5.6c-0.8-0.3-1.2-1.1-1.1-1.9
						c0.3-0.8,1.1-1.2,1.9-1.1c0.2,0.1,4.5,1.3,7.5,7c2.8,5.4,5.1,5.5,6.8,5c0.8-0.3,1.7,0.2,1.9,1c0.3,0.8-0.2,1.7-1,1.9
						C321.1,719.3,320.4,719.4,319.8,719.4z"/>
				</defs>
				<clipPath id="SVGID_2_">
					<use xlink:href="#SVGID_1_"  style="overflow:visible;"/>
				</clipPath>
				<g class="st22">
					<g>
						<path class="st23" d="M306.6,708.3c0-0.1-0.4-1.7,0.4-3c0.5-0.8,1.3-1.3,2.5-1.5l0.1,0.6c-1,0.2-1.7,0.6-2.1,1.2
							c-0.7,1.1-0.4,2.5-0.4,2.5L306.6,708.3z"/>
					</g>
					<g>
						<path class="st23" d="M307.9,709.4c0,0,0-4,4-4.4l0.1,0.6c-3.4,0.4-3.4,3.7-3.4,3.8H307.9z"/>
					</g>
					<g>
						<path class="st23" d="M310,710.7l-0.6-0.1c0,0,0.5-3.9,4.5-3.5l-0.1,0.6C310.4,707.3,310,710.5,310,710.7z"/>
					</g>
					<g>
						<path class="st23" d="M310.3,712.5l-0.5-0.3c0-0.1,0.9-2.1,2.6-2.7c0.9-0.4,1.8-0.3,2.7,0.2l-0.3,0.5
							c-0.8-0.4-1.5-0.4-2.2-0.2C311.1,710.7,310.3,712.5,310.3,712.5z"/>
					</g>
					<g>
						<path class="st23" d="M312,714.1l-0.5-0.3c0,0,1.2-3.1,4.8-1.8l-0.2,0.5C313.1,711.7,312.1,714,312,714.1z"/>
					</g>
					<g>
						<path class="st23" d="M313.2,716.2l-0.5-0.2c0,0,1.1-3.1,4.6-2.2l-0.2,0.6C314.2,713.6,313.3,716.1,313.2,716.2z"/>
					</g>
					<g>
						<path class="st23" d="M315.2,718.9h-0.6c0,0,0-1.9,1.1-3.1c0.7-0.6,1.6-1.1,2.7-1.1v0.5c-1,0-1.7,0.4-2.3,1
							C315.2,717.2,315.2,718.9,315.2,718.9z"/>
					</g>
					<g>
						<path class="st23" d="M318.2,720c0,0-1.6-3.4,1.7-5.3l0.3,0.5c-2.7,1.6-1.4,4.4-1.4,4.5L318.2,720z"/>
					</g>
				</g>
			</g>
		</g>
	</g>
	<g>
		<g>
			<path class="st21" d="M615.4,647.6c3.1-3.5,8.6-2.2,10.6-1.8c5,1.1,7.9-0.6,7.9-0.6c0.7-0.4,1.7-0.3,2.1,0.4s0.3,1.7-0.4,2.1
				c-0.2,0.1-3.9,2.6-10.3,1.1c-5.9-1.4-7.5,0.3-8.2,1.9c-0.4,0.8-1.2,1.1-2,0.8c-0.8-0.4-1.1-1.2-0.8-2
				C614.5,648.6,614.9,648,615.4,647.6z"/>
		</g>
		<g>
			<g>
				<defs>
					<path id="SVGID_4_" d="M615.4,647.6c3.1-3.5,8.6-2.2,10.6-1.8c5,1.1,7.9-0.6,7.9-0.6c0.7-0.4,1.7-0.3,2.1,0.4s0.3,1.7-0.4,2.1
						c-0.2,0.1-3.9,2.6-10.3,1.1c-5.9-1.4-7.5,0.3-8.2,1.9c-0.4,0.8-1.2,1.1-2,0.8c-0.8-0.4-1.1-1.2-0.8-2
						C614.5,648.6,614.9,648,615.4,647.6z"/>
				</defs>
				<clipPath id="SVGID_5_">
					<use xlink:href="#SVGID_4_"  style="overflow:visible;"/>
				</clipPath>
				<g class="st24">
					<g>
						<path class="st23" d="M632.4,644.9c0.1,0,1.5,0.8,1.9,2.3c0.3,0.9,0.1,1.9-0.5,2.8l-0.5-0.3c0.5-0.9,0.6-1.7,0.4-2.4
							c-0.4-1.2-1.6-1.9-1.6-1.9L632.4,644.9z"/>
					</g>
					<g>
						<path class="st23" d="M630.7,645.2c0,0,3,2.7,0.8,5.9l-0.5-0.4c1.9-2.8-0.5-5-0.7-5.1L630.7,645.2z"/>
					</g>
					<g>
						<path class="st23" d="M628.4,645.9l0.4-0.4c0,0,2.7,2.9-0.3,5.7l-0.4-0.4C630.7,648.4,628.5,646,628.4,645.9z"/>
					</g>
					<g>
						<path class="st23" d="M626.7,644.9l0.5-0.3c0,0.1,1,2,0.4,3.7c-0.3,0.9-1,1.5-1.9,1.9l-0.3-0.5c0.8-0.4,1.3-0.9,1.6-1.6
							C627.6,646.7,626.7,644.9,626.7,644.9z"/>
					</g>
					<g>
						<path class="st23" d="M624.4,645.1l0.5-0.3c0,0,1.5,3-1.8,4.8l-0.3-0.5C625.6,647.6,624.4,645.3,624.4,645.1z"/>
					</g>
					<g>
						<path class="st23" d="M622.1,644.7l0.5-0.3c0,0,1.6,2.9-1.3,5l-0.4-0.5C623.3,647.1,622.1,644.8,622.1,644.7z"/>
					</g>
					<g>
						<path class="st23" d="M618.7,644.4l0.4-0.4c0,0,1.5,1.3,1.6,2.9c0.1,1-0.3,1.9-1,2.7l-0.4-0.4c0.6-0.7,0.8-1.6,0.8-2.3
							C620,645.5,618.7,644.4,618.7,644.4z"/>
					</g>
					<g>
						<path class="st23" d="M615.9,645.9c0,0,3.6,1.1,2.9,4.8l-0.6-0.1c0.6-3.1-2.4-4-2.5-4.1L615.9,645.9z"/>
					</g>
				</g>
			</g>
		</g>
	</g>
	<circle class="st25" cx="262" cy="700.2" r="1.6"/>
	<circle class="st25" cx="107.8" cy="701.7" r="1.3"/>
	<circle class="st25" cx="108.4" cy="716.1" r="0.7"/>
	<circle class="st25" cx="129.4" cy="700.2" r="1.6"/>
	<circle class="st25" cx="70.1" cy="736.4" r="1.1"/>
	<circle class="st25" cx="169.2" cy="738.6" r="1.1"/>
	<circle class="st25" cx="215.4" cy="676.9" r="0.9"/>
	<circle class="st25" cx="77.2" cy="687.5" r="1.1"/>
	<ellipse class="st25" cx="498.3" cy="708.8" rx="0" ry="1"/>
	<ellipse class="st25" cx="376.5" cy="735.9" rx="0" ry="0.5"/>
	<circle class="st25" cx="850.6" cy="703" r="1.3"/>
	<circle class="st25" cx="514.4" cy="733.8" r="1.6"/>
	<circle class="st25" cx="584.6" cy="690.4" r="1.1"/>
	<path class="st18" d="M60.5,557.1l19.8-5l33,2.5l40.8-2.5l23.1,2.4l45.5-2.7h43.8c0,0,35.1-1.5,39.4,0c4.3,1.5,49.8,2.1,51.2,2
		c2.4-0.2,53,0.2,53,0.2l35.7-0.4l56.8-3l47.2,3.1l45.9-2.8h50.7l37.7,3l80.3,3l28.1-5.9h39.8l21.7,3l46.5,3.2l-13.6,8L460,573.4
		l-182.7-3.9H158.4L60.5,557.1z"/>
	<circle class="st26" cx="294.8" cy="655.8" r="2.8"/>
	<circle class="st26" cx="553.9" cy="616.8" r="2.7"/>
	<circle class="st26" cx="567.7" cy="635.4" r="0.9"/>
	<circle class="st26" cx="592.3" cy="634.1" r="1.2"/>
	<circle class="st26" cx="79.7" cy="642.3" r="1.3"/>
	<circle class="st26" cx="80.3" cy="593.5" r="0.6"/>
	<circle class="st26" cx="137.9" cy="636.8" r="1.4"/>
	<circle class="st26" cx="699.1" cy="612.1" r="1.1"/>
	<ellipse class="st26" cx="749.9" cy="594.5" rx="0" ry="0.7"/>
	<circle class="st26" cx="634.3" cy="607" r="1.4"/>
	<circle class="st26" cx="644.8" cy="656.8" r="1.1"/>
	<ellipse class="st26" cx="538.2" cy="591.6" rx="0" ry="1.4"/>
	<circle class="st26" cx="493.2" cy="664.3" r="1.1"/>
	<ellipse class="st26" cx="757" cy="605.5" rx="0" ry="0.7"/>
	<circle class="st25" cx="646.7" cy="726.9" r="1.9"/>
	<ellipse class="st25" cx="735.3" cy="691.5" rx="0" ry="1.9"/>
	<circle class="st25" cx="710.7" cy="726.2" r="1.1"/>
	<circle class="st25" cx="700.1" cy="709.8" r="0"/>
	<path class="st4" d="M534.1,655.5c-1.1-0.2-2.2,0.6-2.4,1.8c-0.1,0.5,0.1,1.1,0.4,1.4c-0.5,0.4-0.9,0.9-1,1.6
		c-0.2,1.2,0.7,2.5,1.9,2.7c1.1,0.2,2.2-0.5,2.6-1.6l17.2,2.6c0,0.8,0.6,1.4,1.3,1.5c0.9,0.1,1.7-0.4,1.8-1.3c0-0.3,0-0.5-0.1-0.8
		c0.8-0.2,1.4-0.8,1.6-1.7c0.2-1.1-0.6-2.1-1.7-2.3c-0.9-0.1-1.7,0.3-2,1.1l-17.8-2.7C535.9,656.7,535.2,655.7,534.1,655.5z"/>
	<path class="st2" d="M132.2,653.7c0,0,20.2,5.8,21.2,11.8s-12.6,12.4-19.4,12.3c-7-0.1-16.7-5.1-13.9-12.3
		C122.8,658.3,123.3,650.6,132.2,653.7z"/>
	<path class="st8" d="M165.9,653c0,0-10.6,2.9-5.9,6.7c4.7,3.8,17.1,2.7,17.7,0C178.2,657,172.8,649.1,165.9,653z"/>
	<path class="st8" d="M816.5,645.7c0,0-10-10.2-18.3-6.6c-8.2,3.5-30.7,9-27.1,16.9s25,17.9,30.8,18.7
		C807.7,675.6,833,658.3,816.5,645.7z"/>
	<path class="st27" d="M747.6,622.6c-0.5-1.8-2.4-2.7-4.2-2.2c-1.8,0.5-2.8,2.4-2.3,4.1c0.4,1.4,2.1,2.3,3.1,2.4l1.6,5.4l-1.7,0.5
		l0.5,1.7l1.7-0.5l0.7,2.4l-2.7,0.6l0.4,1.4l4.4-1.1l-3.2-11C747.5,625.8,748.1,624.2,747.6,622.6z M744.9,625.4
		c-1,0.3-1.9-0.3-2.3-1.2c-0.3-1,0.3-1.9,1.2-2.3c1-0.3,1.9,0.3,2.3,1.2C746.4,624,745.9,625.1,744.9,625.4z"/>
	<g>
		<g>
			<polygon id="SVGID_3_" class="st28" points="612,598.1 606.7,599.8 601.4,601.4 599.2,605.5 610.7,612.9 616.2,600.3 			"/>
		</g>
		<g>
			<defs>
				<polygon id="SVGID_6_" points="612,598.1 606.7,599.8 601.4,601.4 599.2,605.5 610.7,612.9 616.2,600.3 				"/>
			</defs>
			<clipPath id="SVGID_7_">
				<use xlink:href="#SVGID_6_"  style="overflow:visible;"/>
			</clipPath>
			<g class="st29">
				<polygon class="st28" points="612,598.1 606.7,599.8 601.4,601.4 599.2,605.5 610.7,612.9 616.2,600.3 				"/>
			</g>
		</g>
		<g>
			<defs>
				<polygon id="SVGID_8_" points="612,598.1 606.7,599.8 601.4,601.4 599.2,605.5 610.7,612.9 616.2,600.3 				"/>
			</defs>
			<clipPath id="SVGID_9_">
				<use xlink:href="#SVGID_8_"  style="overflow:visible;"/>
			</clipPath>
			<g class="st30">
				
					<rect x="598.8" y="602.7" transform="matrix(0.9567 -0.291 0.291 0.9567 -149.16 202.9201)" class="st31" width="17.8" height="0.5"/>
			</g>
		</g>
		<g>
			<defs>
				<polygon id="SVGID_10_" points="612,598.1 606.7,599.8 601.4,601.4 599.2,605.5 610.7,612.9 616.2,600.3 				"/>
			</defs>
			<clipPath id="SVGID_11_">
				<use xlink:href="#SVGID_10_"  style="overflow:visible;"/>
			</clipPath>
			<g class="st32">
				<polygon class="st31" points="611.3,601.9 606.9,600.2 604.9,603.9 601.2,601.7 601.6,601.1 604.7,603.1 606.6,599.5 611,601.1 
					611.8,598.1 612.3,598.2 				"/>
			</g>
		</g>
		<g>
			<defs>
				<polygon id="SVGID_12_" points="612,598.1 606.7,599.8 601.4,601.4 599.2,605.5 610.7,612.9 616.2,600.3 				"/>
			</defs>
			<clipPath id="SVGID_13_">
				<use xlink:href="#SVGID_12_"  style="overflow:visible;"/>
			</clipPath>
			<g class="st33">
				<polygon class="st31" points="611,613.8 604.5,603.6 605,603.4 610.4,611.9 610.9,601.5 611.4,601.5 				"/>
			</g>
		</g>
	</g>
	<g>
		<path class="st4" d="M206.1,699.5c0-0.8-0.4-1.4-0.7-1.9c0.4-0.4,0.6-0.8,0.7-1.4c0.3-1.6,0.6-1.7,0.6-1.7s1.9-4-0.4-5.1
			c0,0-0.8,0.1-1.2-0.3c-0.4-0.4-2.5-2.5-3.6-2.4c-1.1,0.2-3,0.5-3.6,0.6c-0.6,0.1-1.8-0.5-2.7-0.1s-7.6,3.5-9.8,4.6
			c-2.2,1.1-6.5,2.3-6.7,7.1c0,0,0.5,0.4,1.6,0.9v0.1c0,0,0.1,1.5,1.2,1.9c0,0-0.4-0.8-0.4-1.5c0.1,0.3,0.3,0.5,0.4,0.5
			s0.2-0.4,0.2-0.5h0.1c0.1,0.2,0.3,0.6,0.4,0.7c0.2,0,0.2-0.3,0.2-0.5c0.1,0,0.2,0,0.3,0c0.1,0.2,0.3,0.7,0.4,0.7
			c0.2,0,0.2-0.4,0.2-0.6c0.1,0,0.3,0,0.4,0c0,0,0.1,1.5,1.2,1.9c0,0-0.4-1.1-0.4-1.9c0.3,0,0.5,0,0.8,0c0,0,0.3,0.8,0.5,0.8
			c0.3,0,0.2-0.9,0.2-0.9c0.2,0,0.4-0.1,0.6-0.1c0.1,0.3,0.3,0.5,0.4,0.6c0.2,0,0.2-0.4,0.2-0.7c0.3,0,0.4-0.1,0.7-0.2
			c0.1,0.2,0.3,0.4,0.4,0.4c0.2,0,0.2-0.4,0.2-0.6c0.3-0.1,0.4-0.1,0.7-0.2c0.1,0.2,0.2,0.4,0.4,0.4c0.2,0,0.2-0.3,0.2-0.5
			c0.3-0.1,0.5-0.1,0.8-0.2c0.1,0.3,0.3,0.5,0.4,0.5c0.2,0,0.2-0.4,0.2-0.7c0.2,0,0.4-0.1,0.6-0.1l0,0c0,0.1,0.3,0.8,0.5,0.8
			c0.3,0,0.2-0.6,0.2-0.8c0.2,0,0.4,0,0.6,0l0,0c0,0,0.3,0.8,0.5,0.8s0.2-0.5,0.2-0.8c0.2,0,0.4,0,0.6,0c0,0.1,0.3,0.7,0.5,0.8
			c0.3,0,0.2-0.5,0.2-0.7c0.2,0,0.4,0,0.6,0c0.1,0.2,0.3,0.7,0.5,0.7c0.2,0,0.2-0.4,0.2-0.7c0.8,0,1.7,0.1,2.5,0.1
			c-0.6,0.4-1.3,0.9-2.1,1.4c-0.2-0.2-0.4-0.4-0.5-0.4c-0.2,0-0.1,0.4,0,0.7c-0.1,0.1-0.3,0.2-0.4,0.3c-0.2-0.2-0.4-0.4-0.5-0.4
			s-0.1,0.5,0,0.7c-0.1,0.1-0.3,0.2-0.4,0.3c-0.2-0.2-0.4-0.4-0.5-0.4c-0.3,0-0.1,0.5,0,0.8c-0.1,0.1-0.3,0.2-0.4,0.3
			c-0.2-0.2-0.4-0.4-0.5-0.4c-0.3,0-0.1,0.6,0,0.8c-0.1,0.1-0.3,0.2-0.4,0.3c-0.2-0.2-0.4-0.5-0.5-0.4c-0.3,0,0,0.7,0,0.9
			c-0.1,0.1-0.3,0.2-0.4,0.3c-0.1-0.2-0.4-0.5-0.6-0.5c-0.3,0,0,0.9,0,0.9l0,0c-0.1,0.1-0.3,0.1-0.4,0.2c-0.2-0.2-0.4-0.5-0.6-0.5
			c-0.2,0-0.1,0.5,0,0.8c-0.1,0.1-0.3,0.1-0.4,0.2c-0.2-0.2-0.4-0.4-0.5-0.4c-0.2,0-0.1,0.4-0.1,0.6c-0.2,0.1-0.4,0.2-0.4,0.2
			c-0.1-0.2-0.3-0.3-0.4-0.3c-0.2,0-0.2,0.3-0.1,0.4c-0.2,0.1-0.4,0.2-0.5,0.3c-0.2-0.2-0.4-0.4-0.5-0.4c-0.2,0-0.1,0.4,0,0.6
			c-0.1,0.1-0.2,0.1-0.3,0.2c-0.4-0.4-0.6-0.9-0.6-0.9c-0.4,0.1-0.3,0.8,0,1.3c-0.1,0.1-0.3,0.2-0.4,0.2c-0.4-0.4-0.5-0.9-0.5-0.9
			c-0.4,0.1-0.3,0.9,0,1.3c-0.4,0.4-0.5,0.7-0.4,1c0.6,1.6,3.4,3.3,5.9,2.1c2.5-1.1,8.2-5.2,9.9-5.7c1.7-0.4,3.1-2.5,3.3-3.3
			C204.8,700.6,206,701,206.1,699.5z M184.2,696.5c-1-0.8,0.4-1.8,0.4-1.8s1.1,0.9,1.1,1.8C185.5,697.4,185.1,697.2,184.2,696.5z
			 M191.6,697.3c-0.6,0.3-1.9-0.5-2.3-0.4s-2.6,0-2.8-0.4c-0.3-0.4-0.9-4.5,3.6-4.1c0.4,0,0.4-0.6,1.1-0.8c0.6-0.2,1.5-0.1,1.2,1.1
			c-0.3,1.2-0.5,0.6-0.6,1.7C191.8,695.7,192.2,697.2,191.6,697.3z M196.7,694c-0.1,1,0.1,3.1-0.4,3.3c-0.4,0.2-2.5,0.7-3-0.5
			c-0.5-1.2-1.4-6.5,2.8-6.7c0.5,0,1.7,0.7,1.6,1.6C197.8,692.5,196.8,693,196.7,694z"/>
	</g>
	<path class="st18" d="M60.7,572.9l11.5,4.5h18.6l25-1.8l24.1,8.2l18.8,1.8l28.3-10.3c0,0,24.8,0.9,26.5,2
		c1.8,1.1,20.3,0.3,23.4,1.3c3.1,1.1,29.4-1.9,30.1-1.3c0.7,0.5,29.3-5.4,30.6-4.2c1.3,1.1,32.9,6,32.9,6h20.9l43.4-1.8l57.7-4.4
		l52.6,9.1c0,0,22.5,1.8,24.9,1.8c2.4,0,57.8-6.5,57.8-6.5h25.4l26.5,1.3l23.6-3.1l32.4,3.6h33.3l20.2-2l18.7-4.2l-3.8-8H253.4
		H124.3L60.7,572.9z"/>
	<path class="st18" d="M208.9,598.4l-26.7-4.1l-16,6.2L153.4,612l5.3,10.7l15.5,4.8l22.9-1.9c0,0,14.8-4.9,16.1-4.9
		s12.7-16.7,12.7-16.7l-1.9-9.8l6.5-6.9v-11.7l-11.5-6.6l-8.4,6.4c0,0,4,7,4,9.2C214.5,586.8,208.9,598.4,208.9,598.4z"/>
	<g>
		<g>
			<path class="st34" d="M184.5,623.8c0,0,2.7,0.1,2.7,1.4s-3.9,0.6-3.9,0.6S182.9,624.1,184.5,623.8z"/>
			<path class="st35" d="M189.2,621.6c0,2.6-6.7,5.1-12,5.1c-5.3,0-9.5-0.9-9.5-4.7c0-2.6,4.2-6.9,9.5-6.9
				C182.4,615,189.2,618.9,189.2,621.6z"/>
			<path class="st34" d="M181,624.7c0,0,2.7,0.1,2.7,1.4c0.1,1.3-3.9,0.6-3.9,0.6S179.4,625,181,624.7z"/>
			<path class="st34" d="M169.5,624.7c0,0,2.7,0.1,2.7,1.4c0.1,1.3-3.9,0.6-3.9,0.6S167.9,625,169.5,624.7z"/>
		</g>
		<ellipse class="st35" cx="185.3" cy="620.6" rx="0.6" ry="0.8"/>
		<path class="st36" d="M187.9,620.2c0,0,1.1-0.4,1.6,0c0.4,0.4-0.3,1.6-0.4,1.9C188.9,622.5,187.4,620.5,187.9,620.2z"/>
	</g>
	<circle class="st37" cx="641.7" cy="575.4" r="2"/>
	<circle class="st37" cx="276.8" cy="616.8" r="1.6"/>
	<circle class="st37" cx="170.5" cy="637.1" r="2.2"/>
	<circle class="st37" cx="132.3" cy="619.6" r="1.1"/>
	<circle class="st37" cx="655.3" cy="634.9" r="2"/>
	<ellipse class="st37" cx="695.4" cy="643.8" rx="0" ry="1.5"/>
	<circle class="st37" cx="702.7" cy="591.6" r="2.9"/>
	<circle class="st37" cx="520.4" cy="624.1" r="1.5"/>
	<circle class="st37" cx="127.9" cy="579" r="3.3"/>
	<circle class="st37" cx="105.7" cy="643.1" r="0.7"/>
	<ellipse class="st37" cx="485.2" cy="583" rx="0" ry="0.9"/>
	<ellipse class="st37" cx="386.3" cy="643.1" rx="0" ry="0.7"/>
	<circle class="st37" cx="239.8" cy="584.5" r="1.5"/>
	<ellipse class="st37" cx="442.6" cy="587.4" rx="0" ry="1.3"/>
	<circle class="st37" cx="297.8" cy="621.4" r="2.9"/>
	<path class="st38" d="M68.2,232.7"/>
	<circle class="st19" cx="636.4" cy="684.2" r="3.3"/>
	<circle class="st19" cx="740.5" cy="715.1" r="1.6"/>
	<circle class="st37" cx="666.2" cy="597.5" r="2.9"/>
	<circle class="st37" cx="723.1" cy="613.1" r="2"/>
	<circle class="st37" cx="727" cy="583.9" r="1.8"/>
	<circle class="st37" cx="86" cy="613.4" r="5"/>
	<circle class="st37" cx="107.7" cy="624.2" r="1.4"/>
	<ellipse class="st37" cx="108.4" cy="600.4" rx="0" ry="0.7"/>
	<ellipse class="st37" cx="150.8" cy="619.4" rx="0" ry="1.1"/>
	<circle class="st37" cx="182.4" cy="583.9" r="1.8"/>
	<circle class="st37" cx="105" cy="605.6" r="2.7"/>
	<circle class="st37" cx="199.3" cy="622.6" r="2.2"/>
	<circle class="st37" cx="236.2" cy="634.9" r="2"/>
	<circle class="st37" cx="290.4" cy="577.2" r="1.5"/>
	<ellipse class="st37" cx="607.9" cy="633.2" rx="0" ry="1.8"/>
	<circle class="st19" cx="149.1" cy="716.7" r="1.5"/>
	<circle class="st19" cx="188.9" cy="711.6" r="1.8"/>
	<circle class="st19" cx="738.9" cy="720.3" r="1.3"/>
	<circle class="st19" cx="243" cy="680" r="1.8"/>
	<circle class="st19" cx="312" cy="702.1" r="1.8"/>
	<circle class="st19" cx="287.2" cy="681.8" r="1.8"/>
	<circle class="st19" cx="278.4" cy="715.4" r="1.8"/>
	<circle class="st19" cx="546.3" cy="696.8" r="1.8"/>
	<circle class="st19" cx="548" cy="722.4" r="1.8"/>
	<circle class="st19" cx="83.7" cy="719.3" r="2.7"/>
	<circle class="st19" cx="251.9" cy="726.5" r="1.8"/>
	<ellipse class="st19" cx="796.4" cy="713.2" rx="1.8" ry="1.9"/>
	<circle class="st19" cx="450.8" cy="737.1" r="1.8"/>
	<circle class="st19" cx="174.1" cy="681.8" r="3.5"/>
	<circle class="st19" cx="863.6" cy="623.4" r="3.5"/>
	<circle class="st19" cx="317.3" cy="728.6" r="3.5"/>
	<circle class="st19" cx="603.7" cy="725" r="2.4"/>
</g>
<g id="fly">
	<g>
		<path class="st7" d="M230.4,259.4c0.9-0.8,1.8-1.4,2.8-1.9c1.1-0.5,2.1-1,3.3-1.3c1.1-0.4,2.3-0.5,3.5-0.5c0.6,0,1.2,0,1.8,0
			c0.6,0,1.1,0.1,1.8,0.3c0.6,0.1,1.1,0.3,1.8,0.4c0.6,0.2,1.1,0.4,1.7,0.6c1.1,0.4,2.2,1,3.2,1.6c0.5,0.3,1,0.6,1.5,1
			c0.5,0.4,1,0.7,1.4,1.1l1.3,1.1l1.3,1.2l-3.8,1.2c0.2-0.7,0.3-1.2,0.5-1.9c0.2-0.6,0.4-1.1,0.6-1.8c0.4-1.1,1-2.3,1.6-3.4
			c1.2-2.1,2.8-4.1,4.8-5.6c0.5-0.4,1-0.7,1.5-1.1c0.5-0.4,1.1-0.6,1.6-0.9c0.5-0.3,1.1-0.5,1.7-0.7c0.5-0.2,1.1-0.4,1.8-0.5
			c0.6-0.1,1.1-0.3,1.8-0.3c0.6-0.1,1.1-0.1,1.8-0.1s1.1,0,1.8,0s1.1,0.1,1.7,0.2c0.2,0,0.3,0.1,0.2,0.2c0,0.1-0.1,0.2-0.3,0.2l0,0
			c-0.5,0-1.1,0.1-1.7,0.2c-0.5,0.1-1.1,0.1-1.7,0.3c-0.5,0.1-1.1,0.2-1.6,0.4c-0.5,0.1-1.1,0.4-1.6,0.5c-0.5,0.2-1,0.4-1.5,0.7
			c-0.4,0.3-1,0.5-1.4,0.8c-0.4,0.4-0.9,0.6-1.2,1c-0.4,0.4-0.8,0.7-1.1,1.1c-1.4,1.5-2.6,3.4-3.3,5.3c-0.4,1-0.7,1.9-1,3
			c-0.1,0.5-0.3,1.1-0.3,1.5c-0.1,0.5-0.2,1.1-0.2,1.4c0,1.1-1.1,2.1-2.2,2c-0.6,0-1.2-0.4-1.6-0.8l-0.1-0.1l-1-1.2l-1.1-1.1
			l-1.1-1.1c-0.4-0.4-0.8-0.7-1.1-1.1c-0.8-0.7-1.7-1.2-2.6-1.8c-0.4-0.3-0.9-0.5-1.3-0.7c-0.4-0.3-1-0.4-1.4-0.6
			c-0.5-0.2-1-0.4-1.5-0.4c-0.5-0.1-1-0.2-1.5-0.3c-1.1-0.1-2.1-0.1-3.2,0c-1.1,0.1-2.1,0.4-3.1,0.7c-1,0.4-2,0.8-2.9,1.4l0,0
			c-0.1,0.1-0.3,0.1-0.4-0.1C230.3,259.6,230.3,259.5,230.4,259.4z"/>
	</g>
	<g>
		<path class="st7" d="M256.4,272.3c1.2-0.5,2.6-0.7,4-0.5c1.3,0.1,2.7,0.5,3.9,1.3c1.2,0.7,2.2,1.7,3.1,2.8
			c0.4,0.5,0.8,1.1,1.2,1.7c0.4,0.6,0.7,1.2,1,1.9l-2.4-0.1c0.3-0.4,0.4-0.6,0.6-1c0.3-0.3,0.4-0.5,0.7-0.8c0.4-0.5,1-1.1,1.6-1.5
			c1.1-0.9,2.4-1.7,3.7-2.1c0.7-0.2,1.4-0.4,2.1-0.4c0.4,0,0.7,0,1.1,0s0.7,0.1,1.1,0.1c0.4,0.1,0.7,0.1,1.1,0.2
			c0.4,0.1,0.6,0.2,1,0.3c0.6,0.3,1.2,0.5,1.9,0.8c0.1,0,0.1,0.1,0.1,0.2c0,0.1-0.1,0.1-0.2,0.1l0,0c-0.6-0.2-1.2-0.4-1.9-0.5
			c-0.4-0.1-0.6-0.1-1-0.2s-0.6,0-1-0.1c-0.4,0-0.6,0-1,0.1c-0.4,0-0.6,0.1-0.9,0.2c-0.6,0.2-1.1,0.4-1.8,0.6
			c-1.1,0.5-2,1.3-2.8,2.2c-0.4,0.4-0.8,1-1.1,1.4c-0.2,0.3-0.4,0.5-0.4,0.8c-0.2,0.3-0.3,0.5-0.4,0.8c-0.3,0.6-1,1-1.7,0.7
			c-0.4-0.2-0.6-0.4-0.7-0.8l0,0c-0.2-0.6-0.4-1.1-0.6-1.7c-0.3-0.5-0.5-1.1-0.8-1.6c-0.6-1.1-1.3-2-2.3-2.7c-0.9-0.8-2-1.3-3.2-1.6
			c-1.2-0.3-2.5-0.4-3.7,0l0,0c-0.1,0-0.2,0-0.2-0.1C256.2,272.4,256.3,272.3,256.4,272.3z"/>
	</g>
</g>
<g id="ground">
	<rect id="lift_2_" x="386.1" y="562" class="st39" width="53.6" height="485.6"/>
	<g id="floor2">
		<g id="floor_1_">
			<polygon class="st40" points="862.2,923 902.3,944.1 54.9,944.1 105.5,923 			"/>
		</g>
		<g id="room7">
			<polygon class="st14" points="797.5,923 722.3,923.1 722.3,881.1 797.6,881.1 			"/>
			<rect x="648.1" y="889.8" class="st41" width="142.2" height="54.3"/>
			<polygon class="st42" points="648.1,889.8 659.6,881.1 797.6,881.1 790.3,889.8 			"/>
			<path class="st43" d="M668.1,924.9h-4.8c-3,0-5.5-2.5-5.5-5.5v-4.8c0-3,2.5-5.5,5.5-5.5h4.8c3,0,5.5,2.5,5.5,5.5v4.8
				C673.6,922.5,671.1,924.9,668.1,924.9z"/>
			<path class="st43" d="M719.9,924.9h-4.8c-3,0-5.5-2.5-5.5-5.5v-4.8c0-3,2.5-5.5,5.5-5.5h4.8c3,0,5.5,2.5,5.5,5.5v4.8
				C725.4,922.5,722.9,924.9,719.9,924.9z"/>
			<path class="st43" d="M771.7,924.9h-4.8c-3,0-5.5-2.5-5.5-5.5v-4.8c0-3,2.5-5.5,5.5-5.5h4.8c3,0,5.5,2.5,5.5,5.5v4.8
				C777.2,922.5,774.8,924.9,771.7,924.9z"/>
			<polygon class="st44" points="797.5,923 790.3,923 790.3,944.1 			"/>
		</g>
		<g id="room6_1_">
			<polygon class="st14" points="561.1,922.8 481.1,923.1 481.1,881.1 561.1,881.1 			"/>
			<rect x="467.8" y="889.8" class="st41" width="86" height="54.3"/>
			<polygon class="st42" points="467.8,889.8 481.1,881.1 561.1,881.1 553.8,889.8 			"/>
			<polygon class="st44" points="561.1,922.8 553.8,922.8 553.8,944.1 			"/>
			<path class="st43" d="M489.4,924.3h-4.8c-3,0-5.5-2.5-5.5-5.5V914c0-3,2.5-5.5,5.5-5.5h4.8c3,0,5.5,2.5,5.5,5.5v4.8
				C494.9,921.9,492.4,924.3,489.4,924.3z"/>
			<path class="st43" d="M534.1,924.3h-4.8c-3,0-5.5-2.5-5.5-5.5V914c0-3,2.5-5.5,5.5-5.5h4.8c3,0,5.5,2.5,5.5,5.5v4.8
				C539.5,921.9,537.1,924.3,534.1,924.3z"/>
		</g>
		<g id="room5">
			<polygon class="st14" points="344.7,923 269.5,923.1 269.5,881.1 344.7,881.1 			"/>
			<rect x="110.3" y="889.8" class="st41" width="227.2" height="54.3"/>
			<polygon class="st42" points="110.3,889.8 128.3,881.1 344.7,881.1 337.4,889.8 			"/>
			<path class="st43" d="M148.5,924.9h-4.8c-3,0-5.5-2.5-5.5-5.5v-4.8c0-3,2.5-5.5,5.5-5.5h4.8c3,0,5.5,2.5,5.5,5.5v4.8
				C154,922.5,151.5,924.9,148.5,924.9z"/>
			<path class="st43" d="M200.3,924.9h-4.8c-3,0-5.5-2.5-5.5-5.5v-4.8c0-3,2.5-5.5,5.5-5.5h4.8c3,0,5.5,2.5,5.5,5.5v4.8
				C205.8,922.5,203.4,924.9,200.3,924.9z"/>
			<path class="st43" d="M252.2,924.9h-4.8c-3,0-5.5-2.5-5.5-5.5v-4.8c0-3,2.5-5.5,5.5-5.5h4.8c3,0,5.5,2.5,5.5,5.5v4.8
				C257.6,922.5,255.2,924.9,252.2,924.9z"/>
			<polygon class="st44" points="344.7,923 337.4,923 337.4,944.1 			"/>
			<path class="st43" d="M304,924.9h-4.8c-3,0-5.5-2.5-5.5-5.5v-4.8c0-3,2.5-5.5,5.5-5.5h4.8c3,0,5.5,2.5,5.5,5.5v4.8
				C309.5,922.5,307,924.9,304,924.9z"/>
		</g>
		<g id="door2">
			<rect x="395.8" y="877.2" class="st45" width="43.9" height="45.8"/>
			<polygon class="st45" points="392.2,891.6 395.8,891.6 395.8,923 392.2,923 			"/>
			<path class="st4" d="M386.1,885.7v58.4h46.7v-58.4H386.1z M426.8,940.3h-34.6v-48.7l34.6-0.1V940.3z"/>
			<rect x="392.2" y="923" class="st46" width="34.6" height="17.4"/>
			<path class="st47" d="M409,937.4"/>
			<rect id="doorLeft_1_" x="395.8" y="893.8" class="st4" width="13" height="44.7"/>
			<rect id="doorRight_1_" x="409.3" y="893.8" class="st4" width="12.9" height="44.7"/>
			<g id="button_1_">
				<rect x="428.2" y="909" class="st48" width="2.8" height="5.7"/>
				<circle class="st4" cx="429.6" cy="910.7" r="0.8"/>
				<circle class="st4" cx="429.6" cy="913.1" r="0.8"/>
			</g>
			<path class="st48" d="M412.9,890.4h-7.3c-0.6,0-1.1-0.5-1.1-1.1v-0.8c0-0.6,0.5-1.1,1.1-1.1h7.3c0.6,0,1.1,0.5,1.1,1.1v0.8
				C414,889.9,413.5,890.4,412.9,890.4z"/>
			<text transform="matrix(1 0 0 1 408.4565 889.5308)" class="st4 st49 st50">-2</text>
			<polygon class="st46" points="439.6,923 432.8,944.1 432.8,922.9 			"/>
			<polygon class="st51" points="386.1,885.7 393,877.2 439.6,877.2 432.8,885.7 			"/>
		</g>
	</g>
	<g id="floor1">
		<g id="floor">
			<polygon class="st40" points="862.2,814.3 902.3,835.4 53.5,835.4 104.2,814.3 			"/>
		</g>
		<g id="room2">
			<polygon class="st14" points="346.5,814.1 266.5,814.4 266.5,772.4 346.5,772.4 			"/>
			<rect x="253.1" y="781.1" class="st41" width="86" height="54.3"/>
			<polygon class="st44" points="346.5,814.1 339.2,814.1 339.2,835.4 			"/>
			<path class="st43" d="M274.8,815.6H270c-3,0-5.5-2.5-5.5-5.5v-4.8c0-3,2.5-5.5,5.5-5.5h4.8c3,0,5.5,2.5,5.5,5.5v4.8
				C280.3,813.2,277.8,815.6,274.8,815.6z"/>
			<path class="st43" d="M319.4,815.6h-4.8c-3,0-5.5-2.5-5.5-5.5v-4.8c0-3,2.5-5.5,5.5-5.5h4.8c3,0,5.5,2.5,5.5,5.5v4.8
				C324.9,813.2,322.5,815.6,319.4,815.6z"/>
			<polygon class="st42" points="253.1,781.3 266.5,772.5 346.5,772.5 339.2,781.3 			"/>
		</g>
		<g id="room4">
			<polygon class="st14" points="796.2,814.3 721,814.4 721,772.4 796.2,772.4 			"/>
			<rect x="646.7" y="781.1" class="st41" width="142.2" height="54.3"/>
			<polygon class="st42" points="646.7,781.1 658.2,772.4 796.2,772.4 788.9,781.1 			"/>
			<path class="st43" d="M666.7,816.2h-4.8c-3,0-5.5-2.5-5.5-5.5v-4.8c0-3,2.5-5.5,5.5-5.5h4.8c3,0,5.5,2.5,5.5,5.5v4.8
				C672.2,813.8,669.7,816.2,666.7,816.2z"/>
			<path class="st43" d="M718.5,816.2h-4.8c-3,0-5.5-2.5-5.5-5.5v-4.8c0-3,2.5-5.5,5.5-5.5h4.8c3,0,5.5,2.5,5.5,5.5v4.8
				C724,813.8,721.6,816.2,718.5,816.2z"/>
			<path class="st43" d="M770.3,816.2h-4.8c-3,0-5.5-2.5-5.5-5.5v-4.8c0-3,2.5-5.5,5.5-5.5h4.8c3,0,5.5,2.5,5.5,5.5v4.8
				C775.8,813.8,773.4,816.2,770.3,816.2z"/>
			<polygon class="st44" points="796.2,814.3 788.9,814.3 788.9,835.4 			"/>
		</g>
		<g id="room3">
			<polygon class="st14" points="619.1,814.3 543.9,814.4 543.9,772.4 619.1,772.4 			"/>
			<rect x="469.6" y="781.1" class="st41" width="142.2" height="54.3"/>
			<polygon class="st42" points="469.6,781.1 481.1,772.4 619.1,772.4 611.8,781.1 			"/>
			<path class="st43" d="M489.6,816.2h-4.8c-3,0-5.5-2.5-5.5-5.5v-4.8c0-3,2.5-5.5,5.5-5.5h4.8c3,0,5.5,2.5,5.5,5.5v4.8
				C495.1,813.8,492.6,816.2,489.6,816.2z"/>
			<path class="st43" d="M541.4,816.2h-4.8c-3,0-5.5-2.5-5.5-5.5v-4.8c0-3,2.5-5.5,5.5-5.5h4.8c3,0,5.5,2.5,5.5,5.5v4.8
				C546.9,813.8,544.5,816.2,541.4,816.2z"/>
			<path class="st43" d="M593.3,816.2h-4.8c-3,0-5.5-2.5-5.5-5.5v-4.8c0-3,2.5-5.5,5.5-5.5h4.8c3,0,5.5,2.5,5.5,5.5v4.8
				C598.7,813.8,596.3,816.2,593.3,816.2z"/>
			<polygon class="st44" points="619.1,814.3 611.8,814.3 611.8,835.4 			"/>
		</g>
		<g id="room1">
			<polygon class="st14" points="206.6,814.3 126.6,814.5 126.6,772.5 206.6,772.5 			"/>
			<rect x="113.2" y="781.3" class="st41" width="86" height="54.3"/>
			<polygon class="st42" points="113.2,781.3 126.6,772.5 206.6,772.5 199.2,781.3 			"/>
			<polygon class="st44" points="206.6,814.3 199.2,814.3 199.2,835.5 			"/>
			<path class="st43" d="M134.9,815.7h-4.8c-3,0-5.5-2.5-5.5-5.5v-4.8c0-3,2.5-5.5,5.5-5.5h4.8c3,0,5.5,2.5,5.5,5.5v4.8
				C140.4,813.3,137.9,815.7,134.9,815.7z"/>
			<path class="st43" d="M179.5,815.7h-4.8c-3,0-5.5-2.5-5.5-5.5v-4.8c0-3,2.5-5.5,5.5-5.5h4.8c3,0,5.5,2.5,5.5,5.5v4.8
				C185,813.3,182.5,815.7,179.5,815.7z"/>
		</g>
		<g id="door1">
			<rect x="395.8" y="768.5" class="st45" width="43.9" height="45.8"/>
			<polygon class="st45" points="392.2,782.9 395.8,782.8 395.8,814.3 392.2,814.3 			"/>
			<path class="st4" d="M386.1,777v58.4h46.7V777H386.1z M426.8,831.6h-34.6v-48.7l34.6-0.1V831.6z"/>
			<rect x="392.2" y="814.3" class="st46" width="34.6" height="17.4"/>
			<path class="st47" d="M409,828.7"/>
			<rect id="doorLeft" x="395.8" y="785.1" class="st4" width="13" height="44.7"/>
			<rect id="doorRight" x="409.3" y="785.1" class="st4" width="12.9" height="44.7"/>
			<g id="button">
				<rect x="428.2" y="800.3" class="st48" width="2.8" height="5.7"/>
				<circle class="st4" cx="429.6" cy="802" r="0.8"/>
				<circle class="st4" cx="429.6" cy="804.4" r="0.8"/>
			</g>
			<path class="st48" d="M412.9,781.7h-7.3c-0.6,0-1.1-0.5-1.1-1.1v-0.8c0-0.6,0.5-1.1,1.1-1.1h7.3c0.6,0,1.1,0.5,1.1,1.1v0.8
				C414,781.2,413.5,781.7,412.9,781.7z"/>
			<text transform="matrix(1 0 0 1 408.4565 780.7189)" class="st4 st49 st50">-1</text>
			<polygon class="st46" points="439.6,814.3 432.8,835.4 432.8,814.2 			"/>
			<polygon class="st51" points="386.1,777 393,768.5 439.6,768.5 432.8,777 			"/>
		</g>
	</g>
</g>
<g id="people">
	<g id="aliens">
		<g id="alien5">
			<path class="st52" d="M841.3,936.3h5.4l1.4-7c2.5-0.4,4.5-2.5,4.5-5.2c0,0.3,0,0.6-0.1,0.9h-1.7v3c-0.7,0.6-1.5,1.1-2.5,1.2
				c-0.1,0-0.1,0-0.1,0V925v-1.7v-0.9h-3.5v0.9c0,0.5-0.4,0.9-0.9,0.9s-0.9-0.4-0.9-0.9v-0.9h-3.5h-3.5v0.9c0,0.5-0.4,0.9-0.9,0.9
				c-0.5,0-0.9-0.4-0.9-0.9v-0.9h-3.5v0.9v1.7v4.2c0,0,0,0-0.1,0c-1-0.2-1.8-0.6-2.5-1.2v-3h-1.7c0-0.3-0.1-0.6-0.1-0.9
				c0,2.6,2,4.8,4.5,5.2l1.4,7h5.4c0.5,0,0.9,0.4,0.9,0.9v-11.3c0-0.5,0.4-0.9,0.9-0.9c0.5,0,0.9,0.4,0.9,0.9v11.3
				C840.4,936.7,840.8,936.3,841.3,936.3z"/>
			<path class="st52" d="M828.3,915.4c0-1.4,1.2-2.6,2.6-2.6l0,0v4.5h3.5c0-0.5,0.4-0.9,0.9-0.9c0.5,0,0.9,0.4,0.9,0.9h3.5h3.5
				c0-0.5,0.4-0.9,0.9-0.9s0.9,0.4,0.9,0.9h3.5v-4.5l0,0c1.4,0,2.6,1.2,2.6,2.6v7.9h1.7v-10.4c0-3.4-2.7-6.1-6.1-6.1h-0.9v1.7
				c0,1.9-1.6,3.5-3.5,3.5h-2.6h-2.6c-1.9,0-3.5-1.6-3.5-3.5v-1.7h-0.9c-3.4,0-6.1,2.7-6.1,6.1v10.4h1.7V915.4z M837.8,913.7h3.5
				c0.5,0,0.9,0.4,0.9,0.9s-0.4,0.9-0.9,0.9h-3.5c-0.5,0-0.9-0.4-0.9-0.9S837.3,913.7,837.8,913.7z"/>
			<path class="st53" d="M850.8,915.4c0-1.4-1.2-2.6-2.6-2.6l0,0v4.5h0.8c0.1,0,0.1,0,0.1,0.1v0.8v3.5v0.8c0,0.1,0,0.1-0.1,0.1h-0.8
				v0.9h2.6V915.4z"/>
			<path class="st53" d="M848.2,929.3c0,0,0,0,0.1,0c1-0.2,1.8-0.6,2.5-1.2v-3h-2.6V929.3z"/>
			<path class="st53" d="M839.5,909.4v2.6h2.6c1.9,0,3.5-1.6,3.5-3.5v-1.7v-1.4C844.1,907.9,841.9,909.4,839.5,909.4z"/>
			<path class="st54" d="M836.9,912h2.6v-2.6c-2.4,0-4.5-1.5-6.1-4v1.4v1.7C833.5,910.5,835,912,836.9,912z"/>
			<path class="st55" d="M846.4,899.1c0.1,0.2,0.1,0.5,0.1,0.7c0,1.4-1.2,2.6-2.6,2.6c-0.7,0-1.4-0.3-1.8-0.7
				c-0.6,0.5-1.3,0.7-2.1,0.7h-0.4v2.1v0.5h0.9c0.5,0,0.9,0.4,0.9,0.9s-0.4,0.9-0.9,0.9h-0.9v2.6c2.4,0,4.5-1.5,6.1-4
				c1.6-2.5,2.6-6,2.6-9.9c0,0.9-0.1,1.8-0.2,2.7C847.5,898.6,847,898.9,846.4,899.1z"/>
			<path class="st56" d="M839.5,909.4v-2.6h-0.9c-0.5,0-0.9-0.4-0.9-0.9s0.4-0.9,0.9-0.9h0.9v-0.5v-2.1h-0.4c-0.8,0-1.5-0.3-2.1-0.7
				c-0.5,0.5-1.1,0.7-1.8,0.7c-1.4,0-2.6-1.2-2.6-2.6c0-0.3,0-0.5,0.1-0.7c-0.6-0.3-1.2-0.6-1.7-1c-0.1-0.9-0.2-1.7-0.2-2.7
				c0,3.9,1,7.4,2.6,9.9C835,907.9,837.2,909.4,839.5,909.4z"/>
			<path class="st55" d="M837.8,936.3h-5.4H830c-2.4,0-4.3,1.9-4.3,4.3c0-0.3,0-0.6,0.1-0.9h12.9v-2.6
				C838.7,936.7,838.3,936.3,837.8,936.3z"/>
			<path class="st54" d="M837.8,915.5h3.5c0.5,0,0.9-0.4,0.9-0.9s-0.4-0.9-0.9-0.9h-3.5c-0.5,0-0.9,0.4-0.9,0.9
				S837.3,915.5,837.8,915.5z"/>
			<path class="st57" d="M841.3,905.9c0-0.5-0.4-0.9-0.9-0.9h-0.9h-0.9c-0.5,0-0.9,0.4-0.9,0.9s0.4,0.9,0.9,0.9h0.9h0.9
				C840.9,906.8,841.3,906.4,841.3,905.9z"/>
			<path class="st52" d="M836.6,901.3c-0.7-0.8-1.8-1.3-2.9-1.7c-0.3-0.1-0.7-0.3-1-0.4c-0.1,0.2-0.1,0.5-0.1,0.7
				c0,1.4,1.2,2.6,2.6,2.6c0.7,0,1.4-0.3,1.8-0.7C836.9,901.6,836.7,901.4,836.6,901.3z"/>
			<path class="st52" d="M846.5,899.9c0-0.3,0-0.5-0.1-0.7c-0.3,0.2-0.7,0.3-1,0.4c-1.2,0.5-2.3,0.9-2.9,1.7
				c-0.1,0.2-0.3,0.3-0.4,0.4c0.5,0.5,1.1,0.7,1.8,0.7C845.3,902.5,846.5,901.3,846.5,899.9z"/>
			<path class="st58" d="M839.5,902.5h0.4c0.8,0,1.6-0.3,2.1-0.7c0.2-0.1,0.3-0.3,0.4-0.4c0.7-0.8,1.8-1.3,2.9-1.7
				c0.3-0.1,0.7-0.3,1-0.4c0.6-0.3,1.2-0.6,1.7-1c0.1-0.9,0.2-1.7,0.2-2.7c0-4.8-3.9-8.7-8.7-8.7v7.8V902.5z"/>
			<path class="st55" d="M832.7,899.1c0.3,0.2,0.7,0.3,1,0.4c1.2,0.5,2.3,0.9,2.9,1.7c0.1,0.2,0.3,0.3,0.4,0.4
				c0.6,0.5,1.3,0.7,2.1,0.7h0.4v-7.8v-7.8c-4.8,0-8.7,3.9-8.7,8.7c0,0.9,0.1,1.8,0.2,2.7C831.5,898.6,832.1,898.9,832.7,899.1z"/>
			<rect x="848.2" y="923.3" class="st56" width="2.6" height="1.7"/>
			<path class="st55" d="M850.8,925h1.7c0-0.3,0.1-0.6,0.1-0.9v-0.9h-1.7V925z"/>
			<path class="st53" d="M830,922.3v-5c0-0.1,0-0.1,0.1-0.1h0.8v-4.5l0,0c-1.4,0-2.6,1.2-2.6,2.6v7.9h2.6v-0.9h-0.8
				C830,922.4,830,922.4,830,922.3z"/>
			<path class="st53" d="M828.3,928c0.7,0.6,1.5,1.1,2.5,1.2c0.1,0,0.1,0,0.1,0V925h-2.6V928z"/>
			<rect x="828.3" y="923.3" class="st56" width="2.6" height="1.7"/>
			<path class="st55" d="M828.3,925v-1.7h-1.7v0.9c0,0.3,0,0.6,0.1,0.9H828.3z"/>
			<path class="st56" d="M825.6,940.7v0.9c0,0.5,0.4,0.9,0.9,0.9h10.4c1,0,1.7-0.8,1.7-1.7v-0.9h-12.9
				C825.7,940.1,825.6,940.4,825.6,940.7z"/>
			<path class="st55" d="M853.4,940.7c0-2.4-1.9-4.3-4.3-4.3h-2.4h-5.4c-0.5,0-0.9,0.4-0.9,0.9v2.6h12.9
				C853.4,940.1,853.4,940.4,853.4,940.7z"/>
			<path class="st56" d="M853.3,939.8h-12.9v0.9c0,1,0.8,1.7,1.7,1.7h10.4c0.5,0,0.9-0.4,0.9-0.9v-0.9
				C853.4,940.4,853.4,940.1,853.3,939.8z"/>
			<rect x="836.1" y="917.2" class="st56" width="3.5" height="5.2"/>
			<path class="st56" d="M830.9,917.2h-0.8c-0.1,0-0.1,0-0.1,0.1v5c0,0.1,0,0.1,0.1,0.1h0.8h3.5v-5.2H830.9z"/>
			<path class="st56" d="M849.1,918.1v-0.8c0-0.1,0-0.1-0.1-0.1h-0.8C848.7,917.2,849.1,917.6,849.1,918.1z"/>
			<path class="st56" d="M849.1,922.3v-0.8c0,0.5-0.4,0.9-0.9,0.9h0.8C849,922.4,849.1,922.4,849.1,922.3z"/>
			<rect x="839.5" y="917.2" class="st55" width="3.5" height="5.2"/>
			<path class="st55" d="M849.1,921.6v-3.5c0-0.5-0.4-0.9-0.9-0.9h-3.5v5.2h3.5C848.7,922.4,849.1,922,849.1,921.6z"/>
			<path class="st54" d="M835.2,916.4c-0.5,0-0.9,0.4-0.9,0.9v5.2v0.9c0,0.5,0.4,0.9,0.9,0.9c0.5,0,0.9-0.4,0.9-0.9v-0.9v-5.2
				C836.1,916.7,835.7,916.4,835.2,916.4z"/>
			<path class="st53" d="M843.9,916.4c-0.5,0-0.9,0.4-0.9,0.9v5.2v0.9c0,0.5,0.4,0.9,0.9,0.9s0.9-0.4,0.9-0.9v-0.9v-5.2
				C844.7,916.7,844.4,916.4,843.9,916.4z"/>
		</g>
		<g id="alien4">
			<path class="st52" d="M370,826.1h5.4l1.4-7c2.5-0.4,4.5-2.5,4.5-5.2c0,0.3,0,0.6-0.1,0.9h-1.7v3c-0.7,0.6-1.5,1.1-2.5,1.2
				c-0.1,0-0.1,0-0.1,0v-4.2v-1.7v-0.9h-3.5v0.9c0,0.5-0.4,0.9-0.9,0.9s-0.9-0.4-0.9-0.9v-0.9h-3.5h-3.5v0.9c0,0.5-0.4,0.9-0.9,0.9
				s-0.9-0.4-0.9-0.9v-0.9h-3.5v0.9v1.7v4.2c0,0,0,0-0.1,0c-1-0.2-1.8-0.6-2.5-1.2v-3h-1.7c0-0.3-0.1-0.6-0.1-0.9
				c0,2.6,2,4.8,4.5,5.2l1.4,7h5.4c0.5,0,0.9,0.4,0.9,0.9v-11.3c0-0.5,0.4-0.9,0.9-0.9c0.5,0,0.9,0.4,0.9,0.9V827
				C369.2,826.5,369.6,826.1,370,826.1z"/>
			<path class="st52" d="M357,805.2c0-1.4,1.2-2.6,2.6-2.6l0,0v4.5h3.5c0-0.5,0.4-0.9,0.9-0.9s0.9,0.4,0.9,0.9h3.5h3.5
				c0-0.5,0.4-0.9,0.9-0.9s0.9,0.4,0.9,0.9h3.5v-4.5l0,0c1.4,0,2.6,1.2,2.6,2.6v7.9h1.7v-10.4c0-3.4-2.7-6.1-6.1-6.1h-0.9v1.7
				c0,1.9-1.6,3.5-3.5,3.5h-2.6h-2.6c-1.9,0-3.5-1.6-3.5-3.5v-1.7h-0.9c-3.4,0-6.1,2.7-6.1,6.1v10.4h1.7V805.2z M366.6,803.6h3.5
				c0.5,0,0.9,0.4,0.9,0.9s-0.4,0.9-0.9,0.9h-3.5c-0.5,0-0.9-0.4-0.9-0.9S366.1,803.6,366.6,803.6z"/>
			<path class="st53" d="M379.6,805.2c0-1.4-1.2-2.6-2.6-2.6l0,0v4.5h0.8c0.1,0,0.1,0,0.1,0.1v0.8v3.5v0.8c0,0.1,0,0.1-0.1,0.1H377
				v0.9h2.6V805.2z"/>
			<path class="st53" d="M377,819.1c0,0,0,0,0.1,0c1-0.2,1.8-0.6,2.5-1.2v-3H377V819.1z"/>
			<path class="st53" d="M368.3,799.2v2.6h2.6c1.9,0,3.5-1.6,3.5-3.5v-1.7v-1.4C372.8,797.7,370.7,799.2,368.3,799.2z"/>
			<path class="st54" d="M365.7,801.8h2.6v-2.6c-2.4,0-4.5-1.5-6.1-4v1.4v1.7C362.2,800.3,363.8,801.8,365.7,801.8z"/>
			<path class="st55" d="M375.1,789c0.1,0.2,0.1,0.5,0.1,0.7c0,1.4-1.2,2.6-2.6,2.6c-0.7,0-1.4-0.3-1.8-0.7
				c-0.6,0.5-1.3,0.7-2.1,0.7h-0.4v2.1v0.5h0.9c0.5,0,0.9,0.4,0.9,0.9s-0.4,0.9-0.9,0.9h-0.9v2.6c2.4,0,4.5-1.5,6.1-4
				c1.6-2.5,2.6-6,2.6-9.9c0,0.9-0.1,1.8-0.2,2.7C376.3,788.4,375.7,788.7,375.1,789z"/>
			<path class="st56" d="M368.3,799.2v-2.6h-0.9c-0.5,0-0.9-0.4-0.9-0.9s0.4-0.9,0.9-0.9h0.9v-0.5v-2.1h-0.4c-0.8,0-1.5-0.3-2.1-0.7
				c-0.5,0.5-1.1,0.7-1.8,0.7c-1.4,0-2.6-1.2-2.6-2.6c0-0.3,0-0.5,0.1-0.7c-0.6-0.3-1.2-0.6-1.7-1c-0.1-0.9-0.2-1.7-0.2-2.7
				c0,3.9,1,7.4,2.6,9.9C363.8,797.7,365.9,799.2,368.3,799.2z"/>
			<path class="st55" d="M366.6,826.1h-5.4h-2.4c-2.4,0-4.3,1.9-4.3,4.3c0-0.3,0-0.6,0.1-0.9h12.9V827
				C367.4,826.5,367,826.1,366.6,826.1z"/>
			<path class="st54" d="M366.6,805.3h3.5c0.5,0,0.9-0.4,0.9-0.9s-0.4-0.9-0.9-0.9h-3.5c-0.5,0-0.9,0.4-0.9,0.9
				S366.1,805.3,366.6,805.3z"/>
			<path class="st57" d="M370,795.8c0-0.5-0.4-0.9-0.9-0.9h-0.9h-0.9c-0.5,0-0.9,0.4-0.9,0.9s0.4,0.9,0.9,0.9h0.9h0.9
				C369.7,796.6,370,796.2,370,795.8z"/>
			<path class="st52" d="M365.4,791.1c-0.7-0.8-1.8-1.3-2.9-1.7c-0.3-0.1-0.7-0.3-1-0.4c-0.1,0.2-0.1,0.5-0.1,0.7
				c0,1.4,1.2,2.6,2.6,2.6c0.7,0,1.4-0.3,1.8-0.7C365.6,791.4,365.5,791.3,365.4,791.1z"/>
			<path class="st52" d="M375.3,789.7c0-0.3,0-0.5-0.1-0.7c-0.3,0.2-0.7,0.3-1,0.4c-1.2,0.5-2.3,0.9-2.9,1.7
				c-0.1,0.2-0.3,0.3-0.4,0.4c0.5,0.5,1.1,0.7,1.8,0.7C374.1,792.3,375.3,791.1,375.3,789.7z"/>
			<path class="st58" d="M368.3,792.3h0.4c0.8,0,1.6-0.3,2.1-0.7c0.2-0.1,0.3-0.3,0.4-0.4c0.7-0.8,1.8-1.3,2.9-1.7
				c0.3-0.1,0.7-0.3,1-0.4c0.6-0.3,1.2-0.6,1.7-1c0.1-0.9,0.2-1.7,0.2-2.7c0-4.8-3.9-8.7-8.7-8.7v7.8V792.3z"/>
			<path class="st55" d="M361.5,789c0.3,0.2,0.7,0.3,1,0.4c1.2,0.5,2.3,0.9,2.9,1.7c0.1,0.2,0.3,0.3,0.4,0.4
				c0.6,0.5,1.3,0.7,2.1,0.7h0.4v-7.8v-7.8c-4.8,0-8.7,3.9-8.7,8.7c0,0.9,0.1,1.8,0.2,2.7C360.3,788.4,360.9,788.7,361.5,789z"/>
			<rect x="377" y="813.1" class="st56" width="2.6" height="1.7"/>
			<path class="st55" d="M379.6,814.9h1.7c0-0.3,0.1-0.6,0.1-0.9v-0.9h-1.7V814.9z"/>
			<path class="st53" d="M358.8,812.1v-5c0-0.1,0-0.1,0.1-0.1h0.8v-4.5l0,0c-1.4,0-2.6,1.2-2.6,2.6v7.9h2.6v-0.9h-0.8
				C358.8,812.3,358.8,812.2,358.8,812.1z"/>
			<path class="st53" d="M357,817.8c0.7,0.6,1.5,1.1,2.5,1.2c0.1,0,0.1,0,0.1,0v-4.2H357V817.8z"/>
			<rect x="357" y="813.1" class="st56" width="2.6" height="1.7"/>
			<path class="st55" d="M357,814.9v-1.7h-1.7v0.9c0,0.3,0,0.6,0.1,0.9H357z"/>
			<path class="st56" d="M354.4,830.5v0.9c0,0.5,0.4,0.9,0.9,0.9h10.4c1,0,1.7-0.8,1.7-1.7v-0.9h-12.9
				C354.4,829.9,354.4,830.2,354.4,830.5z"/>
			<path class="st55" d="M382.2,830.5c0-2.4-1.9-4.3-4.3-4.3h-2.4H370c-0.5,0-0.9,0.4-0.9,0.9v2.6h12.9
				C382.2,829.9,382.2,830.2,382.2,830.5z"/>
			<path class="st56" d="M382.1,829.6h-12.9v0.9c0,1,0.8,1.7,1.7,1.7h10.4c0.5,0,0.9-0.4,0.9-0.9v-0.9
				C382.2,830.2,382.2,829.9,382.1,829.6z"/>
			<rect x="364.8" y="807" class="st56" width="3.5" height="5.2"/>
			<path class="st56" d="M359.6,807h-0.8c-0.1,0-0.1,0-0.1,0.1v5c0,0.1,0,0.1,0.1,0.1h0.8h3.5V807H359.6z"/>
			<path class="st56" d="M377.9,807.9v-0.8c0-0.1,0-0.1-0.1-0.1H377C377.5,807,377.9,807.4,377.9,807.9z"/>
			<path class="st56" d="M377.9,812.1v-0.8c0,0.5-0.4,0.9-0.9,0.9h0.8C377.8,812.3,377.9,812.2,377.9,812.1z"/>
			<rect x="368.3" y="807" class="st55" width="3.5" height="5.2"/>
			<path class="st55" d="M377.9,811.4v-3.5c0-0.5-0.4-0.9-0.9-0.9h-3.5v5.2h3.5C377.5,812.3,377.9,811.9,377.9,811.4z"/>
			<path class="st54" d="M364,806.2c-0.5,0-0.9,0.4-0.9,0.9v5.2v0.9c0,0.5,0.4,0.9,0.9,0.9s0.9-0.4,0.9-0.9v-0.9V807
				C364.8,806.6,364.4,806.2,364,806.2z"/>
			<path class="st53" d="M372.6,806.2c-0.5,0-0.9,0.4-0.9,0.9v5.2v0.9c0,0.5,0.4,0.9,0.9,0.9s0.9-0.4,0.9-0.9v-0.9V807
				C373.5,806.6,373.1,806.2,372.6,806.2z"/>
		</g>
		<g id="alien3">
			<path class="st52" d="M413.4,587h5.4l1.4-7c2.5-0.4,4.5-2.5,4.5-5.2c0,0.3,0,0.6-0.1,0.9H423v3c-0.7,0.6-1.5,1.1-2.5,1.2
				c-0.1,0-0.1,0-0.1,0v-4.2V574v-0.9h-3.5v0.9c0,0.5-0.4,0.9-0.9,0.9c-0.5,0-0.9-0.4-0.9-0.9v-0.9h-3.5h-3.5v0.9
				c0,0.5-0.4,0.9-0.9,0.9s-0.9-0.4-0.9-0.9v-0.9H403v0.9v1.7v4.2c0,0,0,0-0.1,0c-1-0.2-1.8-0.6-2.5-1.2v-3h-1.7
				c0-0.3-0.1-0.6-0.1-0.9c0,2.6,2,4.8,4.5,5.2l1.4,7h5.4c0.5,0,0.9,0.4,0.9,0.9v-11.3c0-0.5,0.4-0.9,0.9-0.9c0.5,0,0.9,0.4,0.9,0.9
				v11.3C412.6,587.4,413,587,413.4,587z"/>
			<path class="st52" d="M400.4,566.1c0-1.4,1.2-2.6,2.6-2.6l0,0v4.5h3.5c0-0.5,0.4-0.9,0.9-0.9s0.9,0.4,0.9,0.9h3.5h3.5
				c0-0.5,0.4-0.9,0.9-0.9c0.5,0,0.9,0.4,0.9,0.9h3.5v-4.5l0,0c1.4,0,2.6,1.2,2.6,2.6v7.9h1.7v-10.4c0-3.4-2.7-6.1-6.1-6.1h-0.9v1.7
				c0,1.9-1.6,3.5-3.5,3.5h-2.6h-2.6c-1.9,0-3.5-1.6-3.5-3.5v-1.7h-0.9c-3.4,0-6.1,2.7-6.1,6.1V574h1.7V566.1z M410,564.5h3.5
				c0.5,0,0.9,0.4,0.9,0.9s-0.4,0.9-0.9,0.9H410c-0.5,0-0.9-0.4-0.9-0.9S409.5,564.5,410,564.5z"/>
			<path class="st53" d="M423,566.1c0-1.4-1.2-2.6-2.6-2.6l0,0v4.5h0.8c0.1,0,0.1,0,0.1,0.1v0.8v3.5v0.8c0,0.1,0,0.1-0.1,0.1h-0.8
				v0.9h2.6V566.1z"/>
			<path class="st53" d="M420.4,580c0,0,0,0,0.1,0c1-0.2,1.8-0.6,2.5-1.2v-3h-2.6V580z"/>
			<path class="st53" d="M411.7,560.1v2.6h2.6c1.9,0,3.5-1.6,3.5-3.5v-1.7v-1.4C416.2,558.6,414.1,560.1,411.7,560.1z"/>
			<path class="st54" d="M409.1,562.7h2.6v-2.6c-2.4,0-4.5-1.5-6.1-4v1.4v1.7C405.6,561.2,407.2,562.7,409.1,562.7z"/>
			<path class="st55" d="M418.6,549.9c0.1,0.2,0.1,0.5,0.1,0.7c0,1.4-1.2,2.6-2.6,2.6c-0.7,0-1.4-0.3-1.8-0.7
				c-0.6,0.5-1.3,0.7-2.1,0.7h-0.4v2.1v0.5h0.9c0.5,0,0.9,0.4,0.9,0.9s-0.4,0.9-0.9,0.9h-0.9v2.6c2.4,0,4.5-1.5,6.1-4
				c1.6-2.5,2.6-6,2.6-9.9c0,0.9-0.1,1.8-0.2,2.7C419.7,549.3,419.1,549.6,418.6,549.9z"/>
			<path class="st56" d="M411.7,560.1v-2.6h-0.9c-0.5,0-0.9-0.4-0.9-0.9s0.4-0.9,0.9-0.9h0.9v-0.5v-2.1h-0.4c-0.8,0-1.5-0.3-2.1-0.7
				c-0.5,0.5-1.1,0.7-1.8,0.7c-1.4,0-2.6-1.2-2.6-2.6c0-0.3,0-0.5,0.1-0.7c-0.6-0.3-1.2-0.6-1.7-1c-0.1-0.9-0.2-1.7-0.2-2.7
				c0,3.9,1,7.4,2.6,9.9C407.2,558.6,409.3,560.1,411.7,560.1z"/>
			<path class="st55" d="M410,587h-5.4h-2.4c-2.4,0-4.3,1.9-4.3,4.3c0-0.3,0-0.6,0.1-0.9h12.9v-2.6C410.8,587.4,410.5,587,410,587z"
				/>
			<path class="st54" d="M410,566.2h3.5c0.5,0,0.9-0.4,0.9-0.9s-0.4-0.9-0.9-0.9H410c-0.5,0-0.9,0.4-0.9,0.9S409.5,566.2,410,566.2z
				"/>
			<path class="st57" d="M413.4,556.7c0-0.5-0.4-0.9-0.9-0.9h-0.9h-0.9c-0.5,0-0.9,0.4-0.9,0.9s0.4,0.9,0.9,0.9h0.9h0.9
				C413.1,557.5,413.4,557.1,413.4,556.7z"/>
			<path class="st52" d="M408.8,552c-0.7-0.8-1.8-1.3-2.9-1.7c-0.3-0.1-0.7-0.3-1-0.4c-0.1,0.2-0.1,0.5-0.1,0.7
				c0,1.4,1.2,2.6,2.6,2.6c0.7,0,1.4-0.3,1.8-0.7C409,552.3,408.9,552.2,408.8,552z"/>
			<path class="st52" d="M418.7,550.6c0-0.3,0-0.5-0.1-0.7c-0.3,0.2-0.7,0.3-1,0.4c-1.2,0.5-2.3,0.9-2.9,1.7
				c-0.1,0.2-0.3,0.3-0.4,0.4c0.5,0.5,1.1,0.7,1.8,0.7C417.5,553.2,418.7,552,418.7,550.6z"/>
			<path class="st58" d="M411.7,553.2h0.4c0.8,0,1.6-0.3,2.1-0.7c0.2-0.1,0.3-0.3,0.4-0.4c0.7-0.8,1.8-1.3,2.9-1.7
				c0.3-0.1,0.7-0.3,1-0.4c0.6-0.3,1.2-0.6,1.7-1c0.1-0.9,0.2-1.7,0.2-2.7c0-4.8-3.9-8.7-8.7-8.7v7.8V553.2z"/>
			<path class="st55" d="M404.9,549.9c0.3,0.2,0.7,0.3,1,0.4c1.2,0.5,2.3,0.9,2.9,1.7c0.1,0.2,0.3,0.3,0.4,0.4
				c0.6,0.5,1.3,0.7,2.1,0.7h0.4v-7.8v-7.8c-4.8,0-8.7,3.9-8.7,8.7c0,0.9,0.1,1.8,0.2,2.7C403.7,549.3,404.3,549.6,404.9,549.9z"/>
			<rect x="420.4" y="574" class="st56" width="2.6" height="1.7"/>
			<path class="st55" d="M423,575.8h1.7c0-0.3,0.1-0.6,0.1-0.9V574H423V575.8z"/>
			<path class="st53" d="M402.2,573v-5c0-0.1,0-0.1,0.1-0.1h0.8v-4.5l0,0c-1.4,0-2.6,1.2-2.6,2.6v7.9h2.6v-0.9h-0.8
				C402.2,573.2,402.2,573.1,402.2,573z"/>
			<path class="st53" d="M400.4,578.7c0.7,0.6,1.5,1.1,2.5,1.2c0.1,0,0.1,0,0.1,0v-4.2h-2.6V578.7z"/>
			<rect x="400.4" y="574" class="st56" width="2.6" height="1.7"/>
			<path class="st55" d="M400.4,575.8V574h-1.7v0.9c0,0.3,0,0.6,0.1,0.9H400.4z"/>
			<path class="st56" d="M397.8,591.4v0.9c0,0.5,0.4,0.9,0.9,0.9h10.4c1,0,1.7-0.8,1.7-1.7v-0.9h-12.9
				C397.8,590.8,397.8,591.1,397.8,591.4z"/>
			<path class="st55" d="M425.6,591.4c0-2.4-1.9-4.3-4.3-4.3h-2.4h-5.4c-0.5,0-0.9,0.4-0.9,0.9v2.6h12.9
				C425.6,590.8,425.6,591.1,425.6,591.4z"/>
			<path class="st56" d="M425.5,590.5h-12.9v0.9c0,1,0.8,1.7,1.7,1.7h10.4c0.5,0,0.9-0.4,0.9-0.9v-0.9
				C425.6,591.1,425.6,590.8,425.5,590.5z"/>
			<rect x="408.2" y="567.9" class="st56" width="3.5" height="5.2"/>
			<path class="st56" d="M403,567.9h-0.8c-0.1,0-0.1,0-0.1,0.1v5c0,0.1,0,0.1,0.1,0.1h0.8h3.5v-5.2H403z"/>
			<path class="st56" d="M421.3,568.8v-0.8c0-0.1,0-0.1-0.1-0.1h-0.8C420.9,567.9,421.3,568.3,421.3,568.8z"/>
			<path class="st56" d="M421.3,573v-0.8c0,0.5-0.4,0.9-0.9,0.9h0.8C421.2,573.2,421.3,573.1,421.3,573z"/>
			<rect x="411.7" y="567.9" class="st55" width="3.5" height="5.2"/>
			<path class="st55" d="M421.3,572.3v-3.5c0-0.5-0.4-0.9-0.9-0.9h-3.5v5.2h3.5C420.9,573.2,421.3,572.8,421.3,572.3z"/>
			<path class="st54" d="M407.4,567.1c-0.5,0-0.9,0.4-0.9,0.9v5.2v0.9c0,0.5,0.4,0.9,0.9,0.9s0.9-0.4,0.9-0.9v-0.9v-5.2
				C408.2,567.5,407.8,567.1,407.4,567.1z"/>
			<path class="st53" d="M416.1,567.1c-0.5,0-0.9,0.4-0.9,0.9v5.2v0.9c0,0.5,0.4,0.9,0.9,0.9c0.5,0,0.9-0.4,0.9-0.9v-0.9v-5.2
				C416.9,567.5,416.5,567.1,416.1,567.1z"/>
		</g>
		<g id="alien2">
			<path class="st52" d="M511.4,485.5h5.4l1.4-7c2.5-0.4,4.5-2.5,4.5-5.2c0,0.3,0,0.6-0.1,0.9H521v3c-0.7,0.6-1.5,1.1-2.5,1.2
				c-0.1,0-0.1,0-0.1,0v-4.2v-1.7v-0.9h-3.5v0.9c0,0.5-0.4,0.9-0.9,0.9c-0.5,0-0.9-0.4-0.9-0.9v-0.9h-3.5h-3.5v0.9
				c0,0.5-0.4,0.9-0.9,0.9s-0.9-0.4-0.9-0.9v-0.9H501v0.9v1.7v4.2c0,0,0,0-0.1,0c-1-0.2-1.8-0.6-2.5-1.2v-3h-1.7
				c0-0.3-0.1-0.6-0.1-0.9c0,2.6,2,4.8,4.5,5.2l1.4,7h5.4c0.5,0,0.9,0.4,0.9,0.9v-11.3c0-0.5,0.4-0.9,0.9-0.9c0.5,0,0.9,0.4,0.9,0.9
				v11.3C510.6,485.9,511,485.5,511.4,485.5z"/>
			<path class="st52" d="M498.4,464.6c0-1.4,1.2-2.6,2.6-2.6l0,0v4.5h3.5c0-0.5,0.4-0.9,0.9-0.9s0.9,0.4,0.9,0.9h3.5h3.5
				c0-0.5,0.4-0.9,0.9-0.9c0.5,0,0.9,0.4,0.9,0.9h3.5v-4.5l0,0c1.4,0,2.6,1.2,2.6,2.6v7.9h1.7v-10.4c0-3.4-2.7-6.1-6.1-6.1h-0.9v1.7
				c0,1.9-1.6,3.5-3.5,3.5h-2.6h-2.6c-1.9,0-3.5-1.6-3.5-3.5V456h-0.9c-3.4,0-6.1,2.7-6.1,6.1v10.4h1.7V464.6z M508,462.9h3.5
				c0.5,0,0.9,0.4,0.9,0.9c0,0.5-0.4,0.9-0.9,0.9H508c-0.5,0-0.9-0.4-0.9-0.9C507.1,463.3,507.5,462.9,508,462.9z"/>
			<path class="st53" d="M521,464.6c0-1.4-1.2-2.6-2.6-2.6l0,0v4.5h0.8c0.1,0,0.1,0,0.1,0.1v0.8v3.5v0.8c0,0.1,0,0.1-0.1,0.1h-0.8
				v0.9h2.6V464.6z"/>
			<path class="st53" d="M518.4,478.4c0,0,0,0,0.1,0c1-0.2,1.8-0.6,2.5-1.2v-3h-2.6V478.4z"/>
			<path class="st53" d="M509.7,458.6v2.6h2.6c1.9,0,3.5-1.6,3.5-3.5V456v-1.4C514.2,457.1,512.1,458.6,509.7,458.6z"/>
			<path class="st54" d="M507.1,461.2h2.6v-2.6c-2.4,0-4.5-1.5-6.1-4v1.4v1.7C503.6,459.6,505.2,461.2,507.1,461.2z"/>
			<path class="st55" d="M516.6,448.3c0.1,0.2,0.1,0.5,0.1,0.7c0,1.4-1.2,2.6-2.6,2.6c-0.7,0-1.4-0.3-1.8-0.7
				c-0.6,0.5-1.3,0.7-2.1,0.7h-0.4v2.1v0.5h0.9c0.5,0,0.9,0.4,0.9,0.9s-0.4,0.9-0.9,0.9h-0.9v2.6c2.4,0,4.5-1.5,6.1-4
				c1.6-2.5,2.6-6,2.6-9.9c0,0.9-0.1,1.8-0.2,2.7C517.7,447.8,517.1,448.1,516.6,448.3z"/>
			<path class="st56" d="M509.7,458.6V456h-0.9c-0.5,0-0.9-0.4-0.9-0.9s0.4-0.9,0.9-0.9h0.9v-0.5v-2.1h-0.4c-0.8,0-1.5-0.3-2.1-0.7
				c-0.5,0.5-1.1,0.7-1.8,0.7c-1.4,0-2.6-1.2-2.6-2.6c0-0.3,0-0.5,0.1-0.7c-0.6-0.3-1.2-0.6-1.7-1c-0.1-0.9-0.2-1.7-0.2-2.7
				c0,3.9,1,7.4,2.6,9.9C505.2,457.1,507.3,458.6,509.7,458.6z"/>
			<path class="st55" d="M508,485.5h-5.4h-2.4c-2.4,0-4.3,1.9-4.3,4.3c0-0.3,0-0.6,0.1-0.9h12.9v-2.6
				C508.8,485.9,508.5,485.5,508,485.5z"/>
			<path class="st54" d="M508,464.7h3.5c0.5,0,0.9-0.4,0.9-0.9c0-0.5-0.4-0.9-0.9-0.9H508c-0.5,0-0.9,0.4-0.9,0.9
				C507.1,464.3,507.5,464.7,508,464.7z"/>
			<path class="st57" d="M511.4,455.1c0-0.5-0.4-0.9-0.9-0.9h-0.9h-0.9c-0.5,0-0.9,0.4-0.9,0.9s0.4,0.9,0.9,0.9h0.9h0.9
				C511.1,456,511.4,455.6,511.4,455.1z"/>
			<path class="st52" d="M506.8,450.5c-0.7-0.8-1.8-1.3-2.9-1.7c-0.3-0.1-0.7-0.3-1-0.4c-0.1,0.2-0.1,0.5-0.1,0.7
				c0,1.4,1.2,2.6,2.6,2.6c0.7,0,1.4-0.3,1.8-0.7C507,450.8,506.9,450.6,506.8,450.5z"/>
			<path class="st52" d="M516.7,449c0-0.3,0-0.5-0.1-0.7c-0.3,0.2-0.7,0.3-1,0.4c-1.2,0.5-2.3,0.9-2.9,1.7c-0.1,0.2-0.3,0.3-0.4,0.4
				c0.5,0.5,1.1,0.7,1.8,0.7C515.5,451.6,516.7,450.5,516.7,449z"/>
			<path class="st58" d="M509.7,451.6h0.4c0.8,0,1.6-0.3,2.1-0.7c0.2-0.1,0.3-0.3,0.4-0.4c0.7-0.8,1.8-1.3,2.9-1.7
				c0.3-0.1,0.7-0.3,1-0.4c0.6-0.3,1.2-0.6,1.7-1c0.1-0.9,0.2-1.7,0.2-2.7c0-4.8-3.9-8.7-8.7-8.7v7.8V451.6z"/>
			<path class="st55" d="M502.9,448.3c0.3,0.2,0.7,0.3,1,0.4c1.2,0.5,2.3,0.9,2.9,1.7c0.1,0.2,0.3,0.3,0.4,0.4
				c0.6,0.5,1.3,0.7,2.1,0.7h0.4v-7.8V436c-4.8,0-8.7,3.9-8.7,8.7c0,0.9,0.1,1.8,0.2,2.7C501.7,447.8,502.3,448.1,502.9,448.3z"/>
			<rect x="518.4" y="472.5" class="st56" width="2.6" height="1.7"/>
			<path class="st55" d="M521,474.2h1.7c0-0.3,0.1-0.6,0.1-0.9v-0.9H521V474.2z"/>
			<path class="st53" d="M500.2,471.5v-5c0-0.1,0-0.1,0.1-0.1h0.8v-4.5l0,0c-1.4,0-2.6,1.2-2.6,2.6v7.9h2.6v-0.9h-0.8
				C500.2,471.6,500.2,471.6,500.2,471.5z"/>
			<path class="st53" d="M498.4,477.2c0.7,0.6,1.5,1.1,2.5,1.2c0.1,0,0.1,0,0.1,0v-4.2h-2.6V477.2z"/>
			<rect x="498.4" y="472.5" class="st56" width="2.6" height="1.7"/>
			<path class="st55" d="M498.4,474.2v-1.7h-1.7v0.9c0,0.3,0,0.6,0.1,0.9H498.4z"/>
			<path class="st56" d="M495.8,489.9v0.9c0,0.5,0.4,0.9,0.9,0.9h10.4c1,0,1.7-0.8,1.7-1.7V489h-12.9
				C495.8,489.3,495.8,489.6,495.8,489.9z"/>
			<path class="st55" d="M523.6,489.9c0-2.4-1.9-4.3-4.3-4.3h-2.4h-5.4c-0.5,0-0.9,0.4-0.9,0.9v2.6h12.9
				C523.6,489.3,523.6,489.6,523.6,489.9z"/>
			<path class="st56" d="M523.5,489h-12.9v0.9c0,1,0.8,1.7,1.7,1.7h10.4c0.5,0,0.9-0.4,0.9-0.9v-0.9
				C523.6,489.6,523.6,489.3,523.5,489z"/>
			<rect x="506.2" y="466.4" class="st56" width="3.5" height="5.2"/>
			<path class="st56" d="M501,466.4h-0.8c-0.1,0-0.1,0-0.1,0.1v5c0,0.1,0,0.1,0.1,0.1h0.8h3.5v-5.2H501z"/>
			<path class="st56" d="M519.3,467.3v-0.8c0-0.1,0-0.1-0.1-0.1h-0.8C518.9,466.4,519.3,466.8,519.3,467.3z"/>
			<path class="st56" d="M519.3,471.5v-0.8c0,0.5-0.4,0.9-0.9,0.9h0.8C519.2,471.6,519.3,471.6,519.3,471.5z"/>
			<rect x="509.7" y="466.4" class="st55" width="3.5" height="5.2"/>
			<path class="st55" d="M519.3,470.8v-3.5c0-0.5-0.4-0.9-0.9-0.9h-3.5v5.2h3.5C518.9,471.6,519.3,471.2,519.3,470.8z"/>
			<path class="st54" d="M505.4,465.5c-0.5,0-0.9,0.4-0.9,0.9v5.2v0.9c0,0.5,0.4,0.9,0.9,0.9s0.9-0.4,0.9-0.9v-0.9v-5.2
				C506.2,465.9,505.8,465.5,505.4,465.5z"/>
			<path class="st53" d="M514.1,465.5c-0.5,0-0.9,0.4-0.9,0.9v5.2v0.9c0,0.5,0.4,0.9,0.9,0.9c0.5,0,0.9-0.4,0.9-0.9v-0.9v-5.2
				C514.9,465.9,514.5,465.5,514.1,465.5z"/>
		</g>
		<g id="alien1_1_">
			<path class="st52" d="M308.3,490.7h5.4l1.4-7c2.5-0.4,4.5-2.5,4.5-5.2c0,0.3,0,0.6-0.1,0.9h-1.7v3c-0.7,0.6-1.5,1.1-2.5,1.2
				c-0.1,0-0.1,0-0.1,0v-4.2v-1.7v-0.9h-3.5v0.9c0,0.5-0.4,0.9-0.9,0.9s-0.9-0.4-0.9-0.9v-0.9h-3.5H303v0.9c0,0.5-0.4,0.9-0.9,0.9
				s-0.9-0.4-0.9-0.9v-0.9h-3.5v0.9v1.7v4.2c0,0,0,0-0.1,0c-1-0.2-1.8-0.6-2.5-1.2v-3h-1.7c0-0.3-0.1-0.6-0.1-0.9
				c0,2.6,2,4.8,4.5,5.2l1.4,7h5.4c0.5,0,0.9,0.4,0.9,0.9v-11.3c0-0.5,0.4-0.9,0.9-0.9c0.5,0,0.9,0.4,0.9,0.9v11.3
				C307.4,491.1,307.8,490.7,308.3,490.7z"/>
			<path class="st52" d="M295.2,469.8c0-1.4,1.2-2.6,2.6-2.6l0,0v4.5h3.5c0-0.5,0.4-0.9,0.9-0.9s0.9,0.4,0.9,0.9h3.5h3.5
				c0-0.5,0.4-0.9,0.9-0.9s0.9,0.4,0.9,0.9h3.5v-4.5l0,0c1.4,0,2.6,1.2,2.6,2.6v7.9h1.7v-10.4c0-3.4-2.7-6.1-6.1-6.1h-0.9v1.7
				c0,1.9-1.6,3.5-3.5,3.5h-2.6h-2.6c-1.9,0-3.5-1.6-3.5-3.5v-1.7h-0.9c-3.4,0-6.1,2.7-6.1,6.1v10.4h1.7V469.8z M304.8,468.1h3.5
				c0.5,0,0.9,0.4,0.9,0.9c0,0.5-0.4,0.9-0.9,0.9h-3.5c-0.5,0-0.9-0.4-0.9-0.9C303.9,468.5,304.3,468.1,304.8,468.1z"/>
			<path class="st53" d="M317.8,469.8c0-1.4-1.2-2.6-2.6-2.6l0,0v4.5h0.8c0.1,0,0.1,0,0.1,0.1v0.8v3.5v0.8c0,0.1,0,0.1-0.1,0.1h-0.8
				v0.9h2.6V469.8z"/>
			<path class="st53" d="M315.2,483.7c0,0,0,0,0.1,0c1-0.2,1.8-0.6,2.5-1.2v-3h-2.6V483.7z"/>
			<path class="st53" d="M306.5,463.8v2.6h2.6c1.9,0,3.5-1.6,3.5-3.5v-1.7v-1.4C311,462.3,308.9,463.8,306.5,463.8z"/>
			<path class="st54" d="M303.9,466.4h2.6v-2.6c-2.4,0-4.5-1.5-6.1-4v1.4v1.7C300.4,464.9,302,466.4,303.9,466.4z"/>
			<path class="st55" d="M313.4,453.5c0.1,0.2,0.1,0.5,0.1,0.7c0,1.4-1.2,2.6-2.6,2.6c-0.7,0-1.4-0.3-1.8-0.7
				c-0.6,0.5-1.3,0.7-2.1,0.7h-0.4v2.1v0.5h0.9c0.5,0,0.9,0.4,0.9,0.9s-0.4,0.9-0.9,0.9h-0.9v2.6c2.4,0,4.5-1.5,6.1-4
				c1.6-2.5,2.6-6,2.6-9.9c0,0.9-0.1,1.8-0.2,2.7C314.5,453,313.9,453.3,313.4,453.5z"/>
			<path class="st56" d="M306.5,463.8v-2.6h-0.9c-0.5,0-0.9-0.4-0.9-0.9s0.4-0.9,0.9-0.9h0.9v-0.5v-2.1h-0.4c-0.8,0-1.5-0.3-2.1-0.7
				c-0.5,0.5-1.1,0.7-1.8,0.7c-1.4,0-2.6-1.2-2.6-2.6c0-0.3,0-0.5,0.1-0.7c-0.6-0.3-1.2-0.6-1.7-1c-0.1-0.9-0.2-1.7-0.2-2.7
				c0,3.9,1,7.4,2.6,9.9C302,462.3,304.2,463.8,306.5,463.8z"/>
			<path class="st55" d="M304.8,490.7h-5.4H297c-2.4,0-4.3,1.9-4.3,4.3c0-0.3,0-0.6,0.1-0.9h12.9v-2.6
				C305.6,491.1,305.3,490.7,304.8,490.7z"/>
			<path class="st54" d="M304.8,469.9h3.5c0.5,0,0.9-0.4,0.9-0.9c0-0.5-0.4-0.9-0.9-0.9h-3.5c-0.5,0-0.9,0.4-0.9,0.9
				C303.9,469.5,304.3,469.9,304.8,469.9z"/>
			<path class="st57" d="M308.3,460.3c0-0.5-0.4-0.9-0.9-0.9h-0.9h-0.9c-0.5,0-0.9,0.4-0.9,0.9s0.4,0.9,0.9,0.9h0.9h0.9
				C307.9,461.2,308.3,460.8,308.3,460.3z"/>
			<path class="st52" d="M303.6,455.7c-0.7-0.8-1.8-1.3-2.9-1.7c-0.3-0.1-0.7-0.3-1-0.4c-0.1,0.2-0.1,0.5-0.1,0.7
				c0,1.4,1.2,2.6,2.6,2.6c0.7,0,1.4-0.3,1.8-0.7C303.8,456,303.7,455.8,303.6,455.7z"/>
			<path class="st52" d="M313.5,454.3c0-0.3,0-0.5-0.1-0.7c-0.3,0.2-0.7,0.3-1,0.4c-1.2,0.5-2.3,0.9-2.9,1.7
				c-0.1,0.2-0.3,0.3-0.4,0.4c0.5,0.5,1.1,0.7,1.8,0.7C312.3,456.9,313.5,455.7,313.5,454.3z"/>
			<path class="st58" d="M306.5,456.9h0.4c0.8,0,1.6-0.3,2.1-0.7c0.2-0.1,0.3-0.3,0.4-0.4c0.7-0.8,1.8-1.3,2.9-1.7
				c0.3-0.1,0.7-0.3,1-0.4c0.6-0.3,1.2-0.6,1.7-1c0.1-0.9,0.2-1.7,0.2-2.7c0-4.8-3.9-8.7-8.7-8.7v7.8V456.9z"/>
			<path class="st55" d="M299.7,453.5c0.3,0.2,0.7,0.3,1,0.4c1.2,0.5,2.3,0.9,2.9,1.7c0.1,0.2,0.3,0.3,0.4,0.4
				c0.6,0.5,1.3,0.7,2.1,0.7h0.4V449v-7.8c-4.8,0-8.7,3.9-8.7,8.7c0,0.9,0.1,1.8,0.2,2.7C298.5,453,299.1,453.3,299.7,453.5z"/>
			<rect x="315.2" y="477.7" class="st56" width="2.6" height="1.7"/>
			<path class="st55" d="M317.8,479.4h1.7c0-0.3,0.1-0.6,0.1-0.9v-0.9h-1.7V479.4z"/>
			<path class="st53" d="M297,476.7v-5c0-0.1,0-0.1,0.1-0.1h0.8v-4.5l0,0c-1.4,0-2.6,1.2-2.6,2.6v7.9h2.6v-0.9h-0.8
				C297,476.8,297,476.8,297,476.7z"/>
			<path class="st53" d="M295.2,482.4c0.7,0.6,1.5,1.1,2.5,1.2c0.1,0,0.1,0,0.1,0v-4.2h-2.6V482.4z"/>
			<rect x="295.2" y="477.7" class="st56" width="2.6" height="1.7"/>
			<path class="st55" d="M295.2,479.4v-1.7h-1.7v0.9c0,0.3,0,0.6,0.1,0.9H295.2z"/>
			<path class="st56" d="M292.6,495.1v0.9c0,0.5,0.4,0.9,0.9,0.9h10.4c1,0,1.7-0.8,1.7-1.7v-0.9h-12.9
				C292.7,494.5,292.6,494.8,292.6,495.1z"/>
			<path class="st55" d="M320.4,495.1c0-2.4-1.9-4.3-4.3-4.3h-2.4h-5.4c-0.5,0-0.9,0.4-0.9,0.9v2.6h12.9
				C320.4,494.5,320.4,494.8,320.4,495.1z"/>
			<path class="st56" d="M320.3,494.2h-12.9v0.9c0,1,0.8,1.7,1.7,1.7h10.4c0.5,0,0.9-0.4,0.9-0.9v-0.9
				C320.4,494.8,320.4,494.5,320.3,494.2z"/>
			<rect x="303" y="471.6" class="st56" width="3.5" height="5.2"/>
			<path class="st56" d="M297.8,471.6h-0.8c-0.1,0-0.1,0-0.1,0.1v5c0,0.1,0,0.1,0.1,0.1h0.8h3.5v-5.2H297.8z"/>
			<path class="st56" d="M316.1,472.5v-0.8c0-0.1,0-0.1-0.1-0.1h-0.8C315.7,471.6,316.1,472,316.1,472.5z"/>
			<path class="st56" d="M316.1,476.7V476c0,0.5-0.4,0.9-0.9,0.9h0.8C316,476.8,316.1,476.8,316.1,476.7z"/>
			<rect x="306.5" y="471.6" class="st55" width="3.5" height="5.2"/>
			<path class="st55" d="M316.1,476v-3.5c0-0.5-0.4-0.9-0.9-0.9h-3.5v5.2h3.5C315.7,476.8,316.1,476.4,316.1,476z"/>
			<path class="st54" d="M302.2,470.8c-0.5,0-0.9,0.4-0.9,0.9v5.2v0.9c0,0.5,0.4,0.9,0.9,0.9s0.9-0.4,0.9-0.9v-0.9v-5.2
				C303,471.1,302.7,470.8,302.2,470.8z"/>
			<path class="st53" d="M310.9,470.8c-0.5,0-0.9,0.4-0.9,0.9v5.2v0.9c0,0.5,0.4,0.9,0.9,0.9s0.9-0.4,0.9-0.9v-0.9v-5.2
				C311.7,471.1,311.3,470.8,310.9,470.8z"/>
		</g>
		<g id="ufo2">
			<path class="st59" d="M593.6,400.1c-4.6,0-8.3,3.8-8.3,8.3s3.8,8.3,8.3,8.3c4.6,0,8.3-3.8,8.3-8.3S598.2,400.1,593.6,400.1z
				 M615.8,394.5c-4.6,0-8.3,3.8-8.3,8.3s3.8,8.3,8.3,8.3c4.6,0,8.3-3.8,8.3-8.3S620.4,394.5,615.8,394.5z M571.3,394.5
				c-4.6,0-8.3,3.8-8.3,8.3s3.8,8.3,8.3,8.3c4.6,0,8.3-3.8,8.3-8.3S575.9,394.5,571.3,394.5z"/>
			<path class="st60" d="M568,373.3c14.1-8.7,37-8.7,51.1,0c14.1,8.7,14.1,22.8,0,31.4c-14.1,8.7-37,8.7-51.1,0S553.9,382,568,373.3
				z"/>
			<path class="st60" d="M571.5,402.6c-13.6-8.4-14.1-21.8-1.4-30.5c-0.7,0.3-1.4,0.8-2.1,1.2c-14.1,8.7-14.1,22.8,0,31.4
				c14.1,8.7,37,8.7,51.1,0c0.5-0.3,1-0.6,1.4-0.9C606.3,411.3,584.9,410.9,571.5,402.6z"/>
			<path class="st59" d="M562.1,357.8c17.4-10.3,45.5-10.3,62.9,0c17.4,10.3,17.4,27,0,37.3c-17.4,10.3-45.5,10.3-62.9,0
				C544.7,384.8,544.7,368.1,562.1,357.8z"/>
			<path class="st61" d="M627.9,392.4c-17.4,10.3-45.5,10.3-62.9,0c-14-8.3-16.8-20.8-8.2-30.7c-11.7,10.3-9.9,24.4,5.4,33.5
				c17.4,10.3,45.5,10.3,62.9,0c3.3-2,6-4.2,8.1-6.6C631.6,389.9,629.9,391.1,627.9,392.4z"/>
			<path class="st62" d="M593.6,336.2c15.4,0,27.8,12.4,27.8,27.8s-12.4,22.2-27.8,22.2s-27.8-6.9-27.8-22.2
				S578.2,336.2,593.6,336.2z"/>
			<path class="st63" d="M565.8,364c0,15.3,12.4,22.2,27.6,22.2h0.2v-50C578.2,336.2,565.8,348.6,565.8,364z"/>
			<path class="st64" d="M593.6,386.2c6.3,0,12-1.1,16.7-3.5V364c0-9.2-7.4-16.7-16.7-16.7c-9.2,0-16.7,7.4-16.7,16.7v18.7
				C581.6,385.1,587.3,386.2,593.6,386.2z"/>
			<path class="st65" d="M576.9,364v18.7c4.6,2.4,10.4,3.5,16.5,3.5h0.1v-38.9C584.3,347.3,576.9,354.8,576.9,364z"/>
			<path class="st4" d="M593.6,358.4c4.6,0,8.3,3.8,8.3,8.3c0,4.6-3.8,8.3-8.3,8.3c-4.6,0-8.3-3.8-8.3-8.3
				C585.2,362.2,589,358.4,593.6,358.4z"/>
			<path class="st46" d="M593.6,358.4c-4.6,0-8.3,3.8-8.3,8.3c0,4.6,3.8,8.3,8.3,8.3V358.4z"/>
			<path class="st59" d="M593.6,362.6c2.3,0,4.2,1.9,4.2,4.2c0,2.3-1.9,4.2-4.2,4.2c-2.3,0-4.2-1.9-4.2-4.2
				C589.4,364.4,591.3,362.6,593.6,362.6z"/>
			<path class="st66" d="M593.6,362.6c-2.3,0-4.2,1.9-4.2,4.2c0,2.3,1.9,4.2,4.2,4.2V362.6z"/>
		</g>
		<g id="ufo1">
			<path class="st59" d="M684.9,239.5c-4.6,0-8.3,3.8-8.3,8.3c0,4.6,3.8,8.3,8.3,8.3c4.6,0,8.3-3.8,8.3-8.3
				C693.2,243.2,689.4,239.5,684.9,239.5z M707.1,233.9c-4.6,0-8.3,3.8-8.3,8.3c0,4.6,3.8,8.3,8.3,8.3c4.6,0,8.3-3.8,8.3-8.3
				C715.4,237.7,711.7,233.9,707.1,233.9z M662.6,233.9c-4.6,0-8.3,3.8-8.3,8.3c0,4.6,3.8,8.3,8.3,8.3c4.6,0,8.3-3.8,8.3-8.3
				C671,237.7,667.2,233.9,662.6,233.9z"/>
			<path class="st67" d="M659.3,212.7c14.1-8.7,37-8.7,51.1,0s14.1,22.8,0,31.4c-14.1,8.7-37,8.7-51.1,0S645.2,221.3,659.3,212.7z"
				/>
			<path class="st67" d="M662.8,242c-13.6-8.4-14.1-21.8-1.4-30.5c-0.7,0.3-1.4,0.8-2.1,1.2c-14.1,8.7-14.1,22.8,0,31.4
				c14.1,8.7,37,8.7,51.1,0c0.5-0.3,1-0.6,1.4-0.9C697.6,250.7,676.2,250.3,662.8,242z"/>
			<path class="st59" d="M653.4,197.2c17.4-10.3,45.5-10.3,62.9,0c17.4,10.3,17.4,27,0,37.3c-17.4,10.3-45.5,10.3-62.9,0
				C636,224.2,636,207.5,653.4,197.2z"/>
			<path class="st61" d="M719.1,231.8c-17.4,10.3-45.5,10.3-62.9,0c-14-8.3-16.8-20.8-8.2-30.7c-11.7,10.3-9.9,24.4,5.4,33.5
				c17.4,10.3,45.5,10.3,62.9,0c3.3-2,6-4.2,8.1-6.6C722.9,229.3,721.1,230.5,719.1,231.8z"/>
			<path class="st62" d="M684.9,175.5c15.4,0,27.8,12.4,27.8,27.8s-12.4,22.2-27.8,22.2s-27.8-6.9-27.8-22.2
				S669.5,175.5,684.9,175.5z"/>
			<path class="st63" d="M657.1,203.3c0,15.3,12.4,22.2,27.6,22.2h0.2v-50C669.5,175.5,657.1,188,657.1,203.3z"/>
			<path class="st64" d="M684.9,225.6c6.3,0,12-1.1,16.7-3.5v-18.7c0-9.2-7.4-16.7-16.7-16.7s-16.7,7.4-16.7,16.7V222
				C672.8,224.5,678.6,225.6,684.9,225.6z"/>
			<path class="st65" d="M668.2,203.3V222c4.6,2.4,10.4,3.5,16.5,3.5h0.1v-38.9C675.6,186.7,668.2,194.2,668.2,203.3z"/>
			<path class="st4" d="M684.9,197.8c4.6,0,8.3,3.8,8.3,8.3c0,4.6-3.8,8.3-8.3,8.3c-4.6,0-8.3-3.8-8.3-8.3
				C676.5,201.5,680.3,197.8,684.9,197.8z"/>
			<path class="st46" d="M684.9,197.8c-4.6,0-8.3,3.8-8.3,8.3c0,4.6,3.8,8.3,8.3,8.3V197.8z"/>
			<path class="st59" d="M684.9,201.9c2.3,0,4.2,1.9,4.2,4.2c0,2.3-1.9,4.2-4.2,4.2s-4.2-1.9-4.2-4.2
				C680.7,203.8,682.6,201.9,684.9,201.9z"/>
			<path class="st66" d="M684.9,201.9c-2.3,0-4.2,1.9-4.2,4.2c0,2.3,1.9,4.2,4.2,4.2V201.9z"/>
		</g>
	</g>
	<g id="man2">
		<g>
			<path class="st68" d="M885.2,936.4c-1.7-2.3-3-4.9-4.2-7.5c-0.8-1.8-1.7-4-1.9-6.2c0.2-0.7,0.3-1.5,0.1-2.2
				c-0.6-3.7-1.1-7.5-1.7-11.2c1.9,1.6,2.9,3.8,2.6,6.8c-0.3,2.3,3.4,2.3,3.7,0c0.6-5.6-2.6-9.8-7.6-11.7c-0.4-0.4-1-0.7-1.6-0.9
				l-1.5,3.6l0.2-2.8l0.2,0l-0.1-0.5l-1.3,0.2l0.1,0.5l0.2,0l0.5,3.1l-1.8-3.6c-1.2,0.8-1.9,4.1-2,4.4c-0.5,3.3-1.9,6-5.1,7.4
				c-2.2,0.9-0.3,4.1,1.8,3.2c2-0.8,3.5-2.2,4.7-3.9c0.3,2,0.6,4,0.9,6c-3,5.6-3.4,12-0.9,18.1c1.1,2.7,5.6,1.5,4.4-1.2
				c-1.8-4.3-1.9-8.5-0.5-12.5c0.1,0,0.3,0.1,0.4,0.1c1,4.8,3.6,9.6,6.3,13.4C883,941.1,886.9,938.8,885.2,936.4z M873,907.5
				L873,907.5L873,907.5L873,907.5z M873.6,910.4c0.4,0,0.7,0.3,0.7,0.7c0,0.4-0.3,0.7-0.7,0.7c-0.4,0-0.7-0.3-0.7-0.7
				C873,910.7,873.3,910.4,873.6,910.4z M873.1,913.6c0-0.4,0.3-0.7,0.7-0.7c0.4,0,0.7,0.3,0.7,0.7c0,0.4-0.3,0.7-0.7,0.7
				C873.4,914.3,873.1,914,873.1,913.6z M874.2,916.9c-0.4,0-0.7-0.3-0.7-0.7c0-0.4,0.3-0.7,0.7-0.7c0.4,0,0.7,0.3,0.7,0.7
				C874.8,916.6,874.5,916.9,874.2,916.9z"/>
			<path class="st68" d="M875.5,897.8c1.5-0.1,1.7,1.1,1.7,1.1c0-2.2-1.8-4.1-4.1-4.1s-4.1,1.8-4.1,4.1c0,0,1-0.6,2.3-1.9
				C871.5,897.9,872.3,898.8,875.5,897.8z"/>
		</g>
	</g>
	<g id="man1">
		<g>
			<path class="st68" d="M884.8,827.9c-1.7-2.3-3-4.9-4.2-7.5c-0.8-1.8-1.7-4-1.9-6.2c0.2-0.7,0.3-1.5,0.1-2.2
				c-0.6-3.7-1.1-7.5-1.7-11.2c1.9,1.6,2.9,3.8,2.6,6.8c-0.3,2.3,3.4,2.3,3.7,0c0.6-5.6-2.6-9.8-7.6-11.7c-0.4-0.4-1-0.7-1.6-0.9
				l-1.5,3.6l0.2-2.8l0.2,0l-0.1-0.5l-1.3,0.2l0.1,0.5l0.2,0l0.5,3.1l-1.8-3.6c-1.2,0.8-1.9,4.1-2,4.4c-0.5,3.3-1.9,6-5.1,7.4
				c-2.2,0.9-0.3,4.1,1.8,3.2c2-0.8,3.5-2.2,4.7-3.9c0.3,2,0.6,4,0.9,6c-3,5.6-3.4,12-0.9,18.1c1.1,2.7,5.6,1.5,4.4-1.2
				c-1.8-4.3-1.9-8.5-0.5-12.5c0.1,0,0.3,0.1,0.4,0.1c1,4.8,3.6,9.6,6.3,13.4C882.5,832.6,886.5,830.3,884.8,827.9z M872.5,799
				L872.5,799L872.5,799L872.5,799z M873.2,801.8c0.4,0,0.7,0.3,0.7,0.7c0,0.4-0.3,0.7-0.7,0.7c-0.4,0-0.7-0.3-0.7-0.7
				C872.5,802.1,872.8,801.8,873.2,801.8z M872.6,805.1c0-0.4,0.3-0.7,0.7-0.7c0.4,0,0.7,0.3,0.7,0.7c0,0.4-0.3,0.7-0.7,0.7
				C872.9,805.8,872.6,805.5,872.6,805.1z M873.7,808.4c-0.4,0-0.7-0.3-0.7-0.7c0-0.4,0.3-0.7,0.7-0.7c0.4,0,0.7,0.3,0.7,0.7
				C874.4,808.1,874.1,808.4,873.7,808.4z"/>
			<path class="st68" d="M875.1,789.3c1.5-0.1,1.7,1.1,1.7,1.1c0-2.2-1.8-4.1-4.1-4.1s-4.1,1.8-4.1,4.1c0,0,1-0.6,2.3-1.9
				C871.1,789.4,871.9,790.3,875.1,789.3z"/>
		</g>
	</g>
</g>
<g id="roomsHide">
	<defs>
		<filter id="Adobe_OpacityMaskFilter" filterUnits="userSpaceOnUse" x="648.1" y="889.8" width="142.2" height="54.3">
			
				<feColorMatrix  type="matrix" values="-1 0 0 0 1  0 -1 0 0 1  0 0 -1 0 1  0 0 0 1 0" color-interpolation-filters="sRGB" result="source"/>
			<feFlood  style="flood-color:white;flood-opacity:1" result="back"/>
			<feBlend  in="source" in2="back" mode="normal"/>
		</filter>
	</defs>
	<mask maskUnits="userSpaceOnUse" x="648.1" y="889.8" width="142.2" height="54.3" id="room7hide_1_">
		<g class="st69">
			<path class="st43" d="M771.7,924.9h-4.8c-3,0-5.5-2.5-5.5-5.5v-4.8c0-3,2.5-5.5,5.5-5.5h4.8c3,0,5.5,2.5,5.5,5.5v4.8
				C777.2,922.5,774.8,924.9,771.7,924.9z"/>
			<path class="st43" d="M719.9,924.9h-4.8c-3,0-5.5-2.5-5.5-5.5v-4.8c0-3,2.5-5.5,5.5-5.5h4.8c3,0,5.5,2.5,5.5,5.5v4.8
				C725.4,922.5,722.9,924.9,719.9,924.9z"/>
			<path class="st43" d="M668.1,924.9h-4.8c-3,0-5.5-2.5-5.5-5.5v-4.8c0-3,2.5-5.5,5.5-5.5h4.8c3,0,5.5,2.5,5.5,5.5v4.8
				C673.6,922.5,671.1,924.9,668.1,924.9z"/>
		</g>
	</mask>
	<rect id="room7hide" x="648.1" y="889.8" class="st70" width="142.2" height="54.3"/>
	<defs>
		<filter id="Adobe_OpacityMaskFilter_1_" filterUnits="userSpaceOnUse" x="467.8" y="890.1" width="86" height="54.3">
			
				<feColorMatrix  type="matrix" values="-1 0 0 0 1  0 -1 0 0 1  0 0 -1 0 1  0 0 0 1 0" color-interpolation-filters="sRGB" result="source"/>
			<feFlood  style="flood-color:white;flood-opacity:1" result="back"/>
			<feBlend  in="source" in2="back" mode="normal"/>
		</filter>
	</defs>
	<mask maskUnits="userSpaceOnUse" x="467.8" y="890.1" width="86" height="54.3" id="room6hide_1_">
		<g class="st71">
			<path class="st43" d="M534.1,924.6h-4.8c-3,0-5.5-2.5-5.5-5.5v-4.8c0-3,2.5-5.5,5.5-5.5h4.8c3,0,5.5,2.5,5.5,5.5v4.8
				C539.5,922.1,537.1,924.6,534.1,924.6z"/>
			<path class="st43" d="M489.4,924.6h-4.8c-3,0-5.5-2.5-5.5-5.5v-4.8c0-3,2.5-5.5,5.5-5.5h4.8c3,0,5.5,2.5,5.5,5.5v4.8
				C494.9,922.1,492.4,924.6,489.4,924.6z"/>
		</g>
	</mask>
	<rect id="room6hide" x="467.8" y="890.1" class="st72" width="86" height="54.3"/>
	<defs>
		<filter id="Adobe_OpacityMaskFilter_2_" filterUnits="userSpaceOnUse" x="110.3" y="889.9" width="227.2" height="54.3">
			
				<feColorMatrix  type="matrix" values="-1 0 0 0 1  0 -1 0 0 1  0 0 -1 0 1  0 0 0 1 0" color-interpolation-filters="sRGB" result="source"/>
			<feFlood  style="flood-color:white;flood-opacity:1" result="back"/>
			<feBlend  in="source" in2="back" mode="normal"/>
		</filter>
	</defs>
	<mask maskUnits="userSpaceOnUse" x="110.3" y="889.9" width="227.2" height="54.3" id="room5hide_1_">
		<g class="st73">
			<path class="st43" d="M304,925h-4.8c-3,0-5.5-2.5-5.5-5.5v-4.8c0-3,2.5-5.5,5.5-5.5h4.8c3,0,5.5,2.5,5.5,5.5v4.8
				C309.5,922.5,307,925,304,925z"/>
			<path class="st43" d="M252.2,925h-4.8c-3,0-5.5-2.5-5.5-5.5v-4.8c0-3,2.5-5.5,5.5-5.5h4.8c3,0,5.5,2.5,5.5,5.5v4.8
				C257.6,922.5,255.2,925,252.2,925z"/>
			<path class="st43" d="M200.3,925h-4.8c-3,0-5.5-2.5-5.5-5.5v-4.8c0-3,2.5-5.5,5.5-5.5h4.8c3,0,5.5,2.5,5.5,5.5v4.8
				C205.8,922.5,203.4,925,200.3,925z"/>
			<path class="st43" d="M148.5,925h-4.8c-3,0-5.5-2.5-5.5-5.5v-4.8c0-3,2.5-5.5,5.5-5.5h4.8c3,0,5.5,2.5,5.5,5.5v4.8
				C154,922.5,151.5,925,148.5,925z"/>
		</g>
	</mask>
	<rect id="room5hide" x="110.3" y="889.9" class="st74" width="227.2" height="54.3"/>
	<defs>
		<filter id="Adobe_OpacityMaskFilter_3_" filterUnits="userSpaceOnUse" x="646.7" y="780.9" width="142.2" height="54.3">
			
				<feColorMatrix  type="matrix" values="-1 0 0 0 1  0 -1 0 0 1  0 0 -1 0 1  0 0 0 1 0" color-interpolation-filters="sRGB" result="source"/>
			<feFlood  style="flood-color:white;flood-opacity:1" result="back"/>
			<feBlend  in="source" in2="back" mode="normal"/>
		</filter>
	</defs>
	<mask maskUnits="userSpaceOnUse" x="646.7" y="780.9" width="142.2" height="54.3" id="room4hide_1_">
		<g class="st75">
			<path class="st43" d="M770.3,816h-4.8c-3,0-5.5-2.5-5.5-5.5v-4.8c0-3,2.5-5.5,5.5-5.5h4.8c3,0,5.5,2.5,5.5,5.5v4.8
				C775.8,813.6,773.4,816,770.3,816z"/>
			<path class="st43" d="M718.5,816h-4.8c-3,0-5.5-2.5-5.5-5.5v-4.8c0-3,2.5-5.5,5.5-5.5h4.8c3,0,5.5,2.5,5.5,5.5v4.8
				C724,813.6,721.6,816,718.5,816z"/>
			<path class="st43" d="M666.7,816h-4.8c-3,0-5.5-2.5-5.5-5.5v-4.8c0-3,2.5-5.5,5.5-5.5h4.8c3,0,5.5,2.5,5.5,5.5v4.8
				C672.2,813.6,669.7,816,666.7,816z"/>
		</g>
	</mask>
	<rect id="room4hide" x="646.7" y="780.9" class="st76" width="142.2" height="54.3"/>
	<defs>
		<filter id="Adobe_OpacityMaskFilter_4_" filterUnits="userSpaceOnUse" x="469.6" y="781" width="142.2" height="54.3">
			
				<feColorMatrix  type="matrix" values="-1 0 0 0 1  0 -1 0 0 1  0 0 -1 0 1  0 0 0 1 0" color-interpolation-filters="sRGB" result="source"/>
			<feFlood  style="flood-color:white;flood-opacity:1" result="back"/>
			<feBlend  in="source" in2="back" mode="normal"/>
		</filter>
	</defs>
	<mask maskUnits="userSpaceOnUse" x="469.6" y="781" width="142.2" height="54.3" id="room3hide_1_">
		<g class="st77">
			<path class="st43" d="M593.3,816.1h-4.8c-3,0-5.5-2.5-5.5-5.5v-4.8c0-3,2.5-5.5,5.5-5.5h4.8c3,0,5.5,2.5,5.5,5.5v4.8
				C598.7,813.6,596.3,816.1,593.3,816.1z"/>
			<path class="st43" d="M541.4,816.1h-4.8c-3,0-5.5-2.5-5.5-5.5v-4.8c0-3,2.5-5.5,5.5-5.5h4.8c3,0,5.5,2.5,5.5,5.5v4.8
				C546.9,813.6,544.5,816.1,541.4,816.1z"/>
			<path class="st43" d="M489.6,816.1h-4.8c-3,0-5.5-2.5-5.5-5.5v-4.8c0-3,2.5-5.5,5.5-5.5h4.8c3,0,5.5,2.5,5.5,5.5v4.8
				C495.1,813.6,492.6,816.1,489.6,816.1z"/>
		</g>
	</mask>
	<rect id="room3hide" x="469.6" y="781" class="st78" width="142.2" height="54.3"/>
	<defs>
		<filter id="Adobe_OpacityMaskFilter_5_" filterUnits="userSpaceOnUse" x="113.2" y="781.3" width="86" height="54.3">
			
				<feColorMatrix  type="matrix" values="-1 0 0 0 1  0 -1 0 0 1  0 0 -1 0 1  0 0 0 1 0" color-interpolation-filters="sRGB" result="source"/>
			<feFlood  style="flood-color:white;flood-opacity:1" result="back"/>
			<feBlend  in="source" in2="back" mode="normal"/>
		</filter>
	</defs>
	<mask maskUnits="userSpaceOnUse" x="113.2" y="781.3" width="86" height="54.3" id="room2hide_1_">
		<g class="st79">
			<path class="st43" d="M179.5,815.8h-4.8c-3,0-5.5-2.5-5.5-5.5v-4.8c0-3,2.5-5.5,5.5-5.5h4.8c3,0,5.5,2.5,5.5,5.5v4.8
				C185,813.3,182.5,815.8,179.5,815.8z"/>
			<path class="st43" d="M134.9,815.8h-4.8c-3,0-5.5-2.5-5.5-5.5v-4.8c0-3,2.5-5.5,5.5-5.5h4.8c3,0,5.5,2.5,5.5,5.5v4.8
				C140.4,813.3,137.9,815.8,134.9,815.8z"/>
		</g>
	</mask>
	<rect id="room2hide" x="113.2" y="781.3" class="st80" width="86" height="54.3"/>
	<defs>
		<filter id="Adobe_OpacityMaskFilter_6_" filterUnits="userSpaceOnUse" x="252.8" y="781.2" width="86" height="54.3">
			
				<feColorMatrix  type="matrix" values="-1 0 0 0 1  0 -1 0 0 1  0 0 -1 0 1  0 0 0 1 0" color-interpolation-filters="sRGB" result="source"/>
			<feFlood  style="flood-color:white;flood-opacity:1" result="back"/>
			<feBlend  in="source" in2="back" mode="normal"/>
		</filter>
	</defs>
	<mask maskUnits="userSpaceOnUse" x="252.8" y="781.2" width="86" height="54.3" id="room1hide_1_">
		<g class="st81">
			<path class="st43" d="M319.2,815.7h-4.8c-3,0-5.5-2.5-5.5-5.5v-4.8c0-3,2.5-5.5,5.5-5.5h4.8c3,0,5.5,2.5,5.5,5.5v4.8
				C324.6,813.2,322.2,815.7,319.2,815.7z"/>
			<path class="st43" d="M274.5,815.7h-4.8c-3,0-5.5-2.5-5.5-5.5v-4.8c0-3,2.5-5.5,5.5-5.5h4.8c3,0,5.5,2.5,5.5,5.5v4.8
				C280,813.2,277.5,815.7,274.5,815.7z"/>
		</g>
	</mask>
	<rect id="room1hide" x="252.8" y="781.2" class="st82" width="86" height="54.3"/>
	<defs>
		<filter id="Adobe_OpacityMaskFilter_7_" filterUnits="userSpaceOnUse" x="385.9" y="777" width="46.7" height="58.4">
			<feColorMatrix  type="matrix" values="1 0 0 0 0  0 1 0 0 0  0 0 1 0 0  0 0 0 1 0"/>
		</filter>
	</defs>
	<mask maskUnits="userSpaceOnUse" x="385.9" y="777" width="46.7" height="58.4" id="lift1hide_1_">
		<g class="st83">
			<path class="st4" d="M385.9,777v58.4h46.7V777H385.9z M426.6,831.6h-34.6v-48.7l34.6-0.1V831.6z"/>
			<rect id="doorRight_2_" x="409.1" y="785.1" class="st4" width="12.9" height="44.7"/>
			<rect id="doorLeft_2_" x="395.6" y="785.1" class="st4" width="13" height="44.7"/>
			<rect x="400.5" y="777.8" class="st84" width="17.6" height="4.8"/>
			<rect x="426.6" y="799.8" class="st4" width="6" height="11.6"/>
			
				<rect x="426.8" y="801.7" transform="matrix(1.606208e-03 -1 1 1.606208e-03 -374.1831 1231.4843)" class="st85" width="5.7" height="2.8"/>
		</g>
	</mask>
	<rect id="lift1hide" x="385.9" y="777" class="st86" width="46.7" height="58.4"/>
	<defs>
		<filter id="Adobe_OpacityMaskFilter_8_" filterUnits="userSpaceOnUse" x="386.1" y="885.7" width="46.7" height="58.4">
			<feColorMatrix  type="matrix" values="1 0 0 0 0  0 1 0 0 0  0 0 1 0 0  0 0 0 1 0"/>
		</filter>
	</defs>
	<mask maskUnits="userSpaceOnUse" x="386.1" y="885.7" width="46.7" height="58.4" id="lift2hide_1_">
		<g class="st87">
			<path class="st4" d="M386.1,885.7v58.4h46.7v-58.4H386.1z M426.8,940.3h-34.6v-48.7l34.6-0.1V940.3z"/>
			<rect id="doorRight_3_" x="409.3" y="893.8" class="st4" width="12.9" height="44.7"/>
			<rect id="doorLeft_3_" x="395.9" y="893.8" class="st4" width="13" height="44.7"/>
			<rect x="400.8" y="886.5" class="st84" width="17.6" height="4.8"/>
			<rect x="426.8" y="908.5" class="st4" width="6" height="11.6"/>
			
				<rect x="427" y="910.4" transform="matrix(1.606208e-03 -1 1 1.606208e-03 -482.6768 1340.2227)" class="st85" width="5.7" height="2.8"/>
		</g>
	</mask>
	<rect id="lift2hide" x="386.1" y="885.7" class="st88" width="46.7" height="58.4"/>
</g>
<g id="gras">
	<g>
		<path class="st6" d="M886.3,561.2C886.3,561.2,886.3,561.2,886.3,561.2C886.3,561.2,886.3,561.2,886.3,561.2z"/>
		<path class="st6" d="M871.7,558.8c-10.6-3.6-18.2-10.9-18.2-19.1C853.4,548.1,860.9,555.4,871.7,558.8z"/>
		<path class="st28" d="M919.1,523.9c0-11.7-14.3-21.2-32-21.2c-0.5,0-1,0-1.5,0c-2.1-5.9-7.4-10.1-13.6-10.1
			c-4.1,0-7.7,1.8-10.3,4.6c-5.2-9.8-15-16.4-26.3-16.4c-13.9,0-25.7,10.2-29.2,24c-3.1-1.6-6.6-2.5-10.3-2.5
			c-2.2,0-4.2,0.3-6.2,0.8c-4.4-6.4-11.3-10.5-19-10.5c-4.3,0-8.3,1.3-11.8,3.5c-4.5-9.1-13.2-15.2-23.3-15.2
			c-9.8,0-18.4,5.9-22.9,14.5c-3.1-1.8-6.6-2.7-10.4-2.7c-4.9,0-9.4,1.7-13.1,4.5c-5.1-9.7-15.9-16.4-28.5-16.4
			c-5.8,0-11.2,1.5-15.9,3.9c-3.1-4.5-10.8-7.7-19.8-7.7c-4.2,0-8.2,0.7-11.5,1.9c-5.3-9.1-16.3-15.3-28.9-15.3
			c-10.9,0-20.4,4.6-26.3,11.7c-1.4-0.5-3.1-0.8-4.7-0.8c-6.9,0-12.5,4.9-13.6,11.2c-2,0.4-4,1.1-5.9,2
			c-5.8-7.4-15.9-12.3-27.2-12.3c-8.9,0-17,2.9-22.9,7.8c-4.3-2.8-10.2-4.6-16.5-4.6c-7,0-13.3,2.1-17.7,5.5
			c-6.4-5.4-15.1-8.7-24.7-8.7c-14.3,0-26.8,7.4-32.6,18.1c-4.1-1.4-8.6-2.1-13.4-2.1c-1.1,0-2.3,0-3.4,0.1
			c-2.9-3.9-7.7-6.5-13.2-6.5c-4,0-7.6,1.4-10.4,3.6c-7.1-4.9-16.4-7.9-26.5-7.9c-15.3,0-28.6,6.7-35.5,16.6
			c-3.7-3-8.7-4.8-14.2-4.8c-5.6,0-10.6,1.9-14.4,4.9c-4.2-3.2-9.6-4.9-15.4-4.9c-3,0-5.8,0.5-8.4,1.4c-5.9-5.5-14.6-8.8-24.2-8.8
			c-4.9,0-9.5,0.8-13.7,2.5c-2-1.6-4.3-2.5-7-2.5c-3.6,0-7,1.9-9.2,4.7c-4.9-2.9-10.9-4.7-17.3-4.7c-9.7,0-18.2,4-23.8,10.1
			c-4.6-2.4-10-3.8-15.9-3.8c-9.2,0-17.5,3.5-22.8,8.9c-1.4-0.2-3.1-0.3-4.7-0.3c-6.8,0-14.3,1.5-20.1,4.2c-0.9,0-1.9-0.1-2.8-0.1
			c-21.6,0-39.2,8.8-39.2,19.7c0,2.4,0.9,4.7,2.4,6.9c-4.1,3.1-6.5,6.9-6.5,10.9c0,10.9,17.5,19.7,39.2,19.7v0.1h814c0,0,0,0,0,0
			c0.3,0,1.3,0,1.7,0c17.7-1.3,29.4-10,29.4-21.6c0-2.3-0.5-4.4-1.5-6.5C917.9,530.4,919.1,527.2,919.1,523.9z"/>
		<path class="st28" d="M886.3,561.2C886.3,561.2,886.3,561.2,886.3,561.2C886.2,561.2,886.3,561.2,886.3,561.2z"/>
	</g>
	<path class="st31" d="M856.5,539.4c-0.6-5.5-1.2-9.2-6-11.6c-0.9-0.4-2.2-0.9-3.7-1.4c-1.6-0.7-3.4-1.1-5.2-1.2c-0.3,0-0.6,0-0.8,0
		c-2.2,0-4.3,0.4-6.2,1.3c0.1-4.1-0.5-7.6-5.2-7.6c-1.4,0-2.8,0.1-4.2,0.2c-5.1-3.8-12.9-6.3-21.6-6.3c-5.5,0-10.7,0.9-15,2.6
		c-5.3-4.3-13.4-7.1-22.6-7.1c-6.1,0-11.7,1.2-16.4,3.3c-2.1-2-5.2-3.3-8.7-3.3c-2.5,0-4.7,0.6-6.6,1.7c-3.9-1.1-8.3-1.7-12.9-1.7
		c-9.1,0-17.3,2.4-22.9,6.2c-2.5-0.6-5.1-0.9-8-0.9c-5.5,0-10.6,1.3-14.6,3.5c-3.6-2.1-8.4-3.5-13.7-3.5c-5.2,0-10,1.3-13.5,3.4
		c-6.6-7-19.2-11.7-33.7-11.7c-9.6,0-18.4,2-25.2,5.5c-2.7-1.6-6.1-2.5-9.9-2.5c-5.1,0-9.7,1.8-12.5,4.5c-1-0.1-2.2-0.1-3.2-0.1
		c-4.5,0-8.8,0.5-12.7,1.4c-5.5-7.4-17.2-12.6-30.8-12.6c-9.1,0-17.3,2.4-23.4,6.1c-4.2-2.4-10.1-3.8-16.8-3.8
		c-6,0-11.6,1.2-15.7,3.2c-5.5-3.4-13.3-5.5-21.7-5.5c-10.8,0-20.3,3.4-25.8,8.5c-1.8-0.6-3.6-1-5.5-1.4c-1-4.5-6.3-7.9-12.9-7.9
		c-1.5,0-3.1,0.3-4.4,0.6c-5.5-4.9-14.6-8.1-24.9-8.1c-12,0-22.3,4.4-27.4,10.7c-3.1-0.8-6.9-1.4-10.9-1.4c-8.5,0-15.8,2.2-18.7,5.3
		c-4.4-1.7-9.6-2.7-15-2.7c-11.8,0-22.1,4.7-26.9,11.4c-3.5-2-7.7-3.2-12.4-3.2c-3.6,0-7,0.8-9.9,1.9c-4.3-6.1-12.4-10.2-21.7-10.2
		c-9.6,0-17.8,4.3-22.1,10.7c-3.3-1.6-7.1-2.5-11.2-2.5c-7.3,0-13.8,2.9-18,7.4c-1.8-0.4-3.8-0.6-5.9-0.6c-3.5,0-6.9,0.7-9.8,1.8
		c-3.3-9.6-14.5-16.8-27.6-16.8c-10.7,0-20,4.7-24.9,11.5c-2.5-2-5.9-3.3-9.8-3.3c-6.4,0-11.8,3.5-13.3,8.1c-0.3,0-0.7,0-1,0
		c-11,0-20,7.4-20,16.6c0,0.7,0.1,1.5,0.2,2.2c-5.9,2.1-9.7,5.5-9.7,9.4c0,6.4,10.5,11.5,23.4,11.5c2.1,0,4.2-0.1,6.2-0.4v0.8h733.4
		h13.8h10.4h9.3c9.2,0,16.6-5.4,16.6-11.7C866.7,545.2,862.5,541.1,856.5,539.4z"/>
</g>
<g id="bombs">
	<g id="bomb6">
		<path class="st89" d="M604.7,902.9l-1.5,0.7l1.4-1L604.7,902.9z M605.3,901l-1.3-1.2l1.1,1.4L605.3,901z M608.4,897.9l-1.9,2.9
			l0.3,0.2L608.4,897.9z M607.1,901.6l3.9-0.3l-3.9,0L607.1,901.6z M605.5,902.1c0.2,3,3.5,5.6,2.1,8.6c-0.4,0.9-1.3,1.6-2,2.3
			l-1.2-1.1l-1.4,1.5c-3.7-2.2-8.8-2.3-13.7,1.4c0,0,0,0,0,0c-9,11.8,4.4,25.1,16.1,16.1c4-5.2,3.6-10.8,0.9-14.5l1.4-1.6l-1.5-1.3
			c0.1-0.1,0.2-0.2,0.4-0.4c0.9-0.9,1.6-1.7,2-2.9c1-3-2.1-5.4-2.3-8.2C606.4,901.6,605.5,901.6,605.5,902.1z"/>
	</g>
	<g id="bomb5">
		<path class="st89" d="M229.8,901.9l-1.5,0.7l1.4-1L229.8,901.9z M230.4,900l-1.3-1.2l1.1,1.4L230.4,900z M233.5,896.8l-1.9,2.9
			l0.3,0.2L233.5,896.8z M232.2,900.5l3.9-0.3l-3.9,0L232.2,900.5z M230.7,901.1c0.2,3,3.5,5.6,2.1,8.6c-0.4,0.9-1.3,1.6-2,2.3
			l-1.2-1.1l-1.4,1.5c-3.7-2.2-8.8-2.3-13.7,1.4c0,0,0,0,0,0c-9,11.8,4.4,25.1,16.1,16.1c4-5.2,3.6-10.8,0.9-14.5l1.4-1.6l-1.5-1.3
			c0.1-0.1,0.2-0.2,0.4-0.4c0.9-0.9,1.6-1.7,2-2.9c1-3-2.1-5.4-2.3-8.2C231.5,900.5,230.6,900.5,230.7,901.1z"/>
	</g>
	<g id="bomb4">
		<path class="st89" d="M747.5,793.2l-1.5,0.7l1.4-1L747.5,793.2z M748.2,791.3l-1.3-1.2l1.1,1.4L748.2,791.3z M751.2,788.1
			l-1.9,2.9l0.3,0.2L751.2,788.1z M749.9,791.8l3.9-0.3l-3.9,0L749.9,791.8z M748.4,792.4c0.2,3,3.5,5.6,2.1,8.6
			c-0.4,0.9-1.3,1.6-2,2.3l-1.2-1.1l-1.4,1.5c-3.7-2.2-8.8-2.3-13.7,1.4c0,0,0,0,0,0c-9,11.8,4.4,25.1,16.1,16.1
			c4-5.2,3.6-10.8,0.9-14.5l1.4-1.6l-1.5-1.3c0.1-0.1,0.2-0.2,0.4-0.4c0.9-0.9,1.6-1.7,2-2.9c1-3-2.1-5.4-2.3-8.2
			C749.2,791.8,748.3,791.8,748.4,792.4z"/>
	</g>
	<g id="bomb3">
		<path class="st89" d="M519.3,792.2l-1.5,0.7l1.4-1L519.3,792.2z M519.9,790.3l-1.3-1.2l1.1,1.4L519.9,790.3z M523,787.2l-1.9,2.9
			l0.3,0.2L523,787.2z M521.7,790.9l3.9-0.3l-3.9,0L521.7,790.9z M520.1,791.4c0.2,3,3.5,5.6,2.1,8.6c-0.4,0.9-1.3,1.6-2,2.3
			l-1.2-1.1l-1.4,1.5c-1.6-1-3.6-1.5-5.6-1.5c-6.1,0-11,4.9-11,11c0,6.1,4.9,11,11,11c6.1,0,11-4.9,11-11c0-2.4-0.8-4.6-2.1-6.4
			l1.4-1.6L521,803c0.1-0.1,0.2-0.2,0.4-0.4c0.9-0.9,1.6-1.7,2-2.9c1-3-2.1-5.4-2.3-8.2C521,790.8,520.1,790.8,520.1,791.4z"/>
	</g>
	<g id="bomb2">
		<path class="st89" d="M302.9,792.2l-1.5,0.7l1.4-1L302.9,792.2z M303.5,790.3l-1.3-1.2l1.1,1.4L303.5,790.3z M306.5,787.2
			l-1.9,2.9l0.3,0.2L306.5,787.2z M305.2,790.9l3.9-0.3l-3.9,0L305.2,790.9z M303.7,791.4c0.2,3,3.5,5.6,2.1,8.6
			c-0.4,0.9-1.3,1.6-2,2.3l-1.2-1.1l-1.4,1.5c-1.6-1-3.6-1.5-5.6-1.5c-6.1,0-11,4.9-11,11c0,6.1,4.9,11,11,11c6.1,0,11-4.9,11-11
			c0-2.4-0.8-4.6-2.1-6.4l1.4-1.6l-1.5-1.3c0.1-0.1,0.2-0.2,0.4-0.4c0.9-0.9,1.6-1.7,2-2.9c1-3-2.1-5.4-2.3-8.2
			C304.6,790.8,303.7,790.8,303.7,791.4z"/>
	</g>
	<g id="bomb1">
		<path class="st89" d="M160.3,793.3l-1.5,0.7l1.4-1L160.3,793.3z M160.9,791.5l-1.3-1.2l1.1,1.4L160.9,791.5z M163.9,788.3
			l-1.9,2.9l0.3,0.2L163.9,788.3z M162.7,792l3.9-0.3l-3.9,0L162.7,792z M161.1,792.6c0.2,3,3.5,5.6,2.1,8.6c-0.4,0.9-1.3,1.6-2,2.3
			l-1.2-1.1l-1.4,1.5c-1.6-1-3.6-1.5-5.6-1.5c-6.1,0-11,4.9-11,11c0,6.1,4.9,11,11,11c6.1,0,11-4.9,11-11c0-2.4-0.8-4.6-2.1-6.4
			l1.4-1.6l-1.5-1.3c0.1-0.1,0.2-0.2,0.4-0.4c0.9-0.9,1.6-1.7,2-2.9c1-3-2.1-5.4-2.3-8.2C162,792,161.1,792,161.1,792.6z"/>
	</g>
</g>
</svg>
